<svg width="61" height="87" viewBox="0 0 61 87" fill="none" xmlns="http://www.w3.org/2000/svg">
<path d="M16.1258 0.739357L16.8406 1.61733L22.5951 0.602539L25.8238 0.910415L28.2662 2.43824L28.6593 4.10296L28.7427 9.07421L28.0875 12.3352L28.147 13.1676L29.267 14.3078L46.0539 15.2883L47.5312 17.4091L47.7933 19.9061L48.6273 21.0463L52.4517 23.703L54.0482 23.9425L55.3349 25.4133L54.632 29.6548L54.8107 33.9648L56.4429 39.2439L57.3127 41.1594L59.3499 43.4398L60.2554 46.3473L59.5406 47.727L55.466 46.8604L52.2611 43.8845L49.2349 42.9267L45.9109 40.5665L45.2199 38.1607L43.8021 36.5302L39.7513 35.4927L36.8681 35.6523L36.5345 36.6899L37.166 40.692L34.9738 46.507L35.3551 47.0201L38.0119 46.8376L37.1779 49.6197L36.3082 50.6459L29.0644 50.4634L27.7539 51.6036L27.6705 52.4588L28.9453 54.6708L27.5037 61.2953V64.0318L28.29 66.8709L26.8484 70.0977L23.8461 72.3097L23.9533 73.1877L23.3934 73.9174L23.6555 75.5935L24.3584 76.3574V77.6914L23.5601 79.5385L25.6928 83.3811L25.8476 85.4904L23.0359 83.4495L19.5332 81.8418L17.3887 82.332L13.5166 80.998L10.1926 81.1348L8.87012 81.8646L5.14102 82.5259L3.02032 82.1382L1.29277 80.5306L0.589844 79.2763L0.780473 78.0221L2.41269 73.8034L6.48731 68.8663L9.33475 64.0888V60.9191L8.54846 58.9579L7.90509 58.9009L11.5865 47.2139L14.0885 42.8013L16.2568 40.8858L17.6627 37.4652L18.723 36.439L19.2353 34.1586L18.8064 30.2249L19.14 27.8875L17.3172 25.1282L18.7826 24.2503L18.3299 14.5928L17.7699 13.0535L16.5785 11.4003L10.1687 9.31368L7.78594 7.38674L9.29901 4.85546L10.9193 3.37322L16.1258 0.739357Z" fill="#0AA83F" stroke="#00344D" stroke-width="1.04942" stroke-miterlimit="10"/>
<path d="M22.9068 30.0039H22.1316L24.3736 23.8982H25.1368L27.3788 30.0039H26.6036L24.7791 24.8641H24.7314L22.9068 30.0039ZM23.193 27.6189H26.3174V28.2747H23.193V27.6189ZM28.3298 30.0039V23.8982H30.4644C30.8898 23.8982 31.2406 23.9717 31.5168 24.1188C31.7931 24.2639 31.9988 24.4596 32.134 24.7061C32.2691 24.9506 32.3367 25.2219 32.3367 25.52C32.3367 25.7824 32.29 25.999 32.1966 26.1699C32.1052 26.3409 31.9839 26.476 31.8329 26.5754C31.6838 26.6748 31.5218 26.7483 31.3469 26.796V26.8556C31.5337 26.8676 31.7216 26.9331 31.9104 27.0524C32.0992 27.1717 32.2572 27.3426 32.3844 27.5652C32.5116 27.7878 32.5752 28.0601 32.5752 28.3821C32.5752 28.6882 32.5056 28.9634 32.3665 29.2079C32.2274 29.4524 32.0078 29.6461 31.7076 29.7893C31.4075 29.9324 31.017 30.0039 30.536 30.0039H28.3298ZM29.0692 29.348H30.536C31.019 29.348 31.3618 29.2546 31.5645 29.0678C31.7693 28.879 31.8716 28.6504 31.8716 28.3821C31.8716 28.1754 31.8189 27.9846 31.7136 27.8097C31.6083 27.6328 31.4582 27.4916 31.2634 27.3863C31.0686 27.279 30.8381 27.2253 30.5718 27.2253H29.0692V29.348ZM29.0692 26.5814H30.4406C30.6632 26.5814 30.8639 26.5376 31.0428 26.4502C31.2237 26.3627 31.3668 26.2395 31.4721 26.0805C31.5794 25.9215 31.6331 25.7347 31.6331 25.52C31.6331 25.2517 31.5397 25.0241 31.3529 24.8373C31.166 24.6485 30.8699 24.5541 30.4644 24.5541H29.0692V26.5814ZM34.5295 23.8982V30.0039H33.7901V23.8982H34.5295ZM36.2624 30.0039H35.4872L37.7292 23.8982H38.4924L40.7343 30.0039H39.9592L38.1346 24.8641H38.0869L36.2624 30.0039ZM36.5486 27.6189H39.673V28.2747H36.5486V27.6189Z" fill="#00344D"/>
</svg>
