<svg width="171" height="250" viewBox="0 0 171 250" fill="none" xmlns="http://www.w3.org/2000/svg">
<path d="M169.68 2.56054L169.525 4.6471L168.548 6.65387L167.356 8.44397L166.046 9.39034L163.937 12.6969L162.317 18.2725L159.148 21.066L158.576 22.3202L157.849 25.7408L158.707 29.8569L159.624 31.0655V33.0039L157.706 34.8966L157.396 40.1529L156.205 42.0571L156.36 45.9908L155.43 48.2027L153.048 51.133L152.738 54.5536L150.82 55.6938L149.104 58.6698L142.11 59.9924L137.13 66.6968L137.309 67.837L139.144 69.6841V70.4138L137.774 73.538L135.605 75.1799V77.198L136.427 79.0223L139.632 80.5388L140.824 82.3517L138.25 85.8749L138.095 88.4404L137.452 89.9113L137.774 91.1769L136.487 92.853L136.88 93.7423L136.618 95.35L137.13 96.0683L136.249 98.5767L135.057 100.447L133.866 100.298L131.841 101.804L122.309 102.738L118.926 105.201L116.996 105.532L112.516 109.397L108.036 111.678L108.143 113.206L110.967 113.513L111.551 113.992L111.658 122.521L110.788 123.308L109.8 128.336L110.8 130.696L109.418 135.257L109.776 136.762L106.428 142.235L103.283 144.857V145.998L104.128 147.138L103.151 149.475L104.665 153.945L103.318 156.054L102.02 156.487L100.03 156.225L98.2905 156.841L97.6114 158.095L97.4208 161.208L96.2294 162.052L95.038 164.161L92.4408 164.378L88.39 167.525L87.4011 167.661L80.3956 165.792L79.6093 166.544L79.3234 168.494L77.9175 169.816L76.9525 173.294L74.8437 175.962L72.0677 176.122L70.7333 177.137L67.7906 176.817L65.5865 178.197L63.3109 178.573L62.4531 179.508L61.6429 184.069L63.3585 190.021L64.0496 196.6L63.9781 197.74L63.0607 198.378L60.1656 203.521L60.9042 206.383L61.1664 210.636L56.3174 217.921L52.207 221.49L50.1101 224.911L49.5383 227.191L48.2039 228.867L47.7154 232.801L46.3929 234.58L47.215 241.581L47.9895 243.633L44.4509 245.286L42.0681 245.594L38.7918 249.174L37.3383 248.171L37.3979 246.392L35.0865 241.125L34.6338 237.088L33.7522 235.116L34.4432 228.856L33.2518 226.576L30.6902 223.611L25.5434 219.233L22.5648 215.641L20.7539 214.364L19.0621 213.874L17.1082 214.307L13.7366 218.868L10.4959 221.148L7.26724 218.355L3.80022 212.996L0.797852 205.379L1.77481 203.578L6.70725 198.128L11.2346 194.456L17.2869 188.208L27.5688 175.073L34.8601 169.121L35.3844 166.749L34.9316 160.159L42.0801 147.115L43.2715 142.988L42.9617 140.924L40.5789 136.545L35.6464 134.869L32.4773 131.517L32.0722 127.139L32.6203 124.665L26.3535 113.468L23.8754 111.997L18.2996 110.743L16.5602 108.553L10.067 96.9463L17.4537 95.9087L21.4688 94.2782L32.6679 87.8247L39.5185 83.2639L40.8291 80.6072L40.2095 76.3885L41.0197 64.7242L48.5732 65.8644L51.79 65.6478L57.2347 64.1427L59.3554 62.8543L61.3808 60.6879L65.8248 54.3598L73.2115 46.31L76.2019 45.318L83.6958 44.7593L90.7251 42.2281L93.6322 39.2408L94.6091 36.2078L98.5645 36.0482L101.364 34.7484L104.009 30.5296L106.511 28.0668L109.502 26.3907L119.652 27.2915L123.072 28.4317L126.146 30.199L129.529 33.745L132.424 35.0562L135.26 36.1964H140.49L141.848 34.8054L143.612 25.9574L146.84 19.4811L148.294 15.3308L149.342 10.656L149.676 1.53436L153.357 1.04407L154.096 1.88782L158.564 3.18765L163.163 2.857L169.858 0.873047L169.68 2.56054Z" fill="#D62B3C" stroke="#00344D" stroke-width="1.04942" stroke-miterlimit="10"/>
<path d="M37.6816 109.056H36.7127L39.5151 101.423H40.4691L43.2716 109.056H42.3026L40.0219 102.631H39.9623L37.6816 109.056ZM38.0393 106.074H41.9449V106.894H38.0393V106.074ZM46.8156 109.056H44.4604V101.423H46.9199C47.6603 101.423 48.2938 101.576 48.8205 101.882C49.3472 102.185 49.751 102.621 50.0317 103.19C50.3124 103.756 50.4528 104.435 50.4528 105.225C50.4528 106.02 50.3112 106.704 50.028 107.278C49.7447 107.849 49.3323 108.289 48.7907 108.597C48.2491 108.903 47.5907 109.056 46.8156 109.056ZM45.3846 108.236H46.756C47.387 108.236 47.91 108.114 48.3249 107.871C48.7398 107.627 49.0491 107.281 49.2528 106.831C49.4565 106.381 49.5584 105.846 49.5584 105.225C49.5584 104.609 49.4578 104.078 49.2566 103.633C49.0553 103.186 48.7547 102.843 48.3547 102.605C47.9547 102.364 47.4566 102.243 46.8603 102.243H45.3846V108.236ZM51.9574 109.056H50.9885L53.791 101.423H54.745L57.5474 109.056H56.5785L54.2978 102.631H54.2381L51.9574 109.056ZM52.3152 106.074H56.2207V106.894H52.3152V106.074ZM58.7362 101.423H59.8393L62.433 107.759H62.5225L65.1162 101.423H66.2193V109.056H65.3547V103.257H65.2802L62.8952 109.056H62.0604L59.6753 103.257H59.6008V109.056H58.7362V101.423ZM68.3854 109.056H67.4165L70.2189 101.423H71.173L73.9754 109.056H73.0065L70.7258 102.631H70.6661L68.3854 109.056ZM68.7432 106.074H72.6487V106.894H68.7432V106.074ZM75.9561 109.056L73.8692 101.423H74.8083L76.4033 107.64H76.4779L78.1027 101.423H79.1461L80.771 107.64H80.8455L82.4405 101.423H83.3796L81.2927 109.056H80.3387L78.6542 102.974H78.5946L76.9101 109.056H75.9561ZM84.2498 109.056H83.2808L86.0833 101.423H87.0373L89.8397 109.056H88.8708L86.5901 102.631H86.5305L84.2498 109.056ZM84.6075 106.074H88.5131V106.894H84.6075V106.074Z" fill="#00344D"/>
</svg>
