<svg width="67" height="77" viewBox="0 0 67 77" fill="none" xmlns="http://www.w3.org/2000/svg">
<path d="M17.2861 72.7329L18.4775 73.303L19.5736 73.0864L20.622 72.9267L21.0152 73.246L16.75 74.1012L16.1662 73.4284L17.3576 72.7329H17.2861ZM65.3116 64.1016L66.3601 66.4847L65.4546 67.4196L64.1798 67.6704L63.9177 66.2566L64.5849 66.1425L65.0019 65.1164L65.3116 64.1016ZM3.8828 51.4796L3.73983 49.3702L1.60721 45.5391L2.40546 43.6807V42.3466L1.7025 41.5827L1.44043 39.9066L2.00036 39.1654L1.89313 38.2875L4.8955 36.0755L6.30135 32.7804L5.51501 29.9412V27.1933L6.9566 20.5688L5.68183 18.3568L5.7652 17.5017L7.07575 16.3615L14.3314 16.5439L15.2011 15.5177L16.0351 12.7356L13.3783 12.918L12.997 12.4049L15.1892 6.58993L14.5578 2.58782L14.9033 1.55027L17.7865 1.39062L21.8373 2.42818L23.2551 4.10431L23.9461 6.51011L27.2224 8.95015L30.2486 9.90788L33.4535 12.8839L32.4408 12.9978L31.0587 15.8255L31.8451 17.8665L32.8458 18.22L33.7751 20.432L39.4581 19.7935L45.4152 22.8492L45.8917 25.2436L45.165 32.1988L47.107 38.0481L51.1697 43.6464L54.9703 46.839L59.4618 51.7761L63.8343 54.98L64.5372 56.1202L64.0249 58.583L64.9661 59.0847V61.9352L64.3704 62.4483L63.8819 61.6844L63.7986 62.3457L65.2163 63.6797L64.5015 65.7321L63.6198 65.9487L63.739 67.0889L62.5476 68.4002L62.8335 68.594L61.5825 71.3077L55.3515 70.5893L48.5128 70.5095L35.7529 71.1366L21.3965 73.0521L20.7769 72.5277L18.6085 72.9382L17.5005 72.3909L16.4521 72.8013L15.3203 72.6987L15.916 73.6222L16.2377 74.1126L12.2822 75.6176L11.0908 73.6793L9.69686 72.9382L8.67223 72.7215L7.48083 71.5129L7.93357 70.4754L7.82634 70.3385L7.1949 70.9086L6.5992 70.4754L5.87242 69.1413V68.4116L6.48005 68.0467L5.78905 62.8588L6.98046 57.9902L6.22986 55.3677L3.84705 51.4112L3.8828 51.4796Z" fill="#0AA83F" stroke="#00344D" stroke-width="1.04942" stroke-miterlimit="10"/>
<path d="M13.1294 45.1123H12.3543L14.5963 39.0066H15.3595L17.6014 45.1123H16.8263L15.0017 39.9725H14.954L13.1294 45.1123ZM13.4157 42.7273H16.5401V43.3831H13.4157V42.7273ZM18.5525 45.1123V39.0066H19.2918V42.0356H19.3634L22.1062 39.0066H23.0721L20.5082 41.7613L23.0721 45.1123H22.1777L20.055 42.2741L19.2918 43.1327V45.1123H18.5525ZM25.1382 45.1123L23.4687 39.0066H24.22L25.496 43.9794H25.5556L26.8554 39.0066H27.6902L28.9901 43.9794H29.0497L30.3257 39.0066H31.077L29.4074 45.1123H28.6442L27.2967 40.2468H27.249L25.9014 45.1123H25.1382ZM31.7731 45.1123H30.998L33.2399 39.0066H34.0031L36.2451 45.1123H35.47L33.6454 39.9725H33.5977L31.7731 45.1123ZM32.0593 42.7273H35.1837V43.3831H32.0593V42.7273ZM37.9355 39.0066V45.1123H37.1961V39.0066H37.9355ZM39.418 45.1123V39.0066H41.5526C41.9779 39.0066 42.3287 39.0801 42.605 39.2272C42.8813 39.3723 43.087 39.568 43.2221 39.8145C43.3573 40.059 43.4249 40.3303 43.4249 40.6284C43.4249 40.8908 43.3782 41.1074 43.2847 41.2783C43.1933 41.4493 43.0721 41.5844 42.921 41.6838C42.7719 41.7832 42.61 41.8567 42.4351 41.9044V41.964C42.6219 41.976 42.8097 42.0415 42.9985 42.1608C43.1873 42.2801 43.3454 42.451 43.4726 42.6736C43.5998 42.8962 43.6634 43.1685 43.6634 43.4905C43.6634 43.7965 43.5938 44.0718 43.4547 44.3163C43.3155 44.5608 43.0959 44.7545 42.7958 44.8976C42.4957 45.0408 42.1051 45.1123 41.6241 45.1123H39.418ZM40.1573 44.4564H41.6241C42.1071 44.4564 42.45 44.363 42.6527 44.1762C42.8574 43.9874 42.9598 43.7588 42.9598 43.4905C42.9598 43.2838 42.9071 43.093 42.8018 42.9181C42.6964 42.7412 42.5464 42.6 42.3516 42.4947C42.1568 42.3874 41.9262 42.3337 41.6599 42.3337H40.1573V44.4564ZM40.1573 41.6898H41.5287C41.7513 41.6898 41.9521 41.646 42.131 41.5586C42.3118 41.4711 42.4549 41.3479 42.5603 41.1889C42.6676 41.0299 42.7213 40.8431 42.7213 40.6284C42.7213 40.3601 42.6279 40.1325 42.441 39.9457C42.2542 39.7569 41.958 39.6625 41.5526 39.6625H40.1573V41.6898ZM50.03 42.0594C50.03 42.7034 49.9137 43.2599 49.6812 43.729C49.4486 44.198 49.1296 44.5598 48.7242 44.8142C48.3187 45.0686 47.8556 45.1958 47.3349 45.1958C46.8141 45.1958 46.351 45.0686 45.9456 44.8142C45.5401 44.5598 45.2211 44.198 44.9886 43.729C44.756 43.2599 44.6397 42.7034 44.6397 42.0594C44.6397 41.4155 44.756 40.859 44.9886 40.3899C45.2211 39.9208 45.5401 39.5591 45.9456 39.3047C46.351 39.0503 46.8141 38.9231 47.3349 38.9231C47.8556 38.9231 48.3187 39.0503 48.7242 39.3047C49.1296 39.5591 49.4486 39.9208 49.6812 40.3899C49.9137 40.859 50.03 41.4155 50.03 42.0594ZM49.3145 42.0594C49.3145 41.5307 49.226 41.0845 49.0491 40.7208C48.8742 40.3571 48.6367 40.0818 48.3366 39.895C48.0384 39.7082 47.7045 39.6148 47.3349 39.6148C46.9652 39.6148 46.6303 39.7082 46.3302 39.895C46.032 40.0818 45.7945 40.3571 45.6176 40.7208C45.4427 41.0845 45.3553 41.5307 45.3553 42.0594C45.3553 42.5881 45.4427 43.0343 45.6176 43.398C45.7945 43.7618 46.032 44.037 46.3302 44.2239C46.6303 44.4107 46.9652 44.5041 47.3349 44.5041C47.7045 44.5041 48.0384 44.4107 48.3366 44.2239C48.6367 44.037 48.8742 43.7618 49.0491 43.398C49.226 43.0343 49.3145 42.5881 49.3145 42.0594ZM51.2732 39.0066H52.1556L54.2306 44.0748H54.3022L56.3772 39.0066H57.2597V45.1123H56.568V40.4734H56.5084L54.6003 45.1123H53.9325L52.0245 40.4734H51.9648V45.1123H51.2732V39.0066Z" fill="#00344D"/>
</svg>
