<svg width="61" height="79" viewBox="0 0 61 79" fill="none" xmlns="http://www.w3.org/2000/svg">
<path d="M23.3258 1.43555L23.85 1.89165L23.9572 6.01917L28.5203 5.87094L31.4273 7.47863L33.8697 7.56983L38.3136 9.50818L38.7426 10.4089L37.2533 14.3426L36.3597 15.574L34.3463 16.8739L32.1064 19.7016L32.3923 20.8418L31.6537 21.7881L31.1414 24.4676L31.606 25.0833L36.1929 26.4059L37.8847 28.4583L39.4812 32.6086L41.042 34.718L40.6845 35.8582L39.7076 36.1888L40.1961 37.7509L39.6004 39.598L40.4582 40.4418L42.7099 39.1534L43.4367 39.3016L44.1396 42.2433L45.7242 42.9616L45.3072 45.4131L47.547 49.7344L47.7615 51.4561L48.6669 52.5963L51.5144 54.1926L53.4922 53.0524L54.7789 53.155L56.1132 53.9988V54.6145L57.1021 54.8083L51.8599 57.4421L50.2396 58.9245L48.7265 61.4557L42.3882 63.0747L35.9785 61.6495L28.4607 62.9722L26.34 64.1124L25.232 68.16L22.3965 73.4278L19.2035 73.7356L13.8303 71.5464L11.9002 72.4586L8.27832 76.8484L5.78829 77.7947L2.92892 77.5553L1.60645 76.0959L2.79785 74.7618L5.08536 70.315L5.49044 67.3049L7.59921 61.9574L10.5777 56.7695L11.0305 49.9283L12.5555 45.7665L11.09 41.468L9.32676 33.1559L9.42206 31.5938L8.07577 30.3054L5.5381 19.3937L5.4547 19.0631L7.44432 18.1851L11.7215 18.9376L13.4252 17.9229L15.6174 15.0609L15.6889 11.9482L17.1662 7.25057L19.835 4.61671L21.6697 3.63616L23.3258 1.43555Z" fill="#0AA83F" stroke="#00344D" stroke-width="1.04942" stroke-miterlimit="10"/>
<path d="M19.2831 39.9961H18.6048L20.5665 34.6536H21.2343L23.196 39.9961H22.5178L20.9213 35.4988H20.8796L19.2831 39.9961ZM19.5335 37.9092H22.2674V38.4831H19.5335V37.9092ZM28.2647 34.6536V39.9961H27.6386L24.7273 35.8014H24.6752V39.9961H24.0282V34.6536H24.6543L27.576 38.8587H27.6281V34.6536H28.2647ZM29.7783 39.9961H29.1001L31.0618 34.6536H31.7296L33.6913 39.9961H33.0131L31.4166 35.4988H31.3748L29.7783 39.9961ZM30.0288 37.9092H32.7626V38.4831H30.0288V37.9092ZM34.5235 34.6536H35.2956L37.1113 39.0883H37.1739L38.9895 34.6536H39.7616V39.9961H39.1564V35.937H39.1043L37.4347 39.9961H36.8504L35.1809 35.937H35.1287V39.9961H34.5235V34.6536ZM41.0588 39.9961V34.6536H42.9266C43.2988 34.6536 43.6057 34.7179 43.8475 34.8466C44.0892 34.9736 44.2692 35.1449 44.3874 35.3605C44.5057 35.5744 44.5648 35.8118 44.5648 36.0727C44.5648 36.3022 44.524 36.4918 44.4422 36.6414C44.3622 36.7909 44.2561 36.9092 44.124 36.9961C43.9935 37.0831 43.8518 37.1474 43.6988 37.1892V37.2414C43.8622 37.2518 44.0266 37.3092 44.1918 37.4135C44.357 37.5179 44.4953 37.6674 44.6066 37.8622C44.7179 38.057 44.7735 38.2953 44.7735 38.577C44.7735 38.8448 44.7127 39.0857 44.5909 39.2996C44.4692 39.5135 44.277 39.6831 44.0144 39.8083C43.7518 39.9335 43.4101 39.9961 42.9892 39.9961H41.0588ZM41.7057 39.4222H42.9892C43.4118 39.4222 43.7118 39.3405 43.8892 39.177C44.0683 39.0118 44.1579 38.8118 44.1579 38.577C44.1579 38.3961 44.1118 38.2292 44.0196 38.0761C43.9274 37.9213 43.7961 37.7979 43.6257 37.7057C43.4553 37.6118 43.2535 37.5648 43.0205 37.5648H41.7057V39.4222ZM41.7057 37.0014H42.9057C43.1005 37.0014 43.2762 36.9631 43.4327 36.8866C43.5909 36.8101 43.7161 36.7022 43.8083 36.5631C43.9022 36.424 43.9492 36.2605 43.9492 36.0727C43.9492 35.8379 43.8675 35.6388 43.704 35.4753C43.5405 35.3101 43.2814 35.2275 42.9266 35.2275H41.7057V37.0014ZM45.8365 39.9961V34.6536H47.6417C48.0591 34.6536 48.4017 34.7249 48.6695 34.8675C48.9374 35.0083 49.1356 35.2023 49.2643 35.4492C49.393 35.6962 49.4574 35.977 49.4574 36.2918C49.4574 36.6066 49.393 36.8857 49.2643 37.1292C49.1356 37.3727 48.9382 37.564 48.6722 37.7031C48.4061 37.8405 48.0661 37.9092 47.6522 37.9092H46.1913V37.3248H47.6313C47.9165 37.3248 48.1461 37.2831 48.32 37.1996C48.4956 37.1161 48.6226 36.9979 48.7009 36.8448C48.7809 36.6901 48.8208 36.5057 48.8208 36.2918C48.8208 36.0779 48.7809 35.8909 48.7009 35.7309C48.6209 35.5709 48.493 35.4475 48.3174 35.3605C48.1417 35.2718 47.9096 35.2275 47.6209 35.2275H46.4835V39.9961H45.8365ZM48.3513 37.5961L49.6661 39.9961H48.9148L47.6209 37.5961H48.3513ZM50.7545 39.9961H50.0763L52.038 34.6536H52.7058L54.6675 39.9961H53.9892L52.3927 35.4988H52.351L50.7545 39.9961ZM51.0049 37.9092H53.7388V38.4831H51.0049V37.9092Z" fill="#00344D"/>
</svg>
