<svg width="10" height="6" viewBox="0 0 10 6" fill="none" xmlns="http://www.w3.org/2000/svg">
<path d="M5 6C4.87474 6.00014 4.75068 5.97534 4.63497 5.92701C4.51925 5.87867 4.41415 5.80777 4.32571 5.71836L0.27931 1.64075C0.10047 1.46051 -8.96955e-07 1.21604 0 0.961138C8.96967e-07 0.706235 0.100473 0.461773 0.279314 0.28153C0.458155 0.101287 0.700715 2.75186e-05 0.953634 2.84172e-05C1.20655 2.93159e-05 1.44911 0.10129 1.62795 0.281534L5 3.67954L8.37205 0.281506C8.55089 0.101261 8.79345 8.98633e-07 9.04637 0C9.29928 -8.98621e-07 9.54184 0.101258 9.72069 0.281501C9.89953 0.461744 10 0.706207 10 0.96111C10 1.21601 9.89953 1.46048 9.72069 1.64072L5.67429 5.71839C5.58585 5.80779 5.48075 5.87869 5.36503 5.92702C5.24931 5.97535 5.12526 6.00015 5 6Z" fill="#C6C7CB"/>
</svg>
