<svg width="178" height="217" viewBox="0 0 178 217" fill="none" xmlns="http://www.w3.org/2000/svg">
<path d="M142.478 0.939453L151.699 7.99729L153.058 11.3381L153.975 19.4107L153.749 21.4744L157.514 26.7878L157.764 34.4727L158.157 37.5513L159.348 40.6412L159.587 45.0538L169.535 68.8954L169.261 74.5051L168.01 77.6065L166.818 85.337L168.76 87.0815L172.335 87.5034L171.381 87.7771L168.153 92.0642L161.004 95.8041L157.942 100.023L155.56 102.018L153.784 102.885L149.126 103.888L147.363 105.439L145.719 107.719L144.527 113.352L141.406 121.858L137.105 127.638L136.866 129.212L145.659 132.633L147.017 134.582L148.054 142.735L149.102 144.046L157.68 147.033L160.158 152.666L159.587 162.506L160.063 165.767L159.074 167.773L154.428 168.492L152.045 169.541L150.484 171.719L150.877 173.566L155.989 178.56L158.967 180.167L169.868 188.251L171.334 192.573L172.061 199.631L175.134 205.651L177.148 208.068L176.993 209.151L176.302 209.334H171.536L163.864 208.091L151.306 213.621L144.337 212.732L138.868 215.753L131.291 211.842L123.928 207.281L110.739 201.877L99.7066 196.164L96.6446 195.583L87.5899 191.079L84.0157 193.109L83.6583 194.751L87.4351 199.38L87.7568 201.364L87.1611 203.268L81.49 204.75L78.0468 210.691L72.8165 212.298L60.9025 212.971L54.3021 211.34L48.5834 211.033L46.7843 210.428L44.9019 208.843L42.9361 204.203L41.8638 202.88L40.9226 202.071L36.2523 200.452L35.5375 199.482L35.6447 197.555L38.4802 192.459L38.7543 191.125L38.4445 184.352L37.2531 180.783L35.1086 178.594L33.8457 178.355L20.7402 180.852V166.736L19.8109 161.263L16.7013 156.52L13.3892 155.516L9.60058 155.425L7.77773 155.984L4.76348 152.894L1.58244 150.91L1.26074 150.078L4.06055 145.289L4.69199 140.728L5.8834 140.089L8.96913 135.426L10.5537 131.036L10.4584 128.756L9.54102 126.852L4.94218 121.915L4.40607 119.634L3.92948 111.778L4.46562 107.788L6.37188 102.577L7.56329 102.087L10.7801 102.269L13.1629 101.687L16.4273 98.0275L19.5846 93.3412L25.2318 88.5866L26.0301 87.3324L28.9848 85.5423L30.9982 85.2002L32.3564 86.4202L33.7146 86.5228L40.2912 84.0486L41.4826 83.832L48.631 85.0862L57.4832 87.8341L61.4744 86.1694L64.2146 87.0017L66.3353 91.1862L70.0644 91.4257L79.2382 90.8784L83.4915 89.8408L84.8497 90.1829L88.0308 95.7699L88.6741 98.2213L87.6853 107.172L88.6503 109.452L90.2587 111.003L97.0497 112.36L103.722 110.775L105.58 110.969L107.796 112.519L110.727 113.226L112.943 112.576L111.68 108.723V106.67L113.503 104.492L116.517 102.942L121.283 101.802L122.999 100.912L125.203 99.3273L126.513 96.2259L125.322 94.5612L114.754 93.9227L108.046 92.5317L100.433 91.6537L96.8591 89.5444L90.5446 81.0841L89.3532 78.2336L88.7933 75.3033L84.2183 76.3751L82.8124 75.1094L82.1571 73.1255L85.1476 67.4245L84.5281 62.4988L82.6814 57.4135L80.5249 56.8434L77.2486 57.1513L74.7228 58.2915H71.6132L70.0048 57.5732L70.5886 52.7159L74.4249 47.5394L81.764 47.0149L88.281 43.5943L101.315 39.3414L108.737 36.4795L110.155 35.4077V32.8422L109.476 30.6987L117.47 7.22196L122.879 4.94156L127.025 4.31444L128.217 5.24941L129.206 7.11933L129.349 8.70421L142.478 0.939453Z" fill="#64CCFF" stroke="#00344D" stroke-width="1.04942" stroke-miterlimit="10"/>
<path d="M61.6957 154.604V146.972H64.364C64.8956 146.972 65.3341 147.064 65.6795 147.248C66.0248 147.429 66.282 147.674 66.4509 147.982C66.6198 148.288 66.7043 148.627 66.7043 149C66.7043 149.328 66.6459 149.598 66.5292 149.812C66.4149 150.026 66.2633 150.195 66.0745 150.319C65.8882 150.443 65.6857 150.535 65.4671 150.595V150.669C65.7006 150.684 65.9354 150.766 66.1714 150.915C66.4074 151.064 66.6049 151.278 66.7639 151.556C66.9229 151.834 67.0024 152.175 67.0024 152.577C67.0024 152.96 66.9155 153.304 66.7416 153.609C66.5677 153.915 66.2931 154.157 65.918 154.336C65.5428 154.515 65.0546 154.604 64.4534 154.604H61.6957ZM62.6199 153.785H64.4534C65.0571 153.785 65.4857 153.668 65.7391 153.434C65.995 153.198 66.123 152.913 66.123 152.577C66.123 152.319 66.0571 152.08 65.9254 151.862C65.7938 151.641 65.6062 151.464 65.3627 151.332C65.1192 151.198 64.831 151.131 64.4981 151.131H62.6199V153.785ZM62.6199 150.326H64.3342C64.6124 150.326 64.8633 150.272 65.0869 150.162C65.313 150.053 65.4919 149.899 65.6236 149.7C65.7577 149.501 65.8248 149.268 65.8248 149C65.8248 148.664 65.7081 148.38 65.4745 148.146C65.241 147.91 64.8708 147.792 64.364 147.792H62.6199V150.326ZM68.8341 154.604H67.8652L70.6676 146.972H71.6216L74.4241 154.604H73.4551L71.1744 148.18H71.1148L68.8341 154.604ZM69.1918 151.623H73.0974V152.443H69.1918V151.623ZM80.6215 146.972H81.5457V152.026C81.5457 152.547 81.4227 153.013 81.1767 153.423C80.9333 153.831 80.5892 154.152 80.1445 154.388C79.6998 154.622 79.178 154.739 78.5793 154.739C77.9805 154.739 77.4588 154.622 77.0141 154.388C76.5694 154.152 76.224 153.831 75.9781 153.423C75.7346 153.013 75.6129 152.547 75.6129 152.026V146.972H76.5371V151.951C76.5371 152.324 76.6191 152.655 76.783 152.946C76.947 153.234 77.1805 153.462 77.4836 153.628C77.7892 153.792 78.1544 153.874 78.5793 153.874C79.0041 153.874 79.3693 153.792 79.6749 153.628C79.9805 153.462 80.214 153.234 80.3755 152.946C80.5395 152.655 80.6215 152.324 80.6215 151.951V146.972ZM89.5328 149.357H88.6086C88.554 149.092 88.4583 148.858 88.3217 148.657C88.1875 148.456 88.0235 148.287 87.8297 148.15C87.6384 148.011 87.426 147.906 87.1925 147.837C86.959 147.767 86.7155 147.733 86.4621 147.733C86 147.733 85.5813 147.849 85.2062 148.083C84.8335 148.316 84.5366 148.66 84.3155 149.115C84.0969 149.57 83.9876 150.128 83.9876 150.788C83.9876 151.449 84.0969 152.007 84.3155 152.462C84.5366 152.916 84.8335 153.26 85.2062 153.494C85.5813 153.727 86 153.844 86.4621 153.844C86.7155 153.844 86.959 153.809 87.1925 153.74C87.426 153.67 87.6384 153.567 87.8297 153.431C88.0235 153.291 88.1875 153.121 88.3217 152.92C88.4583 152.716 88.554 152.483 88.6086 152.219H89.5328C89.4633 152.609 89.3366 152.959 89.1527 153.267C88.9689 153.575 88.7403 153.837 88.467 154.053C88.1937 154.267 87.8869 154.429 87.5465 154.541C87.2086 154.653 86.8472 154.709 86.4621 154.709C85.8111 154.709 85.2323 154.55 84.7254 154.232C84.2186 153.914 83.8199 153.462 83.5292 152.875C83.2385 152.289 83.0932 151.593 83.0932 150.788C83.0932 149.983 83.2385 149.288 83.5292 148.701C83.8199 148.115 84.2186 147.663 84.7254 147.345C85.2323 147.027 85.8111 146.868 86.4621 146.868C86.8472 146.868 87.2086 146.924 87.5465 147.036C87.8869 147.147 88.1937 147.311 88.467 147.528C88.7403 147.741 88.9689 148.002 89.1527 148.31C89.3366 148.616 89.4633 148.965 89.5328 149.357ZM91.0263 154.604V146.972H91.9505V150.371H96.02V146.972H96.9442V154.604H96.02V151.191H91.9505V154.604H91.0263ZM99.7187 146.972V154.604H98.7945V146.972H99.7187Z" fill="#00344D"/>
</svg>
