<svg width="102" height="81" viewBox="0 0 102 81" fill="none" xmlns="http://www.w3.org/2000/svg">
<path d="M100.683 56.6773L100.433 55.9704L99.6228 56.0844L94.8571 53.1199L93.4274 48.1258L91.7833 45.9936H89.4005L81.6087 48.8897L80.4173 48.5933L80.0003 46.3813L80.5007 44.7166L76.5571 43.0747L75.9614 42.1283L76.0448 37.1798L78.3085 34.1355L79.214 31.7981V30.3501L77.6771 30.5325L76.6763 29.6431L78.2608 24.5807L83.6103 15.6415L86.9105 15.8353L87.5657 15.2652L88.4593 12.4262L90.294 11.5254L90.02 9.4616L91.9024 8.24165L93.0343 6.55411V4.34212L92.2837 2.58624L91.3782 1.9249L89.0907 0.978516L85.588 1.53727L84.3966 1.21798L85.314 4.03431L83.8843 5.00345L77.832 7.47767L73.674 6.97598L70.4095 7.53466L68.0267 12.2095L65.5128 12.8024L64.5716 12.1183L62.8202 12.0271L62.3914 13.1103L62.7011 15.7441L59.3294 17.5228L57.3994 18.1613L53.8252 17.8877L52.3597 20.1681L49.6076 20.875L47.3558 20.1111L46.1644 18.2184L43.6505 16.7589L42.757 17.329L40.8984 20.818L36.9668 22.688L33.8453 22.2091L24.9336 26.8839L23.8137 26.462L21.0496 26.9181L19.8582 25.6639L16.6533 23.8396L13.0195 23.03L9.56445 21.1373L7.06251 18.7428L6.39531 19.5638L5.53751 18.9139L3.83379 19.5182L3.40489 18.9481L1.46289 19.9059L4.27461 25.1622L6.55019 31.7867L6.14512 32.6875L7.27695 34.4206L7.69395 36.5413L12.5311 44.2605L12.7574 45.9024L13.8773 46.5295V46.7234V47.9776L22.8129 59.8128L24.2306 60.5198V61.3749L27.5308 62.9142L27.2092 63.3817L28.4006 64.2368L28.5435 64.9779L31.5935 66.7909L31.8199 66.3462L32.1892 66.7339L31.9271 67.0075V67.3951L35.0367 69.858H35.6086L35.4418 68.98L34.9056 68.7406L36.7881 68.2161L35.8826 69.0143L36.2757 69.8352L35.966 70.1431L36.0494 70.7246L38.8134 72.6629L44.8539 75.3538L45.0802 73.0734L44.139 72.4919L43.4837 71.0666L43.8888 71.2034L44.2343 72.2182L45.1755 72.469L45.0326 71.6709H45.5211V72.469L46.1406 72.6629L46.4504 73.5408L45.7117 74.8863L46.0214 75.3765L45.6164 76.8588L46.0929 77.1895L52.2644 78.6945L52.4908 76.1519L53.2652 75.4906L53.7179 79.8689L63.6542 79.0708L62.8917 76.3343L64.0831 72.9137L64.8575 71.6595L64.7265 70.0632L62.4509 68.752L63.0228 68.695L64.4406 69.0029L65.632 70.8044L66.3468 69.516L65.6915 68.6152L65.7988 66.1752L64.798 64.6359L65.1673 63.7921L65.3699 64.9323L66.1919 65.5594V65.9927L67.0736 68.2731L66.9544 71.8078L70.195 68.9914L69.504 68.2731L69.6232 66.0611L71.8987 65.377L72.4944 64.6587L73.3165 66.4944L73.4595 67.9652L72.8876 69.1054L73.6025 70.6105L73.662 72.4463L75.2585 72.7427L76.5453 74.4644H77.1171L76.8907 74.8407L77.1528 75.3309L79.7382 74.7837L79.9646 75.1713L79.2259 75.9125L81.0488 76.8132L91.128 75.7756V75.2284L90.6515 74.6469L90.5681 73.7689L90.4489 73.3812L91.2472 72.4006L91.962 71.7393L91.3425 74.0197L91.6046 74.4644L93.9874 76.4711L95.1788 75.3309L99.3845 74.8977L98.7888 72.0814L98.6815 71.6481L98.2288 70.3597L96.8587 69.5045L96.6323 68.3643V68.1477L96.9778 66.9391L96.3464 64.3736L95.8579 63.7465L96.2749 63.336L97.1804 64.3622L98.6696 69.1511L99.1224 68.4897L98.3479 62.5265L100.373 58.6612L100.683 56.5747V56.6773ZM78.2966 77.2807L68.5033 78.4209L65.1673 78.3068L64.9052 77.5088L66.5255 74.6354H66.7042H67.2403L67.4072 73.1532L69.79 70.6562L69.9329 70.3027L70.4452 69.2879L70.9814 69.0713L70.2785 68.1933L70.064 66.711L70.7193 66.312L71.9107 66.0954L72.9829 67.6232L72.3872 69.1397L73.3165 70.9868L73.0544 72.7769L74.9964 73.2786L75.7708 74.3276L78.2847 77.2693L78.2966 77.2807Z" fill="#0AA83F" stroke="#00344D" stroke-width="1.04942" stroke-miterlimit="10"/>
<path d="M20.3773 45.0928V37.4606H23.0456C23.5773 37.4606 24.0158 37.5525 24.3611 37.7364C24.7065 37.9177 24.9636 38.1625 25.1325 38.4705C25.3015 38.7761 25.3859 39.1152 25.3859 39.4879C25.3859 39.8158 25.3276 40.0866 25.2108 40.3003C25.0965 40.514 24.945 40.6829 24.7561 40.8071C24.5698 40.9313 24.3673 41.0233 24.1487 41.0829V41.1574C24.3822 41.1723 24.617 41.2543 24.853 41.4034C25.0891 41.5525 25.2866 41.7661 25.4456 42.0444C25.6046 42.3226 25.6841 42.663 25.6841 43.0655C25.6841 43.4481 25.5971 43.7922 25.4232 44.0978C25.2493 44.4033 24.9748 44.6456 24.5996 44.8245C24.2245 45.0033 23.7363 45.0928 23.1351 45.0928H20.3773ZM21.3015 44.2729H23.1351C23.7388 44.2729 24.1673 44.1561 24.4207 43.9226C24.6766 43.6866 24.8046 43.4009 24.8046 43.0655C24.8046 42.8071 24.7388 42.5686 24.6071 42.35C24.4754 42.1288 24.2878 41.9525 24.0444 41.8208C23.8009 41.6866 23.5127 41.6195 23.1798 41.6195H21.3015V44.2729ZM21.3015 40.8146H23.0158C23.2941 40.8146 23.545 40.7599 23.7686 40.6506C23.9947 40.5413 24.1735 40.3873 24.3052 40.1885C24.4394 39.9897 24.5065 39.7562 24.5065 39.4879C24.5065 39.1525 24.3897 38.868 24.1562 38.6345C23.9226 38.3985 23.5524 38.2805 23.0456 38.2805H21.3015V40.8146ZM27.5157 45.0928H26.5468L29.3492 37.4606H30.3033L33.1057 45.0928H32.1368L29.8561 38.668H29.7964L27.5157 45.0928ZM27.8735 42.1115H31.779V42.9313H27.8735V42.1115ZM32.8597 37.4606H33.9181L36.0348 41.0233H36.1243L38.241 37.4606H39.2994L36.5417 41.9475V45.0928H35.6175V41.9475L32.8597 37.4606ZM40.4947 45.0928V37.4606H45.1008V38.2805H41.4189V40.8593H44.8623V41.6792H41.4189V44.2729H45.1605V45.0928H40.4947ZM46.7667 45.0928V37.4606H47.6909V44.2729H51.2386V45.0928H46.7667ZM56.8435 39.3686C56.7988 38.991 56.6174 38.6978 56.2994 38.4892C55.9814 38.2805 55.5914 38.1761 55.1293 38.1761C54.7914 38.1761 54.4957 38.2308 54.2423 38.3401C53.9914 38.4494 53.7951 38.5997 53.6535 38.791C53.5144 38.9823 53.4448 39.1997 53.4448 39.4432C53.4448 39.6469 53.4933 39.8221 53.5902 39.9686C53.6895 40.1127 53.8162 40.2332 53.9703 40.3301C54.1243 40.4245 54.2858 40.5028 54.4547 40.5649C54.6237 40.6245 54.779 40.673 54.9206 40.7102L55.6957 40.9189C55.8945 40.9711 56.1156 41.0431 56.3591 41.1351C56.605 41.227 56.8398 41.3525 57.0634 41.5115C57.2895 41.668 57.4758 41.8692 57.6224 42.1152C57.769 42.3611 57.8423 42.663 57.8423 43.0208C57.8423 43.4332 57.7342 43.8058 57.518 44.1388C57.3044 44.4717 56.9913 44.7363 56.5789 44.9325C56.169 45.1288 55.6709 45.2269 55.0845 45.2269C54.538 45.2269 54.0647 45.1387 53.6647 44.9623C53.2672 44.7859 52.9541 44.54 52.7256 44.2245C52.4995 43.9089 52.3715 43.5425 52.3417 43.1251H53.2957C53.3206 43.4133 53.4175 43.6518 53.5864 43.8406C53.7579 44.027 53.974 44.1661 54.2349 44.258C54.4982 44.3474 54.7814 44.3922 55.0845 44.3922C55.4373 44.3922 55.7541 44.335 56.0348 44.2207C56.3156 44.104 56.5379 43.9425 56.7019 43.7363C56.8659 43.5276 56.9479 43.2841 56.9479 43.0059C56.9479 42.7524 56.8771 42.5462 56.7354 42.3872C56.5938 42.2282 56.4075 42.099 56.1764 41.9997C55.9454 41.9003 55.6957 41.8133 55.4274 41.7388L54.4883 41.4705C53.892 41.299 53.42 41.0543 53.0721 40.7363C52.7243 40.4183 52.5504 40.0022 52.5504 39.4879C52.5504 39.0606 52.6659 38.6879 52.897 38.3699C53.1305 38.0494 53.4436 37.801 53.8361 37.6246C54.2311 37.4457 54.6721 37.3563 55.1591 37.3563C55.651 37.3563 56.0882 37.4444 56.4709 37.6208C56.8535 37.7948 57.1566 38.0333 57.3802 38.3364C57.6062 38.6395 57.7255 38.9836 57.7379 39.3686H56.8435ZM59.6748 45.0928H58.7059L61.5083 37.4606H62.4624L65.2648 45.0928H64.2959L62.0152 38.668H61.9555L59.6748 45.0928ZM60.0326 42.1115H63.9381V42.9313H60.0326V42.1115Z" fill="#00344D"/>
</svg>
