<svg width="181" height="122" viewBox="0 0 181 122" fill="none" xmlns="http://www.w3.org/2000/svg">
<path d="M13.309 9.46884L24.1865 12.2966L34.3254 13.7218L44.7382 17.7809L50.5999 20.9963L56.8548 22.1365L58.1296 21.9768L62.0851 25.1694L68.4353 27.712L69.7935 26.4578L69.9007 24.9072L64.3011 11.6352L64.2058 8.76193L65.3972 5.50097L66.8745 3.89329L71.5806 1.38483L73.2247 1.06558L76.3104 0.860352L79.5034 1.36204L91.5247 5.60359L99.6977 7.37088L105.512 7.83837L110.277 7.58752V6.78937L124.324 16.9714L119.809 23.8126L122.072 24.4625L129.364 21.4638L138.264 20.3806L148.009 20.9279L156.921 22.946L163.045 28.533L168.287 34.8839L178.259 43.5152L178.092 44.2563L179.486 45.807L179.176 46.9472L179.844 48.9768L179.141 52.6596L176.305 59.3754L176.651 66.1254L175.554 67.7558L171.873 69.9678L167.775 73.6735L163.879 80.7769L161.365 93.8892L162.092 94.7216L161.698 95.953V105.941L159.435 115.279L158.577 115.621L156.051 114.789L155.122 116.408L155.241 118.689L151.881 120.673L149.749 120.923L146.437 120.422L145.662 118.654L139.848 111.095L133.26 104.561L131.484 103.741L127.803 103.49L116.401 106.044L111.099 105.576L109.658 104.561L110.444 99.1227L109.777 97.2528L99.5428 91.0843L93.0735 89.1574L90.5596 89.0776L87.8075 89.7503L85.2937 90.5142L83.4827 91.8825L84.4001 97.0134L80.6591 99.2026L76.93 100.149L72.355 99.9893L69.9007 99.2254L67.6132 99.7385L65.9929 101.734L63.1812 104.014L59.607 104.573L57.5816 101.985L56.5808 97.1274L54.4839 95.6451L53.2925 98.279L49.2298 98.7009L47.121 101.985L44.8335 103.045L41.3189 102.76L37.2085 103.216L35.7193 112.6L34.5279 114.937L32.848 115.61L30.7273 114.766L25.9617 110.57L25.1873 108.814L25.3898 107.777L28.1062 100.457L27.034 94.0489L25.3421 91.6088L23.5312 90.2976L20.1834 89.8985L17.5503 92.3043L15.0484 93.1367L11.5695 91.4036L7.30426 88.2566L3.86112 84.437L0.59668 77.0143L0.751532 76.41L1.24001 75.8399L2.24079 76.5012L6.25585 80.2525L7.23278 80.1384L8.84118 81.3356H10.9381L11.3431 76.296L12.5345 74.6541L20.2072 71.0967L24.1388 67.5506L26.4501 60.9033L26.9506 56.4223L27.5105 54.9514L28.9759 53.5718L29.4048 51.508L27.6415 50.9721L23.698 51.337L22.1015 50.0942L20.6242 43.7889L19.9451 36.0241V28.1567L19.0753 26.0474L15.8586 23.0715L13.6187 19.4L12.9754 12.707L13.309 9.46884Z" fill="#0AA83F" stroke="#00344D" stroke-width="1.04942" stroke-miterlimit="10"/>
<path d="M69.1449 59.4785V51.8463H71.8132C72.3449 51.8463 72.7834 51.9383 73.1287 52.1221C73.474 52.3035 73.7312 52.5482 73.9001 52.8563C74.0691 53.1618 74.1535 53.501 74.1535 53.8736C74.1535 54.2016 74.0951 54.4724 73.9784 54.686C73.8641 54.8997 73.7125 55.0686 73.5237 55.1929C73.3374 55.3171 73.1349 55.409 72.9163 55.4686V55.5432C73.1498 55.5581 73.3846 55.6401 73.6206 55.7891C73.8566 55.9382 74.0541 56.1519 74.2132 56.4301C74.3722 56.7084 74.4517 57.0487 74.4517 57.4512C74.4517 57.8338 74.3647 58.1779 74.1908 58.4835C74.0169 58.7891 73.7424 59.0313 73.3672 59.2102C72.9921 59.3891 72.5039 59.4785 71.9026 59.4785H69.1449ZM70.0691 58.6587H71.9026C72.5063 58.6587 72.9349 58.5419 73.1883 58.3083C73.4442 58.0723 73.5722 57.7866 73.5722 57.4512C73.5722 57.1928 73.5063 56.9543 73.3747 56.7357C73.243 56.5146 73.0554 56.3382 72.8119 56.2065C72.5685 56.0724 72.2803 56.0053 71.9474 56.0053H70.0691V58.6587ZM70.0691 55.2003H71.7834C72.0616 55.2003 72.3126 55.1457 72.5362 55.0364C72.7622 54.927 72.9411 54.773 73.0728 54.5742C73.207 54.3755 73.274 54.142 73.274 53.8736C73.274 53.5382 73.1573 53.2538 72.9237 53.0202C72.6902 52.7842 72.32 52.6662 71.8132 52.6662H70.0691V55.2003ZM75.9703 59.4785V51.8463H80.5764V52.6662H76.8945V55.245H80.3379V56.0649H76.8945V58.6587H80.636V59.4785H75.9703ZM88.2943 51.8463V59.4785H87.3999L83.241 53.4861H83.1664V59.4785H82.2422V51.8463H83.1366L87.3105 57.8537H87.385V51.8463H88.2943ZM95.1523 51.8463H96.0765V56.8997C96.0765 57.4214 95.9535 57.8872 95.7075 58.2972C95.4641 58.7046 95.12 59.0263 94.6752 59.2624C94.2305 59.4959 93.7088 59.6127 93.1101 59.6127C92.5113 59.6127 91.9896 59.4959 91.5449 59.2624C91.1001 59.0263 90.7548 58.7046 90.5089 58.2972C90.2654 57.8872 90.1436 57.4214 90.1436 56.8997V51.8463H91.0679V56.8251C91.0679 57.1978 91.1498 57.5295 91.3138 57.8202C91.4778 58.1084 91.7113 58.3357 92.0144 58.5021C92.32 58.6661 92.6852 58.7481 93.1101 58.7481C93.5349 58.7481 93.9001 58.6661 94.2057 58.5021C94.5113 58.3357 94.7448 58.1084 94.9063 57.8202C95.0703 57.5295 95.1523 57.1978 95.1523 56.8251V51.8463ZM97.9221 59.4785V51.8463H102.528V52.6662H98.8463V55.245H102.29V56.0649H98.8463V58.6587H102.588V59.4785H97.9221Z" fill="#00344D"/>
</svg>
