<svg width="227" height="266" viewBox="0 0 227 266" fill="none" xmlns="http://www.w3.org/2000/svg">
<path d="M128.268 0.748047L129.102 7.19018L128.113 10.6108L132.271 17.7484L132.033 20.6217L131.485 21.1804L131.818 18.7062L130.627 20.2227L130.317 22.4118L133.153 25.3193L136.084 26.0149L135.309 26.7788L135.643 27.3945L136.572 27.6111L141.886 36.1968L145.257 39.7087L146.449 39.9595L148.498 41.0997L150.44 42.4679L155.051 43.3231L155.361 44.3037H154.67L154.002 45.5579L153.764 44.4177L152.978 45.079H152.096L153.812 46.9033L154.133 48.9101L158.816 47.4962L161.568 44.5203L164.511 42.2399L166.417 41.476L165.13 43.4827L165.309 43.9958L166.083 43.7792L166.762 46.4472L166.369 46.6981L165.571 45.1246L164.558 45.6719L163.879 47.0287L161.496 47.6787L162.295 49.8222L160.877 51.1107L158.637 55.3636L159.125 56.2416L160.758 55.7285L160.674 58.5106L159.983 59.8218H160.996L160.591 61.3725L159.221 63.1284L159.697 63.7783L161.568 63.288L161.913 63.9151L158.78 65.5L161.163 66.0701L160.984 67.0849H162.414L161.52 68.054L159.947 68.4303L160.09 68.9092L161.568 68.6469L161.711 69.3311L161.139 69.8327L160.865 69.4109L159.673 69.6731L159.959 70.5283L160.841 70.3914L159.828 72.2956L161.627 72.535L161.889 74.0629L161.21 74.9066L161.52 76.3319L162.712 76.5827L163.343 77.9624L163.057 79.2736L165.44 79.9007L165.845 81.5654L166.572 82.1583L168.49 81.0751L169.038 81.3031L169.884 83.4809L171.337 84.2905L171.707 85.5219L174.28 86.3998V87.6541L175.078 88.7943L174.638 90.1511L175.483 90.8808L176.806 91.5079L178.486 90.9378L180.869 91.2343L180.547 92.3745L181.536 92.4429L182 91.6562L184.157 91.5763L185.908 90.6528L188.839 90.5616L189.042 91.9526L190.316 92.0552L190.173 93.0928L188.684 93.4577L188.946 94.062L188.493 94.7917L189.685 95.111L192.366 98.0869L196.44 97.4826H197.632L198.144 98.4061L200.193 97.4142L203.684 98.4061L207.854 98.0071L208.664 98.3605L209.677 98.4974L211.595 98.885L212.536 100.253L214.049 100.641L214.454 101.633H213.656L213.751 102.91L216.337 104.05L217.171 105.612L216.313 107.197L219.887 108.075L220.793 109.785L220.149 110.31L221.495 110.926L222.425 111.062L222.568 110.504L223.759 110.412L224.367 109.831L225.951 112.693L224.319 114.164L223.938 116.216L223.056 117.208L223.866 119.488L221.817 120.811L221.746 122.601L224.367 126.911L222.925 128.895L223.199 130.434L220.435 133.593V135.303L220.781 139.624L219.947 141.027L216.599 143.478L216.527 144.105L218.028 146.066L220.411 147.355L222.985 149.841L223.509 152.303L222.77 157.64L221.269 158.7L213.692 161.63L209.069 162.656L206.77 166.305L197.238 169.919L193.331 172.28L191.031 175.301L185.658 177.479H182.894L179.653 174.777L176.651 174.275L175.376 173.329L174.101 173.511L173.375 174.378L172.684 177.023L170.205 179.759L169.276 182.815L168.418 183.955L166.679 185.096L166.965 186.794L166.19 187.034L164.904 188.949L162.14 191.23L160.698 194.548L156.838 196.383L153.955 196.999L153.037 197.854L152.811 199.838L146.115 201.822L141.516 202.153L137.049 200.853L136.31 200.009L132.629 200.5L132.295 209.621L131.246 214.296L129.793 218.526L126.564 225.002L124.801 233.85L123.443 235.241H118.213L115.377 234.101L112.482 232.79L109.074 229.255L106.001 227.488L102.581 226.348L92.4306 225.447L89.4401 227.123L86.9381 229.586L84.2933 233.805L81.4934 235.105L77.538 235.264L76.5611 238.297L73.654 241.285L66.6247 243.816L59.1308 244.374L56.1403 245.366L48.7536 253.416L44.3097 259.744L42.3558 261.854L40.2827 263.074L34.838 264.579L31.6212 264.795L24.0677 263.655L19.4093 261.147L17.2529 259.323L13.5238 252.287L6.78045 249.619L4.60015 247.544L1.65742 243.611L0.692383 240.384L6.86385 231.764L7.60252 228.343L5.99408 224.581L9.56829 223.794L13.631 218.629L13.2974 209.062L14.0241 205.904L16.0734 202.677L19.2425 200.488L32.5982 197.068L39.8776 192.906L42.3677 189.394L42.6536 186.042L41.7482 181.31V177.889L42.8204 174.628L46.2636 170.809L50.1952 164.082L55.6042 159.031L56.7956 156.625L55.7949 152.828L52.0658 148.552L46.2159 148.792L45.4534 148.381L45.2747 146.169L50.8981 135.748L48.8847 127.265L49.0395 123.274L52.0658 104.7L52.1253 98.0983L50.0761 93.7313L50.7314 91.2229L59.1427 84.0282L61.9663 80.5164L64.1585 75.7162L63.5866 71.4518L57.844 67.0507L56.1165 64.9755L54.6511 60.5857L56.4263 51.4641L56.5216 46.6639L58.2492 46.5271L63.4674 47.5304V46.1736L64.1704 45.7061L64.2538 44.8624L64.4802 42.9126L66.2434 41.3962L67.6017 41.6698L69.21 40.8375L68.8526 39.5148L69.7581 38.2606L69.4841 37.8957L68.4237 37.6791L68.9003 36.3907L69.8177 34.8742L70.7708 32.8447L71.5333 32.1605L74.2497 32.5596L75.8939 31.5676L77.0853 31.6703L77.812 32.514L79.0034 31.2484L79.2774 29.6065L80.8739 29.3443L82.6253 29.0136L82.9708 28.4891L82.5657 28.033L83.7571 26.699L86.271 26.1517L87.0096 24.7378L88.6418 23.8485L88.8325 22.9477L89.5235 22.104L90.0001 21.2602V20.2797L91.3106 19.7894L91.8229 18.6492L90.8579 18.2957L91.537 17.6002L93.0024 18.3185L92.6569 16.5284L93.9675 16.6652L94.0389 17.2011L95.0516 17.5318L96.3622 17.3722L98.5901 15.468L99.7815 15.0462L100.163 15.4794L102.546 15.3654L104.202 13.8489L105.393 14.4076L105.453 13.1762L106.739 12.7658L107.931 12.8684L106.692 14.1796L108.443 15.0804L109.539 13.5867L111.147 14.7269L110.909 13.2332L112.673 12.6517L112.303 15.0233L113.399 15.1602L113.935 14.02L115.305 13.7349L116.402 15.3198L117.593 12.4351L119.571 11.4773V10.9756L118.915 10.759L119.142 9.94946L120.56 10.1775L121.322 9.26534L120.56 9.0715L120.083 7.9313L122.085 6.10699L122.013 5.44567L123.788 4.68174V3.62135L124.98 2.41274L126.457 2.13909L126.922 0.930479L128.268 0.748047Z" fill="#0AA83F" stroke="#00344D" stroke-width="1.04942" stroke-miterlimit="10"/>
<path d="M96.6664 137.721V130.089H99.3347C99.8663 130.089 100.305 130.18 100.65 130.364C100.996 130.546 101.253 130.79 101.422 131.098C101.591 131.404 101.675 131.743 101.675 132.116C101.675 132.444 101.617 132.715 101.5 132.928C101.386 133.142 101.234 133.311 101.045 133.435C100.859 133.559 100.656 133.651 100.438 133.711V133.785C100.671 133.8 100.906 133.882 101.142 134.031C101.378 134.18 101.576 134.394 101.735 134.672C101.894 134.951 101.973 135.291 101.973 135.693C101.973 136.076 101.886 136.42 101.712 136.726C101.538 137.031 101.264 137.274 100.889 137.452C100.514 137.631 100.025 137.721 99.4241 137.721H96.6664ZM97.5906 136.901H99.4241C100.028 136.901 100.456 136.784 100.71 136.551C100.966 136.315 101.094 136.029 101.094 135.693C101.094 135.435 101.028 135.197 100.896 134.978C100.764 134.757 100.577 134.58 100.333 134.449C100.09 134.315 99.8017 134.247 99.4688 134.247H97.5906V136.901ZM97.5906 133.443H99.3049C99.5831 133.443 99.834 133.388 100.058 133.279C100.284 133.169 100.463 133.015 100.594 132.816C100.728 132.618 100.796 132.384 100.796 132.116C100.796 131.78 100.679 131.496 100.445 131.262C100.212 131.026 99.8415 130.908 99.3347 130.908H97.5906V133.443ZM109.931 133.905C109.931 134.71 109.786 135.405 109.495 135.992C109.205 136.578 108.806 137.03 108.299 137.348C107.792 137.666 107.213 137.825 106.563 137.825C105.912 137.825 105.333 137.666 104.826 137.348C104.319 137.03 103.92 136.578 103.63 135.992C103.339 135.405 103.194 134.71 103.194 133.905C103.194 133.1 103.339 132.404 103.63 131.818C103.92 131.231 104.319 130.779 104.826 130.461C105.333 130.143 105.912 129.984 106.563 129.984C107.213 129.984 107.792 130.143 108.299 130.461C108.806 130.779 109.205 131.231 109.495 131.818C109.786 132.404 109.931 133.1 109.931 133.905ZM109.037 133.905C109.037 133.244 108.926 132.686 108.705 132.231C108.487 131.777 108.19 131.433 107.815 131.199C107.442 130.966 107.025 130.849 106.563 130.849C106.1 130.849 105.682 130.966 105.307 131.199C104.934 131.433 104.637 131.777 104.416 132.231C104.197 132.686 104.088 133.244 104.088 133.905C104.088 134.565 104.197 135.123 104.416 135.578C104.637 136.033 104.934 136.377 105.307 136.61C105.682 136.844 106.1 136.96 106.563 136.96C107.025 136.96 107.442 136.844 107.815 136.61C108.19 136.377 108.487 136.033 108.705 135.578C108.926 135.123 109.037 134.565 109.037 133.905ZM111.485 137.721V130.089H114.064C114.661 130.089 115.15 130.19 115.533 130.394C115.915 130.595 116.198 130.872 116.382 131.225C116.566 131.578 116.658 131.979 116.658 132.429C116.658 132.879 116.566 133.277 116.382 133.625C116.198 133.973 115.916 134.246 115.536 134.445C115.156 134.641 114.67 134.739 114.079 134.739H111.992V133.905H114.049C114.457 133.905 114.785 133.845 115.033 133.726C115.284 133.606 115.465 133.438 115.577 133.219C115.692 132.998 115.749 132.734 115.749 132.429C115.749 132.123 115.692 131.856 115.577 131.628C115.463 131.399 115.28 131.223 115.029 131.098C114.779 130.972 114.447 130.908 114.034 130.908H112.41V137.721H111.485ZM115.078 134.292L116.956 137.721H115.883L114.034 134.292H115.078ZM124.25 130.089V137.721H123.356L119.197 131.728H119.122V137.721H118.198V130.089H119.092L123.266 136.096H123.341V130.089H124.25ZM132.539 133.905C132.539 134.71 132.394 135.405 132.103 135.992C131.812 136.578 131.414 137.03 130.907 137.348C130.4 137.666 129.821 137.825 129.17 137.825C128.519 137.825 127.94 137.666 127.434 137.348C126.927 137.03 126.528 136.578 126.237 135.992C125.947 135.405 125.801 134.71 125.801 133.905C125.801 133.1 125.947 132.404 126.237 131.818C126.528 131.231 126.927 130.779 127.434 130.461C127.94 130.143 128.519 129.984 129.17 129.984C129.821 129.984 130.4 130.143 130.907 130.461C131.414 130.779 131.812 131.231 132.103 131.818C132.394 132.404 132.539 133.1 132.539 133.905ZM131.645 133.905C131.645 133.244 131.534 132.686 131.313 132.231C131.094 131.777 130.798 131.433 130.422 131.199C130.05 130.966 129.632 130.849 129.17 130.849C128.708 130.849 128.289 130.966 127.914 131.199C127.542 131.433 127.245 131.777 127.024 132.231C126.805 132.686 126.696 133.244 126.696 133.905C126.696 134.565 126.805 135.123 127.024 135.578C127.245 136.033 127.542 136.377 127.914 136.61C128.289 136.844 128.708 136.96 129.17 136.96C129.632 136.96 130.05 136.844 130.422 136.61C130.798 136.377 131.094 136.033 131.313 135.578C131.534 135.123 131.645 134.565 131.645 133.905Z" fill="#00344D"/>
</svg>
