<svg width="120" height="157" viewBox="0 0 120 157" fill="none" xmlns="http://www.w3.org/2000/svg">
<path d="M32.5593 16.5275L36.1335 15.9688L38.9452 13.6884L40.5656 11.6931L42.8531 11.18L45.3074 11.9439L49.8824 12.1036L53.6114 11.1572L57.3525 8.96804L56.4351 3.83714L58.246 2.46889L60.7599 1.70494L63.512 1.03223L66.0259 1.11205L72.4952 3.03899L82.789 9.17327L83.4562 11.0432L82.6698 16.482L84.1114 17.4967L89.3298 17.9984L100.732 15.4444L104.413 15.6952L106.188 16.5162L112.777 23.0495L118.591 30.609L119.365 32.3763L116.78 41.8856L110.668 39.4114L109.739 41.5093V43.7897L109.048 44.6221L107.761 45.6939L104.425 51.2352L100.577 52.307L98.6346 53.6639L97.205 55.0093L96.0731 57.8598L94.8817 59L84.4569 67.8023L79.9177 70.9151L78.5833 71.2913L76.6294 73.9138L74.6159 74.9058L73.0671 76.5933L73.5437 77.5738L75.164 78.714L73.913 80.4015L74.3895 81.3479L73.8534 82.4881L72.1021 84.6203L71.423 83.9589L71.4825 85.6692L77.5587 92.1L77.928 94.1067L75.0687 98.6675L74.3062 101.404L72.9718 102.955L73.222 107.39L71.0656 114.094L71.2443 121.574L68.2181 126.363L65.9663 127.241L65.871 128.199L64.2745 129.339L62.821 133.102L61.3318 134.242L62.5232 135.382L61.4509 135.781L60.2595 137.195L60.3191 137.845L59.1277 138.278L59.2349 140.285L56.8521 141.14L55.6607 142.565V143.705L57.0904 145.005L57.4954 146.75L54.6123 148.414L53.3136 148.141L52.5034 147.32L51.312 148.255L50.5496 149.988L49.656 150.592L49.4654 152.268L50.2636 152.348L50.9784 150.353L51.2882 153.215L50.8593 153.853L50.347 153.089L49.6322 153.249L50.3232 154.891L48.5599 155.199L48.6314 156.065L46.5107 156.396L44.7593 155.712L45.3669 153.694L46.6417 153.557L45.1286 151.721L44.1755 153.112L42.7935 153.659L40.3273 153.135L39.5529 151.824L40.4702 151.025L40.7205 150.843L40.3511 149.805L38.7308 150.273L37.3845 149.555L34.4179 152.12L33.715 150.98L29.3425 147.776L24.8867 142.862L21.098 139.669L17.0353 134.071L15.0933 128.176L15.8201 121.221L15.3554 118.826L9.39841 115.771L3.71543 116.409L2.77421 114.197L1.78532 113.844L0.999023 111.803L2.36913 109.009L3.38183 108.895L7.45642 109.762L8.17127 108.382L7.26579 105.475L5.2285 103.194L4.35876 101.279L2.72654 95.9995L2.54784 91.6895L3.25076 87.448L2.01169 85.9885L2.46443 83.2634L5.25231 79.7174L4.82342 76.6845L6.56286 75.2479L6.96794 73.7085L9.35075 71.0975L9.44608 68.3382L8.08786 66.2858L8.31423 65.1456L11.0187 63.9143L14.1402 63.709L17.3451 68.8399L18.9416 66.4683L21.515 65.5903L24.1361 63.6406L24.4697 62.147L26.7095 61.8163L29.3068 63.2529L30.3076 62.2154L31.1177 59.5929L31.2369 56.6398L32.19 54.9637L40.4345 45.3974V43.8011L38.2185 40.8366V39.0123L40.1843 37.1538L42.7935 36.7319L43.7823 34.7936L43.4964 33.6534L41.8523 32.5132L41.3638 30.8029L40.7443 30.381L40.8634 28.169L39.3384 26.892L38.7427 24.9422L35.5259 22.81L33.1431 19.8227L32.5593 16.5275Z" fill="#0AA83F" stroke="#00344D" stroke-width="1.04942" stroke-miterlimit="10"/>
<path d="M23.2913 81.6542H22.3671C22.3124 81.3884 22.2168 81.1549 22.0802 80.9536C21.946 80.7524 21.782 80.5835 21.5882 80.4468C21.3969 80.3077 21.1845 80.2033 20.951 80.1338C20.7174 80.0642 20.474 80.0294 20.2206 80.0294C19.7584 80.0294 19.3398 80.1462 18.9647 80.3797C18.592 80.6133 18.2951 80.9574 18.074 81.412C17.8554 81.8667 17.7461 82.4244 17.7461 83.0853C17.7461 83.7461 17.8554 84.3039 18.074 84.7585C18.2951 85.2132 18.592 85.5573 18.9647 85.7908C19.3398 86.0244 19.7584 86.1411 20.2206 86.1411C20.474 86.1411 20.7174 86.1063 20.951 86.0368C21.1845 85.9672 21.3969 85.8641 21.5882 85.7275C21.782 85.5883 21.946 85.4182 22.0802 85.2169C22.2168 85.0132 22.3124 84.7797 22.3671 84.5163H23.2913C23.2217 84.9064 23.095 85.2554 22.9112 85.5635C22.7273 85.8716 22.4988 86.1337 22.2255 86.3498C21.9522 86.5635 21.6454 86.7262 21.305 86.838C20.9671 86.9498 20.6056 87.0057 20.2206 87.0057C19.5696 87.0057 18.9908 86.8467 18.4839 86.5287C17.9771 86.2107 17.5784 85.7585 17.2877 85.1722C16.997 84.5859 16.8517 83.8902 16.8517 83.0853C16.8517 82.2803 16.997 81.5847 17.2877 80.9984C17.5784 80.412 17.9771 79.9599 18.4839 79.6419C18.9908 79.3238 19.5696 79.1648 20.2206 79.1648C20.6056 79.1648 20.9671 79.2207 21.305 79.3325C21.6454 79.4443 21.9522 79.6083 22.2255 79.8245C22.4988 80.0381 22.7273 80.299 22.9112 80.6071C23.095 80.9126 23.2217 81.2617 23.2913 81.6542ZM24.7848 86.9014V79.2692H27.3636C27.9599 79.2692 28.4493 79.3711 28.8319 79.5748C29.2145 79.776 29.4977 80.053 29.6816 80.4058C29.8654 80.7586 29.9574 81.1598 29.9574 81.6095C29.9574 82.0592 29.8654 82.458 29.6816 82.8058C29.4977 83.1536 29.2157 83.4269 28.8356 83.6256C28.4555 83.8219 27.9698 83.92 27.3785 83.92H25.2916V83.0853H27.3487C27.7561 83.0853 28.0841 83.0257 28.3325 82.9064C28.5835 82.7871 28.7648 82.6182 28.8766 82.3996C28.9909 82.1785 29.0481 81.9151 29.0481 81.6095C29.0481 81.3039 28.9909 81.0369 28.8766 80.8083C28.7623 80.5797 28.5797 80.4033 28.3288 80.2791C28.0779 80.1524 27.7462 80.0891 27.3338 80.0891H25.709V86.9014H24.7848ZM28.3773 83.4729L30.2555 86.9014H29.1822L27.3338 83.4729H28.3773ZM37.937 83.0853C37.937 83.8902 37.7917 84.5859 37.501 85.1722C37.2103 85.7585 36.8116 86.2107 36.3048 86.5287C35.7979 86.8467 35.2191 87.0057 34.5681 87.0057C33.9172 87.0057 33.3384 86.8467 32.8315 86.5287C32.3247 86.2107 31.926 85.7585 31.6353 85.1722C31.3446 84.5859 31.1993 83.8902 31.1993 83.0853C31.1993 82.2803 31.3446 81.5847 31.6353 80.9984C31.926 80.412 32.3247 79.9599 32.8315 79.6419C33.3384 79.3238 33.9172 79.1648 34.5681 79.1648C35.2191 79.1648 35.7979 79.3238 36.3048 79.6419C36.8116 79.9599 37.2103 80.412 37.501 80.9984C37.7917 81.5847 37.937 82.2803 37.937 83.0853ZM37.0426 83.0853C37.0426 82.4244 36.9321 81.8667 36.711 81.412C36.4923 80.9574 36.1955 80.6133 35.8203 80.3797C35.4476 80.1462 35.0303 80.0294 34.5681 80.0294C34.106 80.0294 33.6874 80.1462 33.3123 80.3797C32.9396 80.6133 32.6427 80.9574 32.4216 81.412C32.203 81.8667 32.0937 82.4244 32.0937 83.0853C32.0937 83.7461 32.203 84.3039 32.4216 84.7585C32.6427 85.2132 32.9396 85.5573 33.3123 85.7908C33.6874 86.0244 34.106 86.1411 34.5681 86.1411C35.0303 86.1411 35.4476 86.0244 35.8203 85.7908C36.1955 85.5573 36.4923 85.2132 36.711 84.7585C36.9321 84.3039 37.0426 83.7461 37.0426 83.0853ZM43.6649 81.1772C43.6202 80.7996 43.4388 80.5064 43.1208 80.2977C42.8028 80.0891 42.4127 79.9847 41.9506 79.9847C41.6128 79.9847 41.3171 80.0394 41.0637 80.1487C40.8128 80.258 40.6165 80.4083 40.4749 80.5996C40.3358 80.7909 40.2662 81.0083 40.2662 81.2518C40.2662 81.4555 40.3146 81.6306 40.4115 81.7772C40.5109 81.9213 40.6376 82.0418 40.7917 82.1387C40.9457 82.2331 41.1072 82.3114 41.2761 82.3735C41.4451 82.4331 41.6003 82.4816 41.7419 82.5188L42.5171 82.7275C42.7158 82.7797 42.937 82.8517 43.1804 82.9437C43.4264 83.0356 43.6612 83.1611 43.8848 83.3201C44.1109 83.4766 44.2972 83.6778 44.4438 83.9238C44.5903 84.1697 44.6636 84.4716 44.6636 84.8294C44.6636 85.2418 44.5556 85.6144 44.3394 85.9473C44.1258 86.2803 43.8127 86.5449 43.4003 86.7411C42.9904 86.9374 42.4922 87.0355 41.9059 87.0355C41.3593 87.0355 40.8861 86.9473 40.4861 86.7709C40.0886 86.5945 39.7755 86.3486 39.5469 86.0331C39.3209 85.7175 39.1929 85.3511 39.1631 84.9337H40.1171C40.142 85.2219 40.2389 85.4604 40.4078 85.6492C40.5792 85.8355 40.7954 85.9747 41.0562 86.0666C41.3196 86.156 41.6028 86.2008 41.9059 86.2008C42.2587 86.2008 42.5755 86.1436 42.8562 86.0293C43.137 85.9126 43.3593 85.7511 43.5233 85.5449C43.6873 85.3362 43.7692 85.0927 43.7692 84.8144C43.7692 84.561 43.6984 84.3548 43.5568 84.1958C43.4152 84.0368 43.2289 83.9076 42.9978 83.8082C42.7668 83.7089 42.5171 83.6219 42.2488 83.5474L41.3097 83.2791C40.7134 83.1076 40.2413 82.8629 39.8935 82.5449C39.5457 82.2269 39.3718 81.8108 39.3718 81.2965C39.3718 80.8692 39.4873 80.4965 39.7184 80.1785C39.9519 79.858 40.265 79.6096 40.6575 79.4332C41.0525 79.2543 41.4935 79.1648 41.9805 79.1648C42.4724 79.1648 42.9096 79.253 43.2922 79.4294C43.6748 79.6033 43.9779 79.8419 44.2015 80.145C44.4276 80.4481 44.5469 80.7921 44.5593 81.1772H43.6649ZM50.357 81.1772C50.3123 80.7996 50.1309 80.5064 49.8129 80.2977C49.4949 80.0891 49.1049 79.9847 48.6428 79.9847C48.3049 79.9847 48.0092 80.0394 47.7558 80.1487C47.5049 80.258 47.3086 80.4083 47.167 80.5996C47.0279 80.7909 46.9583 81.0083 46.9583 81.2518C46.9583 81.4555 47.0068 81.6306 47.1037 81.7772C47.203 81.9213 47.3297 82.0418 47.4838 82.1387C47.6378 82.2331 47.7993 82.3114 47.9682 82.3735C48.1372 82.4331 48.2925 82.4816 48.4341 82.5188L49.2092 82.7275C49.408 82.7797 49.6291 82.8517 49.8726 82.9437C50.1185 83.0356 50.3533 83.1611 50.5769 83.3201C50.803 83.4766 50.9893 83.6778 51.1359 83.9238C51.2825 84.1697 51.3558 84.4716 51.3558 84.8294C51.3558 85.2418 51.2477 85.6144 51.0315 85.9473C50.8179 86.2803 50.5048 86.5449 50.0924 86.7411C49.6825 86.9374 49.1844 87.0355 48.598 87.0355C48.0515 87.0355 47.5782 86.9473 47.1782 86.7709C46.7807 86.5945 46.4676 86.3486 46.2391 86.0331C46.013 85.7175 45.885 85.3511 45.8552 84.9337H46.8093C46.8341 85.2219 46.931 85.4604 47.0999 85.6492C47.2714 85.8355 47.4875 85.9747 47.7484 86.0666C48.0117 86.156 48.2949 86.2008 48.598 86.2008C48.9508 86.2008 49.2676 86.1436 49.5483 86.0293C49.8291 85.9126 50.0514 85.7511 50.2154 85.5449C50.3794 85.3362 50.4614 85.0927 50.4614 84.8144C50.4614 84.561 50.3906 84.3548 50.249 84.1958C50.1073 84.0368 49.921 83.9076 49.69 83.8082C49.4589 83.7089 49.2092 83.6219 48.9409 83.5474L48.0018 83.2791C47.4055 83.1076 46.9335 82.8629 46.5857 82.5449C46.2378 82.2269 46.0639 81.8108 46.0639 81.2965C46.0639 80.8692 46.1795 80.4965 46.4105 80.1785C46.644 79.858 46.9571 79.6096 47.3496 79.4332C47.7446 79.2543 48.1856 79.1648 48.6726 79.1648C49.1645 79.1648 49.6018 79.253 49.9844 79.4294C50.367 79.6033 50.6701 79.8419 50.8937 80.145C51.1197 80.4481 51.239 80.7921 51.2514 81.1772H50.357ZM56.0355 82.6753V83.4952H52.6964V82.6753H56.0355ZM57.7022 86.9014V79.2692H60.2811C60.8774 79.2692 61.3668 79.3711 61.7494 79.5748C62.132 79.776 62.4152 80.053 62.5991 80.4058C62.7829 80.7586 62.8748 81.1598 62.8748 81.6095C62.8748 82.0592 62.7829 82.458 62.5991 82.8058C62.4152 83.1536 62.1332 83.4269 61.7531 83.6256C61.373 83.8219 60.8873 83.92 60.296 83.92H58.2091V83.0853H60.2662C60.6736 83.0853 61.0016 83.0257 61.25 82.9064C61.5009 82.7871 61.6823 82.6182 61.7941 82.3996C61.9084 82.1785 61.9655 81.9151 61.9655 81.6095C61.9655 81.3039 61.9084 81.0369 61.7941 80.8083C61.6798 80.5797 61.4972 80.4033 61.2463 80.2791C60.9954 80.1524 60.6637 80.0891 60.2513 80.0891H58.6265V86.9014H57.7022ZM61.2947 83.4729L63.173 86.9014H62.0997L60.2513 83.4729H61.2947ZM65.3391 79.2692V86.9014H64.4149V79.2692H65.3391ZM67.5052 79.2692L69.771 85.6939H69.8604L72.1262 79.2692H73.0952L70.2927 86.9014H69.3387L66.5363 79.2692H67.5052ZM74.284 86.9014V79.2692H78.8901V80.0891H75.2082V82.6679H78.6516V83.4878H75.2082V86.0815H78.9497V86.9014H74.284ZM80.5559 86.9014V79.2692H83.1348C83.731 79.2692 84.2205 79.3711 84.6031 79.5748C84.9857 79.776 85.2689 80.053 85.4527 80.4058C85.6366 80.7586 85.7285 81.1598 85.7285 81.6095C85.7285 82.0592 85.6366 82.458 85.4527 82.8058C85.2689 83.1536 84.9869 83.4269 84.6068 83.6256C84.2267 83.8219 83.741 83.92 83.1497 83.92H81.0627V83.0853H83.1198C83.5273 83.0853 83.8552 83.0257 84.1037 82.9064C84.3546 82.7871 84.536 82.6182 84.6478 82.3996C84.7621 82.1785 84.8192 81.9151 84.8192 81.6095C84.8192 81.3039 84.7621 81.0369 84.6478 80.8083C84.5335 80.5797 84.3509 80.4033 84.1 80.2791C83.849 80.1524 83.5174 80.0891 83.1049 80.0891H81.4801V86.9014H80.5559ZM84.1484 83.4729L86.0266 86.9014H84.9534L83.1049 83.4729H84.1484ZM91.4424 81.1772C91.3977 80.7996 91.2163 80.5064 90.8983 80.2977C90.5803 80.0891 90.1902 79.9847 89.7281 79.9847C89.3902 79.9847 89.0946 80.0394 88.8412 80.1487C88.5903 80.258 88.394 80.4083 88.2524 80.5996C88.1132 80.7909 88.0437 81.0083 88.0437 81.2518C88.0437 81.4555 88.0921 81.6306 88.189 81.7772C88.2884 81.9213 88.4151 82.0418 88.5691 82.1387C88.7232 82.2331 88.8847 82.3114 89.0536 82.3735C89.2225 82.4331 89.3778 82.4816 89.5194 82.5188L90.2946 82.7275C90.4933 82.7797 90.7144 82.8517 90.9579 82.9437C91.2039 83.0356 91.4387 83.1611 91.6623 83.3201C91.8883 83.4766 92.0747 83.6778 92.2213 83.9238C92.3678 84.1697 92.4411 84.4716 92.4411 84.8294C92.4411 85.2418 92.3331 85.6144 92.1169 85.9473C91.9032 86.2803 91.5902 86.5449 91.1778 86.7411C90.7679 86.9374 90.2697 87.0355 89.6834 87.0355C89.1368 87.0355 88.6635 86.9473 88.2636 86.7709C87.866 86.5945 87.553 86.3486 87.3244 86.0331C87.0984 85.7175 86.9704 85.3511 86.9406 84.9337H87.8946C87.9195 85.2219 88.0164 85.4604 88.1853 85.6492C88.3567 85.8355 88.5729 85.9747 88.8337 86.0666C89.0971 86.156 89.3803 86.2008 89.6834 86.2008C90.0362 86.2008 90.353 86.1436 90.6337 86.0293C90.9144 85.9126 91.1368 85.7511 91.3008 85.5449C91.4647 85.3362 91.5467 85.0927 91.5467 84.8144C91.5467 84.561 91.4759 84.3548 91.3343 84.1958C91.1927 84.0368 91.0064 83.9076 90.7753 83.8082C90.5443 83.7089 90.2946 83.6219 90.0263 83.5474L89.0871 83.2791C88.4909 83.1076 88.0188 82.8629 87.671 82.5449C87.3232 82.2269 87.1493 81.8108 87.1493 81.2965C87.1493 80.8692 87.2648 80.4965 87.4959 80.1785C87.7294 79.858 88.0424 79.6096 88.435 79.4332C88.83 79.2543 89.271 79.1648 89.7579 79.1648C90.2499 79.1648 90.6871 79.253 91.0697 79.4294C91.4523 79.6033 91.7554 79.8419 91.979 80.145C92.2051 80.4481 92.3244 80.7921 92.3368 81.1772H91.4424Z" fill="#00344D"/>
</svg>
