<svg width="132" height="108" viewBox="0 0 132 108" fill="none" xmlns="http://www.w3.org/2000/svg">
<path d="M129.149 23.3995L127.386 15.0874L127.481 13.5253L126.135 12.2369L123.597 1.3252L121.357 3.60559L116.473 3.17235L111.981 4.1187L102.224 9.95652L93.4667 13.4911L88.7011 18.6562L87.9386 18.7132L84.8647 14.2209L83.6733 13.742L81.6837 13.3885L79.563 15.19L78.5026 17.4704L78.3239 20.1727L78.8005 21.0278L80.54 21.9514L81.1833 27.4472L83.5661 31.5405L85.9489 34.2998L88.153 36.0443L90.8099 36.9678L91.1554 38.9632L90.3214 42.6574L88.4747 44.8353L86.5327 46.728L82.8632 49.0084L80.1349 52.5088L76.8228 54.7892L74.6663 55.4733L68.4353 56.6135L65.8976 55.975L66.7316 53.9226L64.8253 52.0869L67.2081 47.5261L66.6482 46.5797L61.9898 43.9003L59.607 40.6735L54.0431 37.6862L50.2663 36.2609L48.3124 34.733L42.2125 36.8424L40.0084 39.5561L37.8996 39.1L35.1951 36.8196L33.5509 36.489L29.7742 37.2529L26.2 36.432L25.0086 36.7854L24.258 37.1275L24.1865 38.2677L25.2468 40.0578L24.6273 41.2664L19.7426 44.9378L17.7648 45.0177V42.2014L16.9785 39.2938L17.8601 36.0443L17.6814 34.4138L15.7037 32.5097L9.23436 29.3171L1.01367 48.4041L3.96835 53.5122L5.6244 54.5155L6.31542 52.6912L7.87616 51.2659L17.1215 46.4543L18.6226 46.2034L20.8267 44.744L22.173 44.1283L22.6019 44.7098V44.9037L20.2191 46.0439L19.0277 47.8682L18.9443 48.1646L17.9555 47.5603L15.2748 48.7005L11.4861 51.5624L11.081 52.4175L8.69823 51.9044L7.44725 52.8394L6.50605 56.4197L6.81581 58.1755L9.94921 63.3064L13.7379 66.8867L15.0723 66.2824L18.6465 64.7545L22.2207 65.222L23.1023 61.619L24.4724 59.1676V58.7343L24.949 58.3922L25.4017 58.529L25.1277 58.6886L24.8418 60.855L23.4478 63.4091L24.6392 65.8377L26.9148 66.556L28.8568 66.2482L30.7392 62.6223L32.6455 62.7363L32.8718 62.4513L36.4461 64.2072L37.7804 64.9711L38.0068 65.5184L36.589 65.1308L36.9107 66.0088L37.0298 67.5138L35.4453 67.1147L36.6367 66.3508L36.2435 64.8229L34.9091 64.002L31.18 63.6713L30.4652 63.8309L30.5724 65.6895L29.9171 66.9779L27.1293 69.2583L28.3207 67.4568L26.1881 67.6278L23.6861 67.0007L18.3963 66.2368L16.0135 66.4534L15.8705 67.4112L13.9404 68.6426L12.4392 70.5467L15.7394 75.1075L19.3137 78.0834L26.4621 81.0822L32.5263 81.4128V80.6717L31.1086 79.0868L29.9767 75.7802L29.667 75.2672L29.7504 74.4234L30.3103 74.2866L30.0839 75.2215L31.2754 77.73L32.2642 77.0459H32.6931L32.6097 77.2967L31.4779 78.5281L31.7877 79.0982L34.9449 80.3753L35.624 80.1358L37.5898 74.6628L38.5906 72.9981L39.782 72.2912L39.0195 71.915L42.832 72.0518L43.4039 72.2228L44.6548 71.6984L45.2625 70.2503L46.1441 69.817L47.4785 70.0108L48.6103 71.0484L49.3371 70.2959L49.4443 70.5582L49.3013 71.4133H48.241L46.5968 70.3415L45.4054 72.257L43.523 73.1578L41.3666 73.021L41.6287 74.0015L40.4373 72.8613L38.8646 73.2718L38.2093 76.6924L38.531 78.1974L39.222 79.4289L39.7582 80.2499L43.7613 81.4926L43.4039 82.4048L41.5572 81.1278L40.7828 81.5383V82.3364L40.6994 82.5872L40.1156 82.7355L40.4968 81.0593L40.1275 80.9225L39.6152 80.5349L39.0791 80.0104L38.5429 80.5577L37.6613 81.1278L37.2324 81.7321L36.2912 81.8689L34.9568 82.5188L36.041 83.0433L38.4238 82.9293L34.8496 84.0695L34.373 84.7878L33.1816 82.9521H32.4668H32.1332L29.1189 83.1231L27.725 83.8414L27.6416 83.3968L26.8195 83.317L26.331 82.9635L25.5328 83.2143L24.5439 82.7241L24.6035 85.5062L26.8791 94.2059L26.5931 96.0986L29.1785 98.7553L31.6209 97.7519L34.7781 97.5581L33.7177 96.0188L33.6105 94.7417L33.7892 94.4681L34.3849 91.7544H34.7304L34.5517 92.4386L34.7304 92.906L34.1109 95.9732L35.1593 96.6003L35.0402 98.3448L34.0871 98.6983L36.589 101.093L40.0441 102.985L43.6183 103.795L46.8232 105.619L48.0146 106.873L50.7787 106.417L51.8986 106.839L60.8103 102.164L63.9318 102.643L67.8634 100.773L69.6267 97.273L70.5202 96.7029L73.0341 98.1623L74.2255 100.055L76.4773 100.819L79.2294 100.112L80.6948 97.8317L84.269 98.1053L86.1991 97.4668L89.5708 95.6881L89.3444 93.0543L89.7733 91.9141L91.5247 92.0053L92.4659 92.6894L94.9798 92.0965L97.3626 87.4217L100.627 86.863L104.785 87.3647L110.837 84.8676L112.267 83.8984L111.35 81.0822L110.671 79.942L110.921 79.4403L115.115 77.3765L115.341 71.3335L116.175 69.6459L118.617 68.0269L119.678 66.0315L120.655 62.4057L119.356 58.3694L119.63 57.9703L120.821 56.6363L123.109 52.1895L123.514 49.1908L125.611 43.8433L128.589 38.6553L129.042 31.8141L130.555 27.6524L129.149 23.3881V23.3995Z" fill="#0AA83F" stroke="#00344D" stroke-width="1.04942" stroke-miterlimit="10"/>
<path d="M63.255 77.6504H60.8998V70.0182H63.3594C64.0997 70.0182 64.7333 70.171 65.26 70.4766C65.7867 70.7797 66.1904 71.2157 66.4711 71.7846C66.7519 72.3511 66.8922 73.0293 66.8922 73.8194C66.8922 74.6144 66.7506 75.2989 66.4674 75.8728C66.1842 76.4442 65.7718 76.8839 65.2302 77.192C64.6886 77.4976 64.0302 77.6504 63.255 77.6504ZM61.824 76.8305H63.1954C63.8265 76.8305 64.3494 76.7088 64.7643 76.4653C65.1792 76.2218 65.4885 75.8753 65.6923 75.4256C65.896 74.9759 65.9978 74.4405 65.9978 73.8194C65.9978 73.2033 65.8972 72.6728 65.696 72.2281C65.4948 71.7809 65.1941 71.4381 64.7941 71.1996C64.3941 70.9586 63.896 70.8381 63.2998 70.8381H61.824V76.8305ZM68.4425 77.6504V70.0182H73.0487V70.8381H69.3667V73.4169H72.8102V74.2368H69.3667V76.8305H73.1083V77.6504H68.4425ZM74.7145 77.6504V70.0182H75.6387V76.8305H79.1865V77.6504H74.7145ZM79.1855 70.8381V70.0182H84.9097V70.8381H82.5097V77.6504H81.5855V70.8381H79.1855ZM85.7575 77.6504H84.7885L87.591 70.0182H88.545L91.3474 77.6504H90.3785L88.0978 71.2256H88.0382L85.7575 77.6504ZM86.1152 74.6691H90.0208V75.4889H86.1152V74.6691Z" fill="#00344D"/>
</svg>
