<svg width="70" height="81" viewBox="0 0 70 81" fill="none" xmlns="http://www.w3.org/2000/svg">
<path d="M23.3191 13.7313L23.1166 14.7689L23.891 16.5248L28.6566 20.7207L30.7773 21.5645L32.4572 20.8918L33.6486 18.5544L35.1378 9.17055L39.2482 8.71444L42.7628 8.99949L45.0503 7.93912L47.1591 4.65534L51.2218 4.23347L52.4132 1.59961L54.5101 3.08185L55.5109 7.93912L57.5363 10.5274L58.12 13.8225L60.5029 16.8099L63.7196 18.942L64.3153 20.8918L65.8404 22.1688L65.7212 24.3808L66.3407 24.8027L66.8292 26.513L68.4734 27.6532L68.7593 28.7934L67.7704 30.7317L65.1613 31.1536L63.1954 33.0121V34.8364L65.4114 37.8009V39.3972L57.1669 48.9635L56.2138 50.6396L56.0946 53.5927L55.2845 56.2152L54.2837 57.2527L51.6865 55.8161L49.4466 56.1468L49.113 57.6404L46.4919 59.5901L43.9185 60.4681L42.322 62.8853L39.1171 57.7544L35.9956 57.9597L33.2912 59.1911L33.0648 60.3313L34.423 62.3836L34.3277 65.1429L31.9449 67.754L31.5398 69.2933L29.8004 70.7299L30.2293 73.7628L27.4414 77.3089L27.0124 79.9883L25.416 79.7489L21.5916 77.0922L20.7576 75.952L20.4955 73.455L19.0181 71.3342L2.23124 70.3422L1.11131 69.202L1.05176 68.3697L1.70702 65.1087L1.62361 60.1375L5.94841 58.9973L8.33122 60.9356L9.24863 61.0382L11.7625 63.9001L12.6322 63.98L13.4066 62.3381L12.4535 59.0086L12.2748 55.9986L15.4558 52.8858L16.4089 50.9132L15.2175 43.3423L14.4789 40.4348L13.1922 39.2148V37.8124L16.4566 30.8457V24.1186L15.6822 22.8073L15.2295 19.0561L13.4662 13.4691L21.1508 14.0962L23.3191 13.7313Z" fill="#0AA83F" stroke="#00344D" stroke-width="1.04942" stroke-miterlimit="10"/>
<path d="M23.1642 39.6895V33.5837H26.8491V34.2396H23.9035V36.3027H26.6583V36.9586H23.9035V39.0336H26.8968V39.6895H23.1642ZM28.1817 39.6895V33.5837H30.3164C30.7417 33.5837 31.0925 33.6573 31.3688 33.8043C31.645 33.9494 31.8507 34.1452 31.9859 34.3917C32.121 34.6361 32.1886 34.9074 32.1886 35.2056C32.1886 35.4679 32.1419 35.6845 32.0485 35.8555C31.9571 36.0264 31.8358 36.1616 31.6848 36.2609C31.5357 36.3603 31.3737 36.4339 31.1988 36.4816V36.5412C31.3857 36.5531 31.5735 36.6187 31.7623 36.7379C31.9511 36.8572 32.1091 37.0281 32.2363 37.2507C32.3635 37.4733 32.4271 37.7456 32.4271 38.0676C32.4271 38.3737 32.3576 38.649 32.2184 38.8934C32.0793 39.1379 31.8597 39.3317 31.5596 39.4748C31.2594 39.6179 30.8689 39.6895 30.3879 39.6895H28.1817ZM28.9211 39.0336H30.3879C30.8709 39.0336 31.2137 38.9401 31.4165 38.7533C31.6212 38.5645 31.7235 38.3359 31.7235 38.0676C31.7235 37.8609 31.6709 37.6701 31.5655 37.4952C31.4602 37.3183 31.3101 37.1772 31.1153 37.0719C30.9206 36.9645 30.69 36.9109 30.4237 36.9109H28.9211V39.0336ZM28.9211 36.2669H30.2925C30.5151 36.2669 30.7159 36.2232 30.8947 36.1357C31.0756 36.0483 31.2187 35.925 31.324 35.766C31.4314 35.607 31.485 35.4202 31.485 35.2056C31.485 34.9372 31.3916 34.7097 31.2048 34.5228C31.018 34.334 30.7218 34.2396 30.3164 34.2396H28.9211V36.2669ZM38.7937 36.6366C38.7937 37.2805 38.6775 37.8371 38.4449 38.3061C38.2124 38.7752 37.8934 39.1369 37.4879 39.3913C37.0825 39.6457 36.6194 39.7729 36.0986 39.7729C35.5779 39.7729 35.1148 39.6457 34.7093 39.3913C34.3039 39.1369 33.9849 38.7752 33.7523 38.3061C33.5198 37.8371 33.4035 37.2805 33.4035 36.6366C33.4035 35.9926 33.5198 35.4361 33.7523 34.967C33.9849 34.498 34.3039 34.1363 34.7093 33.8818C35.1148 33.6274 35.5779 33.5002 36.0986 33.5002C36.6194 33.5002 37.0825 33.6274 37.4879 33.8818C37.8934 34.1363 38.2124 34.498 38.4449 34.967C38.6775 35.4361 38.7937 35.9926 38.7937 36.6366ZM38.0782 36.6366C38.0782 36.1079 37.9898 35.6617 37.8129 35.298C37.638 34.9343 37.4005 34.659 37.1003 34.4721C36.8022 34.2853 36.4683 34.1919 36.0986 34.1919C35.7289 34.1919 35.394 34.2853 35.0939 34.4721C34.7958 34.659 34.5583 34.9343 34.3814 35.298C34.2065 35.6617 34.119 36.1079 34.119 36.6366C34.119 37.1653 34.2065 37.6115 34.3814 37.9752C34.5583 38.3389 34.7958 38.6142 35.0939 38.801C35.394 38.9878 35.7289 39.0813 36.0986 39.0813C36.4683 39.0813 36.8022 38.9878 37.1003 38.801C37.4005 38.6142 37.638 38.3389 37.8129 37.9752C37.9898 37.6115 38.0782 37.1653 38.0782 36.6366ZM44.8786 33.5837V39.6895H44.1631L40.8359 34.8955H40.7763V39.6895H40.0369V33.5837H40.7525L44.0915 38.3896H44.1512V33.5837H44.8786ZM45.8334 33.5837H46.6801L48.3735 36.4339H48.445L50.1384 33.5837H50.9851L48.7789 37.1732V39.6895H48.0395V37.1732L45.8334 33.5837ZM52.6807 33.5837V39.6895H51.9413V33.5837H52.6807Z" fill="#00344D"/>
</svg>
