<svg width="131" height="131" viewBox="0 0 131 131" fill="none" xmlns="http://www.w3.org/2000/svg">
<path d="M80.6077 1.08691L81.5251 1.81662L83.6101 1.39476L84.4441 1.80525L84.7776 2.58057L84.3249 3.59537L84.873 4.33649L87.4702 4.05144L87.7919 4.96359L86.6005 7.07296L86.3265 9.27354L86.6601 10.4708L87.9468 11.3601L90.4845 11.9644L97.5614 8.62362L99.42 11.018L100.194 10.9382L101.696 12.5459L102.351 12.4775L104.734 15.0202L107.426 14.8035L108.308 14.222L111.358 14.393L112.621 16.6734L112.704 18.0645L113.717 18.76L114.289 20.7439L115.17 21.3825L114.884 21.964L115.671 23.8225L120.139 22.8647L120.651 23.298L122.39 22.1578L124.618 21.6903L126.703 23.298L127.358 25.7152L129.086 26.9466L130.027 29.227L130.206 33.1151L129.837 35.3043L127.895 39.8309L127.966 44.5741L125.69 50.0699L123.129 54.1746L124.654 56.626L123.546 62.92L124.606 65.8844L126.286 68.1648L127.478 75.006L127.561 75.3367L125.321 77.6171L120.448 77.1838L116.004 78.1074L106.247 83.9338L97.49 87.4685L92.7243 92.6336H91.9499L88.8761 88.1412L87.6847 87.6737L85.7069 87.3088L83.5743 89.1217L82.514 91.4021L82.3353 94.1044L82.8118 94.9595L84.5513 95.8831L85.1946 101.379L87.5775 105.461L89.9603 108.22L92.2001 109.885L94.8569 110.808L95.1905 112.792L94.3684 116.487L92.5218 118.664L90.5917 120.557L86.9222 122.837L84.1819 126.338L80.8818 128.618L78.7253 129.302L72.4824 130.443L69.9447 129.793L70.7786 127.74L68.8724 125.905L71.2552 121.344L70.6953 120.397L66.0488 117.718L63.666 114.491L58.0902 111.504L54.3253 110.079L52.3714 108.551L46.2715 110.66L44.0793 113.465L41.9705 113.009L39.266 110.728L37.6218 110.398L33.8451 111.162L30.2709 110.341L29.0795 110.694L28.317 111.036L28.2455 112.177L29.3058 113.967L28.6863 115.175L23.8135 118.858L21.8357 118.938L21.7761 116.122L20.9898 113.214L21.8357 109.873L21.657 108.243L19.6793 106.339L13.2576 103.203L13.7223 101.881L12.2568 99.3037L10.6723 98.1635L8.81368 98.0609L6.84785 94.7087L4.53654 93.158L3.70254 93.0896L3.17834 92.052L3.47619 91.3793L3.14258 91.881L4.09571 91.0829L5.28711 86.9439L5.97813 86.2484L9.55234 85.2565L10.5531 80.9921L12.6262 79.0424L13.6269 76.762L14.0439 74.8008L13.3648 73.1475L11.6969 70.5479L10.2315 69.8181V66.58L11.1965 65.4398L11.0773 62.9085L11.6611 61.7683L13.7461 59.9212L14.2822 58.781L16.3433 57.8688L17.2846 55.2806L18.476 54.4939L18.5832 52.2135L19.1193 51.3241L21.7404 50.1839L24.2781 50.64L26.9945 50.2067L28.9961 50.6172L36.907 50.7426L40.8267 50.3093L42.7806 50.697L44.8537 53.0686L42.4709 55.6455L44.9728 61.871H45.8545L50.3461 58.2679L51.9425 58.4047L53.3603 60.0922L54.3253 60.4913L57.5183 59.3511L59.3173 55.4858L60.4492 49.7848L60.747 49.4998L62.1648 50.0813V48.2228L63.2132 47.6299L63.0345 46.7063L61.6287 45.2469L62.3554 39.9563L63.6779 38.2118L65.4888 37.3795L65.9296 36.4103L65.5484 35.4525L69.3966 27.5966L69.2179 26.0117L69.7779 24.8715L71.8986 22.7051L74.4601 21.5649L76.1638 17.5286L75.6515 17.2093L74.7341 14.3816L75.7706 11.0865L73.3878 10.1515L72.9113 9.19372L73.1257 7.60886L74.8056 5.64771L76.6642 5.80732L77.7245 5.12323L80.6077 1.08691Z" fill="#0AA83F" stroke="#00344D" stroke-width="1.04942" stroke-miterlimit="10"/>
<path d="M70.2611 70.7422V63.11H74.8673V63.9299H71.1853V66.5087H74.6288V67.3286H71.1853V69.9223H74.9269V70.7422H70.2611ZM78.8883 70.7422H76.5331V63.11H78.9927C79.733 63.11 80.3666 63.2628 80.8932 63.5684C81.4199 63.8715 81.8237 64.3075 82.1044 64.8764C82.3852 65.4429 82.5255 66.1211 82.5255 66.9112C82.5255 67.7062 82.3839 68.3907 82.1007 68.9646C81.8175 69.536 81.405 69.9757 80.8634 70.2838C80.3218 70.5894 79.6635 70.7422 78.8883 70.7422ZM77.4573 69.9223H78.8287C79.4597 69.9223 79.9827 69.8006 80.3976 69.5571C80.8125 69.3136 81.1218 68.9671 81.3255 68.5174C81.5293 68.0677 81.6311 67.5323 81.6311 66.9112C81.6311 66.2951 81.5305 65.7646 81.3293 65.3199C81.128 64.8727 80.8274 64.5299 80.4274 64.2914C80.0274 64.0504 79.5293 63.9299 78.933 63.9299H77.4573V69.9223ZM90.5155 66.9261C90.5155 67.7311 90.3701 68.4267 90.0794 69.013C89.7888 69.5993 89.39 70.0515 88.8832 70.3695C88.3764 70.6875 87.7975 70.8465 87.1466 70.8465C86.4956 70.8465 85.9168 70.6875 85.4099 70.3695C84.9031 70.0515 84.5044 69.5993 84.2137 69.013C83.923 68.4267 83.7777 67.7311 83.7777 66.9261C83.7777 66.1211 83.923 65.4255 84.2137 64.8392C84.5044 64.2529 84.9031 63.8007 85.4099 63.4827C85.9168 63.1647 86.4956 63.0057 87.1466 63.0057C87.7975 63.0057 88.3764 63.1647 88.8832 63.4827C89.39 63.8007 89.7888 64.2529 90.0794 64.8392C90.3701 65.4255 90.5155 66.1211 90.5155 66.9261ZM89.6211 66.9261C89.6211 66.2652 89.5105 65.7075 89.2894 65.2528C89.0708 64.7982 88.7739 64.4541 88.3987 64.2206C88.0261 63.987 87.6087 63.8702 87.1466 63.8702C86.6845 63.8702 86.2658 63.987 85.8907 64.2206C85.518 64.4541 85.2211 64.7982 85 65.2528C84.7814 65.7075 84.6721 66.2652 84.6721 66.9261C84.6721 67.587 84.7814 68.1447 85 68.5994C85.2211 69.054 85.518 69.3981 85.8907 69.6316C86.2658 69.8652 86.6845 69.982 87.1466 69.982C87.6087 69.982 88.0261 69.8652 88.3987 69.6316C88.7739 69.3981 89.0708 69.054 89.2894 68.5994C89.5105 68.1447 89.6211 67.587 89.6211 66.9261Z" fill="#00344D"/>
</svg>
