<svg width="69" height="58" viewBox="0 0 69 58" fill="none" xmlns="http://www.w3.org/2000/svg">
<path d="M12.4924 3.72704L12.9808 3.53322L13.7076 5.43734L14.899 5.99602L20.2365 4.57077L21.3683 4.99268L23.1197 7.34149L24.3111 7.90017L27.0871 7.63791L29.8273 8.34483L32.1505 7.68353L33.6875 8.31063L34.8789 5.84783L34.5333 5.1295L35.5103 2.59825L40.407 1.07039L47.2695 0.967773L45.9708 1.44664V6.32669L46.6261 6.83979L49.5808 5.2207L53.9533 4.49099L56.7054 4.79883L57.3726 5.59698L57.039 7.15905L55.4425 7.88876L52.7142 11.3094L52.6189 13.0881L54.1915 17.3638L55.7642 18.504H57.2892L59.4933 20.431L67.6187 23.156L65.8077 25.8925L64.8308 26.2346L63.0437 24.8093L60.8277 25.254L59.815 27.6028L57.2177 29.2561L54.3583 32.0838L53.012 34.5238L50.9747 43.7595L48.9494 48.229L45.3156 53.2801L38.7152 57.248L36.0107 56.5753L34.7121 53.5196L34.9027 52.539L33.7113 48.9017L32.0076 46.3819L30.1609 45.789L21.8211 46.1425L12.5519 45.6408L7.13104 47.2941L6.14217 45.3557L5.14139 41.0344L1.7459 34.0678L0.923828 28.6176L2.3416 24.0568L1.37655 20.8528L1.51953 19.2566L3.78319 14.4107L5.71326 12.7004L8.31053 11.6286L10.6933 9.7587L12.4924 3.72704Z" fill="#0AA83F" stroke="#00344D" stroke-width="1.04942" stroke-miterlimit="10"/>
<path d="M16.7758 30.8418V23.2096H21.3819V24.0295H17.7V26.6083H21.1434V27.4282H17.7V30.0219H21.4415V30.8418H16.7758ZM23.0477 30.8418V23.2096H23.9719V26.9959H24.0614L27.4899 23.2096H28.6973L25.4924 26.653L28.6973 30.8418H27.5793L24.926 27.294L23.9719 28.3673V30.8418H23.0477ZM30.8178 23.2096V30.8418H29.8936V23.2096H30.8178ZM32.2535 24.0295V23.2096H37.9776V24.0295H35.5776V30.8418H34.6534V24.0295H32.2535ZM40.3282 23.2096V30.8418H39.404V23.2096H40.3282Z" fill="#00344D"/>
</svg>
