<svg width="73" height="86" viewBox="0 0 73 86" fill="none" xmlns="http://www.w3.org/2000/svg">
<path d="M1.3252 24.4352L4.57771 18.7342L5.66189 19.0193L5.87637 21.619L6.758 21.676L8.34255 23.9564L9.16462 24.344L10.642 23.9678L16.599 17.8221L23.7474 13.4209L31.1103 4.96065L34.0173 3.92306L36.5669 1.52864L40.5105 0.662109L43.4175 1.51726L44.74 3.36438L44.5851 3.96868L47.8495 11.3914L51.2927 15.211L55.5579 18.358L59.0369 20.0911L61.5388 19.2588L64.1718 16.8529L67.5197 17.252L69.3306 18.5632L71.0224 21.0033L72.0946 27.4112L69.3782 34.7313L67.2456 35.1417L59.5611 34.5146L61.3243 40.1016L61.7771 43.8529L62.5277 45.1185V51.7544L59.2156 58.8009V60.2033L60.5023 61.4233L61.241 64.3308L62.4324 71.9018L61.4792 73.8743L58.2982 76.9871L58.4769 79.9972L59.43 83.3266L58.6556 84.9685L57.7859 84.8886L55.272 82.0267L54.3546 81.9242L51.9718 79.9858L47.647 81.126L47.2538 79.4613L44.8115 77.9335L41.5828 77.6256L35.8283 78.6404L35.1134 77.7624L34.1246 77.5686V76.9528L32.7902 76.1091L31.5035 76.0065L29.5257 77.1467L26.6783 75.5504L25.7728 74.4102L25.5584 72.6885L23.3185 68.3672L23.7355 65.9157L22.1509 65.1974L21.448 62.2557L20.7213 62.1074L18.4457 63.3617L17.5879 62.5179L18.1836 60.6708L17.6951 59.1087L18.672 58.7781L19.0295 57.6379L17.4687 55.5285L15.8722 51.3782L14.1805 49.3258L9.59355 48.0032L9.12888 47.3875L9.64118 44.708L10.3799 43.7616L10.0939 42.6214L12.298 39.7937L14.3115 38.4939L15.2051 37.2625L16.6943 33.3288L16.2654 32.4281L11.8215 30.4897L9.3791 30.3985L6.53163 28.8706L1.96856 29.0189L1.86131 24.8913L1.3252 24.4352Z" fill="#0AA83F" stroke="#00344D" stroke-width="1.04942" stroke-miterlimit="10"/>
<path d="M22.461 46.8018V40.696H26.146V41.3519H23.2004V43.415H25.9552V44.0709H23.2004V46.1459H26.1937V46.8018H22.461ZM32.3203 40.696V46.8018H31.6048L28.2776 42.0078H28.218V46.8018H27.4786V40.696H28.1941L31.5332 45.5019H31.5928V40.696H32.3203ZM37.8066 40.696H38.546V44.7387C38.546 45.1561 38.4476 45.5287 38.2509 45.8567C38.0561 46.1826 37.7808 46.44 37.425 46.6288C37.0693 46.8157 36.6519 46.9091 36.1729 46.9091C35.6939 46.9091 35.2765 46.8157 34.9207 46.6288C34.565 46.44 34.2887 46.1826 34.0919 45.8567C33.8971 45.5287 33.7997 45.1561 33.7997 44.7387V40.696H34.5391V44.6791C34.5391 44.9772 34.6047 45.2425 34.7359 45.4751C34.8671 45.7056 35.0539 45.8875 35.2964 46.0207C35.5408 46.1518 35.833 46.2174 36.1729 46.2174C36.5127 46.2174 36.8049 46.1518 37.0494 46.0207C37.2939 45.8875 37.4807 45.7056 37.6099 45.4751C37.741 45.2425 37.8066 44.9772 37.8066 44.6791V40.696ZM44.1963 42.6041C44.1308 42.4033 44.0443 42.2234 43.937 42.0644C43.8316 41.9035 43.7054 41.7663 43.5583 41.653C43.4133 41.5397 43.2483 41.4533 43.0634 41.3936C42.8786 41.334 42.6759 41.3042 42.4553 41.3042C42.0935 41.3042 41.7646 41.3976 41.4684 41.5845C41.1723 41.7713 40.9368 42.0466 40.7619 42.4103C40.587 42.774 40.4995 43.2202 40.4995 43.7489C40.4995 44.2776 40.588 44.7238 40.7648 45.0875C40.9417 45.4512 41.1812 45.7265 41.4833 45.9133C41.7855 46.1002 42.1253 46.1936 42.503 46.1936C42.8528 46.1936 43.1608 46.119 43.4272 45.97C43.6955 45.8189 43.9042 45.6062 44.0532 45.332C44.2043 45.0557 44.2798 44.7307 44.2798 44.3571L44.5064 44.4048H42.6699V43.7489H44.9953V44.4048C44.9953 44.9076 44.888 45.3449 44.6734 45.7166C44.4607 46.0882 44.1665 46.3764 43.7909 46.5811C43.4172 46.7839 42.9879 46.8852 42.503 46.8852C41.9623 46.8852 41.4873 46.758 41.0779 46.5036C40.6704 46.2492 40.3524 45.8875 40.1239 45.4184C39.8973 44.9494 39.784 44.3929 39.784 43.7489C39.784 43.2659 39.8486 42.8316 39.9778 42.4461C40.109 42.0585 40.2938 41.7285 40.5323 41.4563C40.7708 41.184 41.053 40.9753 41.379 40.8302C41.705 40.6851 42.0637 40.6125 42.4553 40.6125C42.7772 40.6125 43.0774 40.6612 43.3556 40.7586C43.6359 40.854 43.8853 40.9902 44.1039 41.1671C44.3245 41.342 44.5084 41.5517 44.6555 41.7961C44.8025 42.0386 44.9039 42.3079 44.9596 42.6041H44.1963ZM50.2685 40.696H51.0079V44.7387C51.0079 45.1561 50.9095 45.5287 50.7128 45.8567C50.518 46.1826 50.2427 46.44 49.8869 46.6288C49.5312 46.8157 49.1138 46.9091 48.6348 46.9091C48.1558 46.9091 47.7384 46.8157 47.3826 46.6288C47.0269 46.44 46.7506 46.1826 46.5538 45.8567C46.359 45.5287 46.2617 45.1561 46.2617 44.7387V40.696H47.001V44.6791C47.001 44.9772 47.0666 45.2425 47.1978 45.4751C47.329 45.7056 47.5158 45.8875 47.7583 46.0207C48.0027 46.1518 48.2949 46.2174 48.6348 46.2174C48.9747 46.2174 49.2668 46.1518 49.5113 46.0207C49.7558 45.8875 49.9426 45.7056 50.0718 45.4751C50.203 45.2425 50.2685 44.9772 50.2685 44.6791V40.696Z" fill="#00344D"/>
</svg>
