<svg width="67" height="70" viewBox="0 0 67 70" fill="none" xmlns="http://www.w3.org/2000/svg">
<path d="M43.1941 5.86829L50.4855 5.14996L54.298 5.51483L56.1089 6.48401L57.4552 5.51483L59.6117 2.09423L60.8746 1.47852L62.1493 1.96879L63.9007 5.51483L65.0206 5.86829L66.4265 4.96752L66.3431 7.74961L65.8427 8.45653L64.6513 8.53635L64.0199 9.23189L61.4226 16.6204V23.0283L62.0302 25.5253L61.3749 33.5067L58.9921 39.5156L57.1812 48.5802L56.24 48.9907L54.9533 52.8673L53.7619 54.7372L49.2584 60.005L40.9185 64.1553L35.4023 65.3639L31.9353 66.7322L18.675 68.7275L17.007 69.252L8.11915 69.081L5.93886 69.3204L4.24709 68.7845L1.85235 63.1861L2.40039 61.624L1.50684 27.1786L1.93576 11.6035L2.34083 11.1702L5.53379 10.794L18.6392 10.2581L20.7361 10.9764L31.6851 20.212L32.8051 19.9384L43.1941 5.86829Z" fill="#64CCFF" stroke="#00344D" stroke-width="1.04942" stroke-miterlimit="10"/>
<path d="M20.3139 45.0801V37.4479H24.8902V38.2678H21.2381V40.8466H24.5473V41.6665H21.2381V45.0801H20.3139ZM32.6146 39.833H31.6904C31.6357 39.5671 31.5401 39.3336 31.4034 39.1323C31.2693 38.9311 31.1053 38.7622 30.9115 38.6255C30.7202 38.4864 30.5078 38.382 30.2743 38.3125C30.0407 38.2429 29.7972 38.2081 29.5438 38.2081C29.0817 38.2081 28.6631 38.3249 28.288 38.5584C27.9153 38.792 27.6184 39.1361 27.3973 39.5907C27.1787 40.0454 27.0693 40.6031 27.0693 41.264C27.0693 41.9248 27.1787 42.4826 27.3973 42.9373C27.6184 43.3919 27.9153 43.736 28.288 43.9695C28.6631 44.2031 29.0817 44.3198 29.5438 44.3198C29.7972 44.3198 30.0407 44.2851 30.2743 44.2155C30.5078 44.1459 30.7202 44.0428 30.9115 43.9062C31.1053 43.7671 31.2693 43.5969 31.4034 43.3956C31.5401 43.1919 31.6357 42.9584 31.6904 42.695H32.6146C32.545 43.0851 32.4183 43.4341 32.2345 43.7422C32.0506 44.0503 31.8221 44.3124 31.5488 44.5285C31.2755 44.7422 30.9687 44.9049 30.6283 45.0167C30.2904 45.1285 29.9289 45.1844 29.5438 45.1844C28.8929 45.1844 28.314 45.0254 27.8072 44.7074C27.3004 44.3894 26.9016 43.9372 26.611 43.3509C26.3203 42.7646 26.1749 42.0689 26.1749 41.264C26.1749 40.459 26.3203 39.7634 26.611 39.1771C26.9016 38.5907 27.3004 38.1386 27.8072 37.8206C28.314 37.5026 28.8929 37.3436 29.5438 37.3436C29.9289 37.3436 30.2904 37.3995 30.6283 37.5113C30.9687 37.6231 31.2755 37.787 31.5488 38.0032C31.8221 38.2168 32.0506 38.4777 32.2345 38.7858C32.4183 39.0914 32.545 39.4404 32.6146 39.833ZM33.6907 38.2678V37.4479H39.4148V38.2678H37.0148V45.0801H36.0906V38.2678H33.6907Z" fill="#00344D"/>
</svg>
