<svg width="106" height="127" viewBox="0 0 106 127" fill="none" xmlns="http://www.w3.org/2000/svg">
<path d="M36.3834 3.5034L37.4675 2.50002L42.3404 0.77832L47.106 0.972152L50.6803 2.11235L53.2775 3.58322L63.3925 10.7209L69.0517 18.0181L73.1264 22.1L71.935 23.856L73.8173 22.7158L78.2017 26.5696L79 32.1224L77.5703 45.6338L78.4877 52.9881L78.8451 53.5696H86.9228L88.5312 57.3322L87.7925 60.7528L81.6568 69.3727L82.6218 72.5995L85.5169 76.6016L87.6972 78.6768L94.4405 81.3448L98.1696 88.3798L100.326 90.2042L104.985 92.7126L104.174 104.377L104.794 108.596L103.483 111.252L96.6328 115.813L85.4335 122.267L81.4543 123.92L74.0675 124.957L66.4783 125.493H51.6334L44.6041 126.177L40.3508 125.368L41.0418 125.185L41.1966 124.102L39.1832 121.639L36.1094 115.619L35.3826 108.561L33.9172 104.24L23.0159 96.156L20.0374 94.5483L14.9381 89.5543L14.5449 87.7071L16.1057 85.5293L18.4885 84.4804L23.135 83.762L24.1239 81.7553L23.6473 78.4943L24.2191 68.6544L21.7411 63.0218L13.1629 60.0345L12.1145 58.7233L11.078 50.5708L9.69589 48.6667L0.90332 45.2461L1.14162 43.6726L5.44264 37.8918L8.55219 29.4201L9.7436 23.7875L11.3877 21.5071L13.1034 19.9565L17.7617 18.9531L19.5369 18.0865L21.9197 16.0912L24.9816 11.8725L32.1301 8.1326L35.3588 3.84546L36.3834 3.5034Z" fill="#D62B3C" stroke="#00344D" stroke-width="1.04942" stroke-miterlimit="10"/>
<path d="M36.6991 65.0722C36.6171 64.8213 36.5091 64.5964 36.3749 64.3977C36.2432 64.1965 36.0855 64.025 35.9016 63.8834C35.7203 63.7418 35.5141 63.6337 35.283 63.5592C35.052 63.4847 34.7985 63.4474 34.5228 63.4474C34.0706 63.4474 33.6594 63.5642 33.2893 63.7977C32.9191 64.0312 32.6247 64.3753 32.406 64.83C32.1874 65.2846 32.0781 65.8424 32.0781 66.5032C32.0781 67.1641 32.1886 67.7219 32.4098 68.1765C32.6309 68.6312 32.9302 68.9753 33.3079 69.2088C33.6855 69.4423 34.1104 69.5591 34.5824 69.5591C35.0197 69.5591 35.4047 69.4659 35.7377 69.2796C36.0731 69.0908 36.3339 68.825 36.5203 68.4821C36.7091 68.1368 36.8035 67.7306 36.8035 67.2635L37.0867 67.3231H34.7911V66.5032H37.6979V67.3231C37.6979 67.9517 37.5637 68.4982 37.2954 68.9628C37.0296 69.4274 36.6619 69.7877 36.1923 70.0436C35.7252 70.297 35.1886 70.4237 34.5824 70.4237C33.9066 70.4237 33.3129 70.2647 32.8011 69.9467C32.2918 69.6287 31.8942 69.1765 31.6085 68.5902C31.3253 68.0038 31.1837 67.3082 31.1837 66.5032C31.1837 65.8995 31.2644 65.3567 31.4259 64.8747C31.5899 64.3902 31.821 63.9778 32.1191 63.6375C32.4172 63.2971 32.77 63.0362 33.1775 62.8549C33.5849 62.6735 34.0333 62.5828 34.5228 62.5828C34.9252 62.5828 35.3004 62.6437 35.6482 62.7654C35.9985 62.8847 36.3103 63.0549 36.5836 63.276C36.8594 63.4946 37.0892 63.7567 37.273 64.0623C37.4569 64.3654 37.5836 64.702 37.6532 65.0722H36.6991ZM45.7204 66.5032C45.7204 67.3082 45.5751 68.0038 45.2844 68.5902C44.9937 69.1765 44.595 69.6287 44.0881 69.9467C43.5813 70.2647 43.0024 70.4237 42.3515 70.4237C41.7006 70.4237 41.1217 70.2647 40.6149 69.9467C40.1081 69.6287 39.7093 69.1765 39.4187 68.5902C39.128 68.0038 38.9826 67.3082 38.9826 66.5032C38.9826 65.6983 39.128 65.0027 39.4187 64.4163C39.7093 63.83 40.1081 63.3778 40.6149 63.0598C41.1217 62.7418 41.7006 62.5828 42.3515 62.5828C43.0024 62.5828 43.5813 62.7418 44.0881 63.0598C44.595 63.3778 44.9937 63.83 45.2844 64.4163C45.5751 65.0027 45.7204 65.6983 45.7204 66.5032ZM44.826 66.5032C44.826 65.8424 44.7155 65.2846 44.4943 64.83C44.2757 64.3753 43.9788 64.0312 43.6037 63.7977C43.231 63.5642 42.8136 63.4474 42.3515 63.4474C41.8894 63.4474 41.4708 63.5642 41.0956 63.7977C40.723 64.0312 40.4261 64.3753 40.205 64.83C39.9863 65.2846 39.877 65.8424 39.877 66.5032C39.877 67.1641 39.9863 67.7219 40.205 68.1765C40.4261 68.6312 40.723 68.9753 41.0956 69.2088C41.4708 69.4423 41.8894 69.5591 42.3515 69.5591C42.8136 69.5591 43.231 69.4423 43.6037 69.2088C43.9788 68.9753 44.2757 68.6312 44.4943 68.1765C44.7155 67.7219 44.826 67.1641 44.826 66.5032ZM47.2744 62.6872H48.3775L50.9713 69.0225H51.0607L53.6545 62.6872H54.7575V70.3193H53.893V64.5207H53.8184L51.4334 70.3193H50.5986L48.2135 64.5207H48.139V70.3193H47.2744V62.6872ZM56.6106 70.3193V62.6872H59.2789C59.8106 62.6872 60.2491 62.7791 60.5944 62.9629C60.9397 63.1443 61.1969 63.389 61.3658 63.6971C61.5348 64.0027 61.6192 64.3418 61.6192 64.7145C61.6192 65.0424 61.5608 65.3132 61.4441 65.5269C61.3298 65.7405 61.1782 65.9095 60.9894 66.0337C60.8031 66.1579 60.6006 66.2498 60.382 66.3095V66.384C60.6155 66.3989 60.8503 66.4809 61.0863 66.63C61.3223 66.779 61.5199 66.9927 61.6789 67.2709C61.8379 67.5492 61.9174 67.8896 61.9174 68.292C61.9174 68.6746 61.8304 69.0187 61.6565 69.3243C61.4826 69.6299 61.2081 69.8721 60.8329 70.051C60.4578 70.2299 59.9696 70.3193 59.3683 70.3193H56.6106ZM57.5348 69.4995H59.3683C59.9721 69.4995 60.4006 69.3827 60.654 69.1492C60.9099 68.9131 61.0379 68.6274 61.0379 68.292C61.0379 68.0337 60.972 67.7952 60.8404 67.5765C60.7087 67.3554 60.5211 67.179 60.2776 67.0473C60.0342 66.9132 59.746 66.8461 59.4131 66.8461H57.5348V69.4995ZM57.5348 66.0411H59.2491C59.5273 66.0411 59.7783 65.9865 60.0019 65.8772C60.2279 65.7679 60.4068 65.6138 60.5385 65.4151C60.6727 65.2163 60.7397 64.9828 60.7397 64.7145C60.7397 64.3791 60.623 64.0946 60.3894 63.8611C60.1559 63.625 59.7857 63.507 59.2789 63.507H57.5348V66.0411ZM63.436 70.3193V62.6872H68.0421V63.507H64.3602V66.0859H67.8036V66.9057H64.3602V69.4995H68.1017V70.3193H63.436Z" fill="#00344D"/>
</svg>
