<svg width="59" height="55" viewBox="0 0 59 55" fill="none" xmlns="http://www.w3.org/2000/svg">
<path d="M46.7136 1.38672L49.0964 3.31366L55.4585 5.34318L56.6499 6.99648L57.2099 8.53579L57.6626 18.1932L56.3163 19.1282L58.1154 21.9103L57.7818 24.2477L58.2107 28.1814L57.6984 30.4618L56.638 31.488L55.2322 34.9086L53.0638 36.8241L50.5619 41.2367L46.7851 52.9238L43.7232 54.064L38.338 52.7755H35.8004L30.856 53.9841L25.3398 52.7071L17.3336 52.8668L14.784 52.3992L12.2344 50.5179L10.1851 46.6412L7.99296 45.159L7.68319 43.5969L8.98181 40.45L9.60137 35.1708L9.06522 33.2781L6.53945 32.4002L2.4172 33.1641L0.618164 32.6624L3.89453 17.7372L6.27734 16.8478L9.85155 12.4808L11.7816 11.5687L17.1549 13.7579L20.3478 13.45L23.1715 8.19368L24.2794 4.14598L26.4002 3.00578L33.9179 1.68318L40.3277 3.10843L46.7136 1.38672Z" fill="#0AA83F" stroke="#00344D" stroke-width="1.04942" stroke-miterlimit="10"/>
<path d="M20.9099 22.317V29.9492H19.9857V22.317H20.9099ZM22.763 22.317H23.8661L26.4599 28.6523H26.5493L29.143 22.317H30.2461V29.9492H29.3815V24.1506H29.307L26.922 29.9492H26.0872L23.7021 24.1506H23.6276V29.9492H22.763V22.317ZM38.5388 26.1331C38.5388 26.9381 38.3935 27.6337 38.1028 28.2201C37.8122 28.8064 37.4134 29.2585 36.9066 29.5766C36.3998 29.8946 35.8209 30.0536 35.17 30.0536C34.519 30.0536 33.9402 29.8946 33.4333 29.5766C32.9265 29.2585 32.5278 28.8064 32.2371 28.2201C31.9464 27.6337 31.8011 26.9381 31.8011 26.1331C31.8011 25.3282 31.9464 24.6325 32.2371 24.0462C32.5278 23.4599 32.9265 23.0077 33.4333 22.6897C33.9402 22.3717 34.519 22.2127 35.17 22.2127C35.8209 22.2127 36.3998 22.3717 36.9066 22.6897C37.4134 23.0077 37.8122 23.4599 38.1028 24.0462C38.3935 24.6325 38.5388 25.3282 38.5388 26.1331ZM37.6445 26.1331C37.6445 25.4723 37.5339 24.9145 37.3128 24.4599C37.0942 24.0052 36.7973 23.6611 36.4221 23.4276C36.0494 23.194 35.6321 23.0773 35.17 23.0773C34.7079 23.0773 34.2892 23.194 33.9141 23.4276C33.5414 23.6611 33.2445 24.0052 33.0234 24.4599C32.8048 24.9145 32.6955 25.4723 32.6955 26.1331C32.6955 26.794 32.8048 27.3517 33.0234 27.8064C33.2445 28.261 33.5414 28.6051 33.9141 28.8387C34.2892 29.0722 34.7079 29.189 35.17 29.189C35.6321 29.189 36.0494 29.0722 36.4221 28.8387C36.7973 28.6051 37.0942 28.261 37.3128 27.8064C37.5339 27.3517 37.6445 26.794 37.6445 26.1331Z" fill="#00344D"/>
</svg>
