<svg width="187" height="149" viewBox="0 0 187 149" fill="none" xmlns="http://www.w3.org/2000/svg">
<path d="M116.567 12.8848L118.7 14.2303L125.849 15.0626L129.59 13.0103L132.091 8.44947L138.43 5.49635L142.195 4.77802L145.554 3.21595L153.096 0.935547L155.729 2.3608L158.267 7.81096L159.089 12.7708L160.828 15.6555L162.163 14.8346L169.144 12.7138L175.101 15.2451L177.484 14.5495L179.688 15.5529L182.321 19.4296L184.406 32.6331L185.443 35.9397L172.266 43.8413L172.123 42.2564L171.134 40.3865L169.942 39.4515L165.796 40.0786L160.387 42.359L152.393 65.8357L153.072 67.9793V70.5447L151.654 71.6165L144.232 74.4784L131.281 78.7314L124.764 82.152L117.425 82.6765L113.589 87.853L113.005 92.7102L114.614 93.4285H117.723L120.249 92.2883L123.525 91.9805L125.682 92.5506L127.421 97.5903L128.041 102.516L125.05 108.217L125.706 110.201L127.111 111.466L131.686 110.395L132.246 113.325L133.438 116.176L139.752 124.636L143.326 126.745L150.94 127.623L157.754 129.071L168.322 129.71L169.514 131.374L168.203 134.476L165.999 136.061L164.283 136.95L159.518 138.09L156.503 139.641L154.681 141.819V143.871L156.003 147.782L153.787 148.432L150.856 147.725L148.664 146.072L146.805 145.878L140.133 147.463L133.342 146.106L131.734 144.555L130.769 142.275L131.758 133.324L131.115 130.873L127.933 125.286L126.575 124.944L122.322 125.981L113.148 126.529L109.419 126.289L107.275 122.059L104.534 121.227L100.543 122.891L91.6909 120.143L84.5425 118.889L83.3511 119.106L83.2558 116.552L84.5425 112.31L93.0253 104.466L91.965 103.154L89.4749 102.55L86.1032 99.54L84.3281 96.3931L83.7324 94.1127L82.4337 92.9725L76.4052 93.1435L76.1669 90.8631L76.7626 88.4801L80.7658 83.1325L80.9921 80.8521L82.255 78.7542L82.0287 75.9493L79.3122 67.7626L77.823 68.367L76.0716 70.3623L73.3076 71.9814L71.1392 72.1866L69.507 71.9016V68.9713L68.8398 67.3294L65.0988 67.6144L62.8351 68.9713V67.8311L60.8693 67.0101L61.5007 65.049L62.9066 63.4641L63.0019 57.0676L62.0488 53.7154L60.9527 52.7918L58.7486 52.1533L52.2673 51.5148L51.2785 51.0359L50.0871 49.451L50.7662 47.1706L49.4556 43.6588L44.9164 41.2416L43.5701 39.6681L43.034 32.9181L33.7648 30.6377L29.2732 31.0368L24.5076 33.2374L22.375 34.7083L21.6363 37.6728L19.4084 41.7889L18.1336 40.5119L18.0144 38.2315L13.8326 31.071L12.3553 28.0837L11.3664 27.2856L5.48088 27.1487L2.07344 26.0884L1.37052 25.2674L1.28711 20.8776L2.18066 17.001V13.9338L2.72874 13.5918L15.1074 12.0183L21.5053 13.1585L32.49 12.2691L33.9078 13.74L35.5877 19.0761L36.3978 20.1479L39.567 22.052L41.9498 22.6449L45.0712 20.9233L45.8338 22.702L47.6089 23.5001L51.9933 22.873L56.9734 20.889L60.774 17.9473L61.9654 14.9486L62.6564 14.0935L65.0392 13.0901V12.1095L66.5523 11.6648L78.5378 12.1665L89.2605 13.7856L95.5034 12.9305L102.723 13.8198L114.637 14.3329L116.567 12.8848Z" fill="white" stroke="#00344D" stroke-width="1.04942" stroke-miterlimit="10"/>
<path d="M91.5695 46.654H92.4937V52.1098C92.4937 52.5967 92.4043 53.0104 92.2254 53.3507C92.0465 53.6911 91.7944 53.9495 91.4689 54.1259C91.1435 54.3023 90.7596 54.3905 90.3174 54.3905C89.9 54.3905 89.5286 54.3147 89.2031 54.1632C88.8777 54.0091 88.6218 53.7905 88.4354 53.5073C88.2491 53.224 88.1559 52.8874 88.1559 52.4973H89.0652C89.0652 52.7135 89.1186 52.9023 89.2255 53.0638C89.3348 53.2228 89.4839 53.347 89.6727 53.4365C89.8615 53.5259 90.0764 53.5706 90.3174 53.5706C90.5832 53.5706 90.8093 53.5147 90.9956 53.4029C91.182 53.2911 91.3236 53.1271 91.4205 52.911C91.5198 52.6924 91.5695 52.4253 91.5695 52.1098V46.654ZM95.2701 46.654V54.2861H94.3459V46.654H95.2701ZM102.34 49.039C102.258 48.7881 102.15 48.5632 102.016 48.3645C101.885 48.1632 101.727 47.9918 101.543 47.8502C101.362 47.7086 101.155 47.6005 100.924 47.526C100.693 47.4515 100.44 47.4142 100.164 47.4142C99.7119 47.4142 99.3008 47.531 98.9306 47.7645C98.5604 47.998 98.266 48.3421 98.0474 48.7968C97.8287 49.2514 97.7194 49.8092 97.7194 50.47C97.7194 51.1309 97.83 51.6887 98.0511 52.1433C98.2722 52.598 98.5716 52.9421 98.9492 53.1756C99.3269 53.4091 99.7517 53.5259 100.224 53.5259C100.661 53.5259 101.046 53.4327 101.379 53.2464C101.714 53.0576 101.975 52.7917 102.162 52.4489C102.35 52.1036 102.445 51.6974 102.445 51.2303L102.728 51.2899H100.432V50.47H103.339V51.2899C103.339 51.9185 103.205 52.465 102.937 52.9296C102.671 53.3942 102.303 53.7545 101.834 54.0104C101.367 54.2638 100.83 54.3905 100.224 54.3905C99.548 54.3905 98.9542 54.2315 98.4424 53.9135C97.9331 53.5955 97.5356 53.1433 97.2499 52.557C96.9667 51.9706 96.825 51.275 96.825 50.47C96.825 49.8663 96.9058 49.3235 97.0673 48.8415C97.2312 48.357 97.4623 47.9446 97.7604 47.6043C98.0586 47.2639 98.4113 47.003 98.8188 46.8217C99.2262 46.6403 99.6747 46.5496 100.164 46.5496C100.567 46.5496 100.942 46.6105 101.29 46.7322C101.64 46.8515 101.952 47.0217 102.225 47.2428C102.501 47.4614 102.731 47.7235 102.914 48.0291C103.098 48.3322 103.225 48.6688 103.295 49.039H102.34ZM104.999 54.2861H104.031L106.833 46.654H107.787L110.589 54.2861H109.62L107.34 47.8614H107.28L104.999 54.2861ZM105.357 51.3048H109.263V52.1247H105.357V51.3048ZM112.57 54.2861L110.483 46.654H111.422L113.017 52.87H113.092L114.717 46.654H115.76L117.385 52.87H117.459L119.054 46.654H119.994L117.907 54.2861H116.953L115.268 48.2042H115.209L113.524 54.2861H112.57ZM120.864 54.2861H119.895L122.697 46.654H123.651L126.454 54.2861H125.485L123.204 47.8614H123.144L120.864 54.2861ZM121.222 51.3048H125.127V52.1247H121.222V51.3048Z" fill="#00344D"/>
</svg>
