<svg width="201" height="180" viewBox="0 0 201 180" fill="none" xmlns="http://www.w3.org/2000/svg">
<path d="M125.518 10.8969H129.199L132.106 10.1329L137.086 5.76597L142.781 2.51639H144.747L149.608 1.10254L151.121 1.37619L152.467 2.31117L152.849 3.73641L150.335 8.29721L150.966 11.2275L152.158 12.573L156.363 14.6595L160.831 16.062L165.013 20.771L166.836 21.3981H170.148L173.067 22.0708L179.477 27.1219L183.766 34.442L184.218 38.866L183.027 41.648L181.836 47.2464L183.265 54.1446L183.027 56.1172L182.169 57.3714L177.94 58.5116L177.284 59.4123L177.999 61.784L179.238 62.947L187.578 64.0872L189.961 67.2227L191.867 68.4199L195.441 69.1497L196.692 68.819L196.061 73.3798L193.261 78.1686L193.583 79.001L196.907 80.9963L199.921 84.0863L199.48 84.4169L199.23 87.7235L198.575 89.354L197.002 91.1327L194.393 91.9651L192.129 93.5613L189.592 99.2623L189.329 102.352L190.95 105.568L191.843 109.581L188.996 111.862L188.591 113.116L188.805 115.396L187.971 124.301L188.603 126.696L188.055 127.71L185.779 129.478L185.303 132.989L183.289 134.449L183.539 139.853L182.288 141.45L182.407 142.772L186.291 148.793L189.353 152.304L191.391 153.684L192.582 156.067L192.725 159.955L190.7 164.425L189.401 165.075L186.244 171.471L182.3 177.628L181.323 178.449L179.405 178.928L176.462 178.78L175.747 176.613L169.385 169.875L164.846 169.601L163.059 168.176L161.474 167.925L159.938 169.065L158.877 171.232L153.921 176.648L151.121 178.472L149.751 178.711L148.155 177.571L147.678 176.078L147.738 165.018L146.546 163.182L141.518 160.4L141.137 156.694L137.646 153.65L136.336 153.205L135.144 153.604L133.179 156.021L132.059 158.918L129.307 161.312H127.996L125.911 160.103L124.315 160.388L121.336 158.393L120.228 158.233L118.441 158.929L117.607 158.028L116.892 155.885L115.998 155.759L114.402 156.899L112.996 157.8L111.876 157.447L110.125 153.901L108.85 153.41L107.587 154.026L105.431 157.447L104.084 158.416L102.274 157.447L98.461 157.082L91.1696 157.8L89.7042 157.321L86.7733 158.005L88.4175 153.296L84.4025 150.195L84.5097 147.55L85.1769 146.489L88.0958 145.041L89.037 144.049L89.7518 140.868L93.4333 137.254L92.7423 135.11L89.1681 133.263L90.1569 129.842L85.844 128.292L84.4977 127.414L84.2952 126.376L84.6407 125.647L85.6892 125.168L89.5374 124.7L90.288 122.978L90.1688 119.455L89.0728 115.031L88.8821 109.262L88.489 108.122L86.8567 107.358L71.5234 107.449L63.5767 104.61L61.5394 102.717L60.348 100.437L61.4322 99.0229L64.0175 97.4722L65.9476 95.5567L66.9603 93.8692L72.0118 90.9046L73.2033 88.8637L73.5726 86.5833L69.7124 84.6108L63.9579 82.718L65.5663 77.9976L65.6259 75.0673L63.2431 70.7345L61.3249 70.2328L58.6443 70.9968L56.9882 70.8372L56.6546 65.7063L56.0828 63.5171L55.356 62.9356L49.7207 62.3655L48.3148 63.7337L49.113 66.4588L48.3505 67.599L43.5849 66.9605L34.4945 70.2215L33.3031 67.1885L32.1117 66.0483L28.6447 66.1965L26.1428 66.8921L23.2119 68.6024L16.5519 73.7333L10.1422 81.7147L8.46231 82.7294L6.75858 82.0453L5.30506 78.0318L1.67129 75.7514L1.40918 74.1893L1.80236 71.5555L3.99454 69.5031L3.70858 65.159L4.59025 62.8786L4.42343 61.1911L2.69592 58.3862L3.17247 52.9246L6.74669 46.7903L8.74824 46.6535L10.2732 45.787L13.6807 41.0437L19.9594 35.6734L26.6789 34.5332L36.1386 35.1831L41.7502 34.4762L44.5261 32.7545L48.1003 29.2199L49.8994 25.537L50.6619 21.4893L52.6992 17.6012L53.7118 16.3014L56.9882 14.2833L59.7761 11.5696H60.9675L66.2216 12.573L68.5329 12.3677L70.1533 13.3939L71.0944 15.3778L70.8204 16.5979L67.3773 19.665L66.9126 21.1701L74.4781 23.3706L79.6368 28.3989L81.7218 28.6612L84.9267 26.9281L86.5708 24.7503L84.4025 20.9192L84.2595 18.6388L88.3698 17.396L90.6931 17.5214L93.9932 18.7756L95.6612 18.673L96.3522 18.0573V16.4268L97.7819 13.0062L101.428 10.0531L103.084 9.73386L111.161 12.3449L113.544 14.3175L114.736 16.119L116.606 17.0083L123.302 14.4543L124.303 12.1169L125.518 10.8969Z" fill="#64CCFF" stroke="#00344D" stroke-width="1.04942" stroke-miterlimit="10"/>
<path d="M101.875 82.0234V74.3913H102.8V78.1775H102.889L106.318 74.3913H107.525L104.32 77.8347L107.525 82.0234H106.407L103.754 78.4757L102.8 79.5489V82.0234H101.875ZM109.034 82.0234H108.065L110.868 74.3913H111.822L114.624 82.0234H113.655L111.375 75.5987H111.315L109.034 82.0234ZM109.392 79.0421H113.298V79.862H109.392V79.0421ZM118.168 82.0234H115.813V74.3913H118.273C119.013 74.3913 119.647 74.5441 120.173 74.8496C120.7 75.1527 121.104 75.5888 121.384 76.1577C121.665 76.7241 121.805 77.4024 121.805 78.1924C121.805 78.9875 121.664 79.6719 121.381 80.2458C121.097 80.8172 120.685 81.257 120.143 81.5651C119.602 81.8706 118.943 82.0234 118.168 82.0234ZM116.737 81.2036H118.109C118.74 81.2036 119.263 81.0818 119.678 80.8384C120.092 80.5949 120.402 80.2483 120.606 79.7986C120.809 79.3489 120.911 78.8136 120.911 78.1924C120.911 77.5763 120.81 77.0459 120.609 76.6012C120.408 76.154 120.107 75.8111 119.707 75.5726C119.307 75.3316 118.809 75.2111 118.213 75.2111H116.737V81.2036ZM128.364 74.3913H129.289V79.4446C129.289 79.9663 129.166 80.4322 128.92 80.8421C128.676 81.2495 128.332 81.5713 127.887 81.8073C127.443 82.0408 126.921 82.1576 126.322 82.1576C125.723 82.1576 125.202 82.0408 124.757 81.8073C124.312 81.5713 123.967 81.2495 123.721 80.8421C123.478 80.4322 123.356 79.9663 123.356 79.4446V74.3913H124.28V79.3701C124.28 79.7427 124.362 80.0744 124.526 80.3651C124.69 80.6533 124.923 80.8806 125.227 81.0471C125.532 81.211 125.897 81.293 126.322 81.293C126.747 81.293 127.112 81.211 127.418 81.0471C127.723 80.8806 127.957 80.6533 128.118 80.3651C128.282 80.0744 128.364 79.7427 128.364 79.3701V74.3913ZM137.186 74.3913V82.0234H136.292L132.133 76.031H132.058V82.0234H131.134V74.3913H132.029L136.202 80.3986H136.277V74.3913H137.186ZM139.349 82.0234H138.38L141.182 74.3913H142.136L144.939 82.0234H143.97L141.689 75.5987H141.629L139.349 82.0234ZM139.706 79.0421H143.612V79.862H139.706V79.0421Z" fill="#00344D"/>
</svg>
