<svg width="157" height="162" viewBox="0 0 157 162" fill="none" xmlns="http://www.w3.org/2000/svg">
<path d="M74.7974 1.21521L85.7106 2.75449L91.9298 4.32796L96.195 6.53995L99.6739 9.39045L102.926 10.2228L114.709 21.2143L118.629 20.2109L122.108 20.6442L125.682 22.4115L128.411 24.4069L130.615 26.8127L131.806 29.5948L135.38 31.1569L141.647 32.6049L156.075 37.0745V38.0551L153.692 39.0584L153.001 39.9136L151.81 42.9123L147.926 45.854L142.981 47.8608L138.597 48.4879L136.822 47.6898L136.059 45.911L132.938 47.6327L130.555 47.0398L127.386 45.1357L126.576 44.0639L124.908 38.7392L123.514 37.3367L112.529 38.2261L106.131 37.0859L93.7526 38.6594L93.2046 39.0014V42.0686L92.311 45.9452L92.3944 50.335L93.0974 51.156L96.5048 52.2163L102.39 52.3532L103.379 53.1513L104.857 56.1386L99.3403 56.5491L97.8153 57.142L95.2657 62.3983L93.9194 67.4038L92.9902 68.373L88.6058 70.5736L79.5034 73.2872L74.44 75.9895L71.8427 78.5892L71.521 81.8843L72.355 95.9316L71.3304 103.149L73.8204 108.371L73.0222 113L76.7632 121.894L75.5718 122.555L72.3431 122.635L69.4241 124.573L64.9564 125.714L62.788 127.572L62.7046 130.092L60.9533 133.148L61.8825 137.264L63.205 139.841L67.4941 142.896L66.3027 144.151L65.3019 146.488L58.6062 149.042L56.7357 148.153L55.5443 146.351L53.1615 144.379L45.0837 141.768L43.4277 142.087L39.782 145.04L38.3523 148.461V150.045L37.6613 150.661L35.9933 150.764L32.6931 149.51L30.3699 149.384L26.2595 150.627L26.4025 152.907L28.5589 156.738L26.9148 158.916L23.7099 160.649L21.6369 160.398L16.5734 155.507L9.00799 153.306L9.47265 151.801L12.9158 148.734L13.1898 147.514L12.2486 145.53L10.6283 144.504L8.31699 144.709L3.06289 143.706V141.049L4.55215 134.094L3.47989 129.887L1.2043 127.72L1.01367 126.5L1.54982 122.213L3.40841 117.493L4.18281 112.932L5.96992 111.974L13.8451 111.826L15.3701 112.818L21.1841 108.257L21.8394 104.609L25.8187 105.532L28.0705 103.685L27.4748 101.405L26.0927 99.7741L22.8998 97.163L19.8855 95.8404L18.4201 94.609L20.5884 90.47L21.8871 84.5866L20.7553 81.7703L20.9101 79.8548L20.0881 76.4342L17.1096 70.5051L17.5861 66.4346L16.0254 62.6834L15.5607 57.2674L14.3693 51.3726L14.4527 44.5314L13.2613 37.4964L14.9889 25.0568L20.7791 23.2667L27.0697 17.1552L37.4349 18.0446L41.7001 17.2008L69.579 1.1126L71.104 0.736328L74.7974 1.21521Z" fill="#64CCFF" stroke="#00344D" stroke-width="1.04942" stroke-miterlimit="10"/>
<path d="M29.7094 57.2451V49.6129H30.6336V53.3992H30.723L34.1515 49.6129H35.359L32.154 53.0564L35.359 57.2451H34.241L31.5876 53.6973L30.6336 54.7706V57.2451H29.7094ZM36.8683 57.2451H35.8993L38.7018 49.6129H39.6558L42.4582 57.2451H41.4893L39.2086 50.8204H39.149L36.8683 57.2451ZM37.226 54.2638H41.1315V55.0837H37.226V54.2638ZM42.338 50.4328V49.6129H48.0622V50.4328H45.6622V57.2451H44.738V50.4328H42.338ZM53.6624 51.521C53.6177 51.1434 53.4363 50.8502 53.1183 50.6415C52.8003 50.4328 52.4102 50.3285 51.9481 50.3285C51.6103 50.3285 51.3146 50.3831 51.0612 50.4924C50.8103 50.6017 50.614 50.7521 50.4724 50.9434C50.3333 51.1347 50.2637 51.352 50.2637 51.5955C50.2637 51.7992 50.3121 51.9744 50.409 52.121C50.5084 52.2651 50.6351 52.3856 50.7891 52.4825C50.9432 52.5769 51.1047 52.6551 51.2736 52.7172C51.4426 52.7769 51.5978 52.8253 51.7394 52.8626L52.5146 53.0713C52.7133 53.1234 52.9345 53.1955 53.1779 53.2874C53.4239 53.3793 53.6587 53.5048 53.8823 53.6638C54.1084 53.8203 54.2947 54.0216 54.4413 54.2675C54.5878 54.5135 54.6611 54.8153 54.6611 55.1731C54.6611 55.5855 54.5531 55.9582 54.3369 56.2911C54.1233 56.624 53.8102 56.8886 53.3978 57.0849C52.9879 57.2811 52.4897 57.3793 51.9034 57.3793C51.3568 57.3793 50.8836 57.2911 50.4836 57.1147C50.0861 56.9383 49.773 56.6923 49.5444 56.3768C49.3184 56.0613 49.1904 55.6948 49.1606 55.2774H50.1146C50.1395 55.5656 50.2364 55.8041 50.4053 55.993C50.5767 56.1793 50.7929 56.3184 51.0537 56.4103C51.3171 56.4998 51.6003 56.5445 51.9034 56.5445C52.2562 56.5445 52.573 56.4874 52.8537 56.3731C53.1345 56.2563 53.3568 56.0948 53.5208 55.8886C53.6848 55.6799 53.7667 55.4365 53.7667 55.1582C53.7667 54.9048 53.6959 54.6986 53.5543 54.5396C53.4127 54.3806 53.2264 54.2514 52.9953 54.152C52.7643 54.0526 52.5146 53.9657 52.2463 53.8911L51.3072 53.6228C50.7109 53.4514 50.2388 53.2067 49.891 52.8887C49.5432 52.5707 49.3693 52.1545 49.3693 51.6402C49.3693 51.2129 49.4848 50.8403 49.7159 50.5222C49.9494 50.2018 50.2624 49.9533 50.655 49.7769C51.05 49.598 51.491 49.5086 51.978 49.5086C52.4699 49.5086 52.9071 49.5968 53.2897 49.7732C53.6723 49.9471 53.9754 50.1856 54.199 50.4887C54.4251 50.7918 54.5444 51.1359 54.5568 51.521H53.6624ZM57.1049 49.6129V57.2451H56.1807V49.6129H57.1049ZM65.01 49.6129V57.2451H64.1156L59.9567 51.2527H59.8822V57.2451H58.958V49.6129H59.8524L64.0262 55.6203H64.1007V49.6129H65.01ZM67.1724 57.2451H66.2035L69.0059 49.6129H69.96L72.7624 57.2451H71.7935L69.5128 50.8204H69.4531L67.1724 57.2451ZM67.5302 54.2638H71.4357V55.0837H67.5302V54.2638Z" fill="#00344D"/>
</svg>
