<svg width="189" height="226" viewBox="0 0 189 226" fill="none" xmlns="http://www.w3.org/2000/svg">
<path d="M47.5232 1.8586L55.4103 1.69897L57.6263 2.54272L63.1425 0.741211L64.048 1.09467L66.0138 3.5119L69.8144 5.58706L71.0773 6.79567L82.4671 10.3531L85.9698 12.7589L89.6155 13.5343L91.7839 13.044L92.5345 12.4054L95.5011 8.19812L96.8831 7.84465L98.1698 8.84803L98.6464 10.2733L96.6925 14.7771L96.7997 17.5135L95.1079 20.9341L94.6075 25.1529L96.8235 27.6043L98.9681 32.4844L98.7536 36.2698L97.2048 43.1794V45.4598L99.2063 51.7537L98.9204 60.8753L98.2413 62.6655H97.0499L93.2731 60.3851H90.0802L85.3146 61.7305L83.7896 63.418L82.5982 67.7279L82.4314 79.0615L83.3726 93.9411L80.8468 105.104L77.7372 111.523L76.4386 116.996L79.4767 121.158L80.3821 121.739L83.6942 122.07L85.7316 120.531L88.5909 117.11L102.888 110.896L104.901 110.759L107.153 111.74L109.536 110.919L110.453 112.914L111.573 112.994L113.503 111.854L114.528 111.306H116.696L121.593 113.872L129.146 112.207L130.123 109.562L131.386 108.855L132.327 108.684L133.412 109.414L135.902 109.767L140.203 109.026L141.489 109.676L143.503 113.439L146.922 113.564L151.271 116.312L157.788 115.445L162.303 116.015L165.27 115.343L166.723 114.419L172.502 115.126L177.684 117.144L179.364 119.596V122.412L176.922 129.812V131.18L183.331 134.27L185.631 137.691L187.275 146.333L187.525 152.582L185.905 151.327L183.701 150.917L179.626 154.064L178.101 156.572L173.419 157.04L159.003 162.832L146.291 163.619L144.349 162.239L143.92 157.678L144.361 152.194L143.789 150.164L139.321 147.348L138.356 145.911L137.165 138.489L135.151 136.664L131.767 135.855H127.431L115.683 137.668L106.307 139.754L101.029 141.601L95.2509 144.555L93.6186 146.915L93.8093 148.671L94.8458 150.107L99.1706 152.388L105.604 154.885L111.99 155.489L113.182 157.77H115.219L116.148 158.613L117.482 166.093L117.185 167.313L114.587 168.966L113.837 170.642L114.421 172.296L117.685 174.154L119.079 175.705L118.996 178.065L117.804 179.764L113.277 180.904L107.058 183.914L101.101 183.321L99.254 183.8L98.1817 184.655V195.59L97.6456 197.152L99.1349 200.379L101.291 202.659L103.507 206.08L104.401 208.862L104.067 210.606L101.958 213.035L98.8132 214.825L94.7862 215.122L85.946 217.972L85.3503 224.642L84.6831 225.19L79.5362 224.665L77.8444 223.525V220.925L79.0358 217.185L79.3814 212.693L75.8905 209.66L74.5562 206.912L74.7706 199.706L76.5101 195.989L78.7022 193.709L80.4655 192.568L85.1358 190.927L90.6401 185.875L93.5353 173.664L93.7735 169.046L93.1659 168.202L89.7227 166.994L87.8403 167.108L77.8325 160.609L71.5896 158.682L68.0868 158.761L62.7255 159.731L55.3507 159.32L40.8513 160.244L38.6353 159.913L34.4773 158.294L21.3718 151.362L17.9287 150.951L16.8683 151.544H15.3314L0.832031 139.697L5.99082 116.449L8.51659 111.078L14.3426 106.312L13.3656 102.595L10.4824 100.52L9.80331 94.9673L13.5801 90.589L10.7683 80.6008L11.233 74.6489L12.7461 69.7461L11.6381 51.6739L24.5291 41.0017L33.7386 34.1605L45.0927 17.4907L47.5709 6.51062L47.5232 1.8586Z" fill="#64CCFF" stroke="#00344D" stroke-width="1.04942" stroke-miterlimit="10"/>
<path d="M35.6625 88.457V80.8249H36.5867V84.6111H36.6761L40.1047 80.8249H41.3121L38.1072 84.2683L41.3121 88.457H40.1941L37.5407 84.9093L36.5867 85.9825V88.457H35.6625ZM42.5083 88.457V80.8249H47.1145V81.6447H43.4326V84.2236H46.876V85.0434H43.4326V87.6372H47.1741V88.457H42.5083ZM48.7803 88.457V80.8249H51.4486C51.9802 80.8249 52.4187 80.9168 52.7641 81.1006C53.1094 81.282 53.3666 81.5267 53.5355 81.8348C53.7044 82.1404 53.7889 82.4795 53.7889 82.8522C53.7889 83.1801 53.7305 83.4509 53.6138 83.6646C53.4995 83.8782 53.3479 84.0472 53.1591 84.1714C52.9728 84.2956 52.7703 84.3875 52.5517 84.4472V84.5217C52.7852 84.5366 53.02 84.6186 53.256 84.7676C53.492 84.9167 53.6895 85.1304 53.8485 85.4086C54.0075 85.6869 54.087 86.0273 54.087 86.4297C54.087 86.8123 54.0001 87.1564 53.8262 87.462C53.6523 87.7676 53.3777 88.0098 53.0026 88.1887C52.6274 88.3676 52.1392 88.457 51.538 88.457H48.7803ZM49.7045 87.6372H51.538C52.1417 87.6372 52.5703 87.5204 52.8237 87.2869C53.0796 87.0508 53.2075 86.7651 53.2075 86.4297C53.2075 86.1714 53.1417 85.9328 53.01 85.7142C52.8784 85.4931 52.6908 85.3167 52.4473 85.185C52.2038 85.0509 51.9156 84.9838 51.5827 84.9838H49.7045V87.6372ZM49.7045 84.1788H51.4188C51.697 84.1788 51.9479 84.1242 52.1715 84.0149C52.3976 83.9056 52.5765 83.7515 52.7082 83.5528C52.8423 83.354 52.9094 83.1205 52.9094 82.8522C52.9094 82.5168 52.7926 82.2323 52.5591 81.9988C52.3256 81.7627 51.9554 81.6447 51.4486 81.6447H49.7045V84.1788ZM55.6056 88.457V80.8249H58.2739C58.8056 80.8249 59.2441 80.9168 59.5894 81.1006C59.9348 81.282 60.1919 81.5267 60.3609 81.8348C60.5298 82.1404 60.6143 82.4795 60.6143 82.8522C60.6143 83.1801 60.5559 83.4509 60.4391 83.6646C60.3248 83.8782 60.1733 84.0472 59.9845 84.1714C59.7981 84.2956 59.5956 84.3875 59.377 84.4472V84.5217C59.6106 84.5366 59.8453 84.6186 60.0814 84.7676C60.3174 84.9167 60.5149 85.1304 60.6739 85.4086C60.8329 85.6869 60.9124 86.0273 60.9124 86.4297C60.9124 86.8123 60.8254 87.1564 60.6515 87.462C60.4776 87.7676 60.2031 88.0098 59.8279 88.1887C59.4528 88.3676 58.9646 88.457 58.3634 88.457H55.6056ZM56.5299 87.6372H58.3634C58.9671 87.6372 59.3956 87.5204 59.6491 87.2869C59.905 87.0508 60.0329 86.7651 60.0329 86.4297C60.0329 86.1714 59.9671 85.9328 59.8354 85.7142C59.7037 85.4931 59.5161 85.3167 59.2727 85.185C59.0292 85.0509 58.741 84.9838 58.4081 84.9838H56.5299V87.6372ZM56.5299 84.1788H58.2441C58.5224 84.1788 58.7733 84.1242 58.9969 84.0149C59.223 83.9056 59.4019 83.7515 59.5335 83.5528C59.6677 83.354 59.7348 83.1205 59.7348 82.8522C59.7348 82.5168 59.618 82.2323 59.3845 81.9988C59.1509 81.7627 58.7808 81.6447 58.2739 81.6447H56.5299V84.1788ZM63.3552 80.8249V88.457H62.431V80.8249H63.3552Z" fill="#00344D"/>
</svg>
