<svg width="189" height="158" viewBox="0 0 189 158" fill="none" xmlns="http://www.w3.org/2000/svg">
<path d="M65.0708 1.48242L67.6919 2.13234L70.9921 3.93384L75.1859 7.63949L78.486 12.5652L81.5242 21.9718L85.9443 24.5943L89.173 27.6614L95.6899 35.9507L98.9306 38.8468L100.873 39.1318L101.266 38.7328L102.004 35.4376L103.482 32.5529L103.708 32.2564L104.9 33.2598L105.448 33.1572L105.519 29.7366L109.772 27.7526L111.107 24.047L119.995 24.218L121.663 23.6935L120.948 26.7036L119.149 29.7708V30.7514L120.126 32.6783L122.735 35.7112L123.378 42.7462L121.984 48.1166V53.4641L120.066 55.3683L119.053 57.7855L118.851 62.0498L119.673 62.6883L124.748 59.3248L135.781 54.6841L150.554 50.8417L158.977 50.0435L163.243 50.8189L172.416 51.4688L172.035 54.7069L172.679 61.3999L174.918 65.0714L178.135 68.0473L179.005 70.1567V78.024L179.684 85.7888L181.161 92.0941L182.674 93.2913L186.618 92.9264L188.381 93.4623L187.952 95.5261L186.487 96.9057L185.927 98.3766L185.427 102.858L183.115 109.505L179.184 113.051L171.511 116.608L170.32 118.25L169.914 123.29H167.818L166.209 122.093L165.232 122.207L161.217 118.455L160.216 117.794L159.728 118.364L158.406 116.517L155.498 115.662L151.555 116.529L149.005 118.923L146.098 119.961L138.735 128.421L131.587 132.822L125.63 138.968L124.153 139.344L123.331 138.956L121.746 136.676L120.864 136.619L120.65 134.019L119.566 133.734L116.313 139.435L114.717 141.567L112.882 142.548L110.213 145.182L108.748 149.857L108.676 152.969L106.484 155.831L104.78 156.846L100.503 156.093L98.5136 156.971L97.3222 150.13L95.6423 147.85L94.5819 144.885L95.6899 138.591L94.1292 136.174L96.7026 132.127L98.9782 126.631L98.9067 121.888L100.837 117.395L101.206 115.206L101.027 111.318L100.086 109.037L98.3587 107.806L97.7034 105.389L95.6185 103.781L93.3905 104.249L91.6511 105.389L91.1388 104.956L86.671 105.913L85.8847 104.055L86.1706 103.473L85.289 102.835L84.7171 100.828L83.7044 100.133L83.621 98.7415L82.3581 96.4611L79.3081 96.29L78.4265 96.8715L75.7339 97.0882L73.3511 94.5455L72.6958 94.6139L71.1947 93.0063L70.4202 93.086L68.5617 90.6916L61.5324 93.9868L58.9947 93.3825L57.7079 92.4932L57.3743 91.296L57.6484 89.0954L58.8398 86.986L58.5181 86.0738L55.9208 86.3589L55.3728 85.6178L55.8255 84.603L55.4919 83.8276L54.6579 83.4172L52.573 83.839L51.6556 83.1093L51.3816 82.2199L45.7343 77.4653L43.3515 74.3868L44.1974 69.6664L41.207 69.1761L35.7027 70.1794L27.5773 67.4544L25.2779 65.4818H23.7529L22.1803 64.3416L20.6076 60.0659L20.7029 58.2872L23.4312 54.8666L25.0277 54.1368L25.3613 52.5748L24.6941 51.7766L21.942 51.4688L17.5695 52.1985L14.6148 53.8176L13.9596 53.3045V48.4245L15.2582 47.9456L16.1517 46.3037L15.1748 43.5558L9.53944 40.6369L9.38455 39.9642L6.50136 37.9004L6.41797 37.1365L3.58242 34.343L1.29492 30.1242L1.49746 28.984L4.04706 26.2134L6.77537 21.7552L11.1955 17.1944L15.4846 14.5833L17.5933 17.5707L20.1787 19.5774L28.5185 22.998L30.7107 23.0892L33.999 24.3206L38.4191 24.0812L40.9568 24.8679L45.6271 24.7311L53.1329 26.4642L56.7072 25.8941L58.5777 21.6069L59.3402 14.2071L62.0923 5.32489L65.0708 1.48242Z" fill="#0AA83F" stroke="#00344D" stroke-width="1.04942" stroke-miterlimit="10"/>
<path d="M99.4975 85.0371V77.4049H100.422V81.1912H100.511L103.94 77.4049H105.147L101.942 80.8484L105.147 85.0371H104.029L101.376 81.4893L100.422 82.5626V85.0371H99.4975ZM112.424 81.221C112.424 82.026 112.279 82.7216 111.988 83.3079C111.698 83.8943 111.299 84.3464 110.792 84.6644C110.285 84.9825 109.706 85.1415 109.055 85.1415C108.404 85.1415 107.826 84.9825 107.319 84.6644C106.812 84.3464 106.413 83.8943 106.122 83.3079C105.832 82.7216 105.686 82.026 105.686 81.221C105.686 80.4161 105.832 79.7204 106.122 79.1341C106.413 78.5478 106.812 78.0956 107.319 77.7776C107.826 77.4596 108.404 77.3006 109.055 77.3006C109.706 77.3006 110.285 77.4596 110.792 77.7776C111.299 78.0956 111.698 78.5478 111.988 79.1341C112.279 79.7204 112.424 80.4161 112.424 81.221ZM111.53 81.221C111.53 80.5602 111.419 80.0024 111.198 79.5478C110.98 79.0931 110.683 78.749 110.308 78.5155C109.935 78.2819 109.517 78.1652 109.055 78.1652C108.593 78.1652 108.175 78.2819 107.799 78.5155C107.427 78.749 107.13 79.0931 106.909 79.5478C106.69 80.0024 106.581 80.5602 106.581 81.221C106.581 81.8819 106.69 82.4396 106.909 82.8943C107.13 83.3489 107.427 83.693 107.799 83.9266C108.175 84.1601 108.593 84.2769 109.055 84.2769C109.517 84.2769 109.935 84.1601 110.308 83.9266C110.683 83.693 110.98 83.3489 111.198 82.8943C111.419 82.4396 111.53 81.8819 111.53 81.221ZM119.196 79.79C119.114 79.5391 119.006 79.3142 118.871 79.1155C118.74 78.9142 118.582 78.7428 118.398 78.6012C118.217 78.4596 118.011 78.3515 117.779 78.277C117.548 78.2024 117.295 78.1652 117.019 78.1652C116.567 78.1652 116.156 78.2819 115.786 78.5155C115.416 78.749 115.121 79.0931 114.902 79.5478C114.684 80.0024 114.575 80.5602 114.575 81.221C114.575 81.8819 114.685 82.4396 114.906 82.8943C115.127 83.3489 115.427 83.693 115.804 83.9266C116.182 84.1601 116.607 84.2769 117.079 84.2769C117.516 84.2769 117.901 84.1837 118.234 83.9974C118.57 83.8086 118.83 83.5427 119.017 83.1999C119.206 82.8545 119.3 82.4483 119.3 81.9813L119.583 82.0409H117.288V81.221H120.194V82.0409C120.194 82.6694 120.06 83.216 119.792 83.6806C119.526 84.1452 119.158 84.5054 118.689 84.7613C118.222 85.0147 117.685 85.1415 117.079 85.1415C116.403 85.1415 115.809 84.9825 115.298 84.6644C114.788 84.3464 114.391 83.8943 114.105 83.3079C113.822 82.7216 113.68 82.026 113.68 81.221C113.68 80.6173 113.761 80.0745 113.922 79.5925C114.086 79.108 114.317 78.6956 114.616 78.3552C114.914 78.0149 115.266 77.754 115.674 77.5726C116.081 77.3913 116.53 77.3006 117.019 77.3006C117.422 77.3006 117.797 77.3615 118.145 77.4832C118.495 77.6024 118.807 77.7726 119.08 77.9937C119.356 78.2124 119.586 78.4745 119.769 78.7801C119.953 79.0832 120.08 79.4198 120.15 79.79H119.196ZM122.701 77.4049V85.0371H121.777V77.4049H122.701Z" fill="#00344D"/>
</svg>
