<svg width="259" height="157" viewBox="0 0 259 157" fill="none" xmlns="http://www.w3.org/2000/svg">
<path d="M70.6761 2.64698L77.0859 1.59801L90.5487 1.15332L94.8616 2.2137L111.541 20.2973L113.924 23.8319L120.608 31.2204L123.336 33.0219L125.362 32.8166L126.553 33.364L126.875 36.7161L126.005 42.0181L126.076 48.1523L127.125 52.3483L128.674 52.793L137.693 51.8922L138.693 52.7359L139.206 54.5831L138.979 58.494L139.396 60.0902L140.183 61.2304L144.007 63.9783L147.581 64.423L148.856 65.0501L149.928 67.4559L150.81 73.67L153.062 75.1751H155.445L166.358 71.1159L169.229 70.9335L176.795 74.3541L178.486 75.6083L186.052 83.852L188.732 84.6387L193.498 83.3161L198.883 84.2397L203.327 86.0754L204.09 85.7675L218.112 94.1138L224.296 98.2983L225.404 99.9972L227.143 100.807L229.335 101.491L235.197 101.856L239.236 100.818L248.195 100.465L258.036 102.414L255.106 106.234L252.389 115.173L251.627 122.573L249.756 126.86L246.182 127.43L238.676 125.697L234.006 125.834L231.468 125.047L227.048 125.287L223.76 124.055L221.568 123.964L213.228 120.544L210.559 118.594L208.498 115.55L204.209 118.161L199.789 122.721L197.06 127.18L194.463 129.996L194.261 131.136L196.548 135.355L199.419 138.148L199.503 138.912L202.386 140.976L202.541 141.649L208.212 144.59L209.189 147.338L208.295 148.98L201.433 149.083L196.584 150.599L195.607 153.131L195.952 153.849L194.761 156.312L193.224 155.685L190.901 156.346L188.161 155.639L185.385 155.901L184.193 155.343L182.442 152.994L181.31 152.572L175.972 153.997L174.781 153.438L174.054 151.534L173.566 151.728L173.101 151.112L171.112 152.025L166.954 152.173L165.19 148.558L162.593 147.897L156.946 149.835L153.693 149.379L153.789 150.383L153.574 149.413L153.145 149.516L148.928 151.375L145.83 151.728L135.977 151.477L135.393 150.725L133.666 150.645L132.82 149.573L130.556 144.089L130.091 140.93L129.162 140.178V139.266L125.04 136.7L121.466 131.866L120.012 127.944L119.905 125.549L118.964 122.391L116.581 119.392L113.007 111.285L111.029 109.107L109.456 103.076L108.491 101.274L109.683 96.1433L112.161 94.376L112.578 92.5517L113.257 91.879L117.022 89.496L119.81 85.893L119.619 84.4107L118.058 83.5213L114.687 85.5737L112.054 85.6649L107.598 84.3879L106.287 84.5361L103.428 82.7802L96.6368 80.7963L92.7647 78.037L90.7513 75.7566L90.1079 72.9289L85.247 70.124L82.8642 70.2266L78.313 72.5982L76.2519 76.8284V79.8499L75.7157 81.1155L70.4497 85.0264L62.5388 88.3558L55.6406 92.1184L52.674 94.3304L51.3277 94.6269L47.7535 97.1467L39.4136 100.864L38.3056 101.035L37.6742 100.18L37.138 100.305L36.0539 99.0166L35.2318 98.8L32.1699 99.1079L23.8301 105.413L21.8523 106.166L17.1939 110.088L16.9676 111.228L15.1805 112.129L10.3672 112.893H6.59042L2.78984 116.063L3.45703 114.033L2.7541 112.482V108.446L1.9082 107.42L2.19414 105.778L2.84941 104.193L2.38476 101.172L1.19336 99.1307L2.075 97.5344L3.77871 96.4968L3.30215 92.6885L4.12421 92.4263L4.52929 90.4651L4.29101 89.7582V88.7548L5.11308 86.8849L5.62539 85.1062L5.13691 84.2397L4.81523 83.3617L4.39824 82.4724L4.55312 81.1383L4.85097 79.1658L5.0416 78.379L11.4394 78.5843L12.2853 78.4018L13.4767 77.0564L17.873 76.4065L18.6594 77.3415L20.1367 77.8545L21.9119 77.7405L27.8689 75.768L28.1668 73.7612L30.49 69.3372L30.6925 65.0729L32.9681 62.9293L32.5631 56.2934L31.0381 51.7326L31.4074 50.1135L32.7894 47.9699L35.7322 46.3964L36.7091 44.3099L39.7949 40.1824L40.8076 36.6477L41.999 35.975L44.5486 36.2601L47.0386 34.2875L47.1578 32.8965L45.5613 29.9776L45.18 27.777L45.6209 26.2491L46.9433 24.8581L54.9853 21.7795L59.0242 22.0532L60.3824 21.7111L62.7652 19.3623L62.9081 17.8801L65.7199 14.9269L66.399 12.1791L66.6968 6.47807L67.7095 5.22384L70.1876 4.24325L70.6761 2.64698Z" fill="#0AA83F" stroke="#00344D" stroke-width="1.04942" stroke-miterlimit="10"/>
<path d="M134.829 106.2V98.568H135.753V102.354H135.842L139.271 98.568H140.478L137.273 102.011L140.478 106.2H139.36L136.707 102.652L135.753 103.726V106.2H134.829ZM143.061 106.2L140.974 98.568H141.913L143.508 104.784H143.582L145.207 98.568H146.251L147.876 104.784H147.95L149.545 98.568H150.484L148.397 106.2H147.443L145.759 100.118H145.699L144.015 106.2H143.061ZM151.354 106.2H150.385L153.188 98.568H154.142L156.944 106.2H155.975L153.695 99.7755H153.635L151.354 106.2ZM151.712 103.219H155.618V104.039H151.712V103.219ZM158.133 106.2V98.568H160.712C161.308 98.568 161.798 98.6699 162.18 98.8736C162.563 99.0748 162.846 99.3519 163.03 99.7046C163.214 100.057 163.306 100.459 163.306 100.908C163.306 101.358 163.214 101.757 163.03 102.105C162.846 102.452 162.564 102.726 162.184 102.924C161.804 103.121 161.318 103.219 160.727 103.219H158.64V102.384H160.697C161.104 102.384 161.432 102.324 161.681 102.205C161.932 102.086 162.113 101.917 162.225 101.698C162.339 101.477 162.396 101.214 162.396 100.908C162.396 100.603 162.339 100.336 162.225 100.107C162.111 99.8786 161.928 99.7022 161.677 99.5779C161.426 99.4512 161.095 99.3879 160.682 99.3879H159.057V106.2H158.133ZM161.726 102.772L163.604 106.2H162.531L160.682 102.772H161.726ZM165.159 106.2H164.19L166.992 98.568H167.946L170.749 106.2H169.78L167.499 99.7755H167.439L165.159 106.2ZM165.517 103.219H169.422V104.039H165.517V103.219Z" fill="#00344D"/>
</svg>
