<svg width="123" height="26" viewBox="0 0 123 26" fill="none" xmlns="http://www.w3.org/2000/svg">
<path d="M1.44199 17.8027L2.93125 18.2588L6.99394 17.7685L9.30527 18.7833L13.4275 15.9784V14.1427L13.916 14.0172L18.1455 14.6215L34.4796 14.4049L35.7425 13.2647L36.6599 8.76093L39.1261 6.85678L39.2334 4.17731L40.8537 1.31543L43.0578 1.60048L47.1205 3.23096L48.5501 4.1431L49.5152 5.77358L54.9599 5.22631L54.3523 3.573L56.2466 2.36439L101.02 2.80909L102.294 3.04852L102.938 4.07469L99.6852 7.35847L99.4112 8.43026L100.281 9.8441V11.5088L102.89 12.7516L106.726 10.2888L110.837 9.82131L112.1 11.5088L112.243 12.592L110.908 13.8006L107.572 15.2943L106.905 16.4345L107.167 17.2326L108.263 18.0763L111.564 18.9543L112.993 20.5392L113.684 20.6988L115.019 20.0375L121.297 20.7786L121.714 22.2039L121.285 24.8947L109.931 23.5835L107.322 22.8196L93.0253 20.7216L82.7911 20.1971L70.9843 21.2689L52.9822 21.4513L52.3031 21.8048L52.0767 23.3099L51.4453 23.1958L51.7312 23.5835L45.2738 22.6486H38.1254L12.391 23.4809L1.00117 24.7237L0.572266 21.1777L1.44199 17.8027Z" fill="#64CCFF" stroke="#00344D" stroke-width="1.04942" stroke-miterlimit="10"/>
<path d="M61.0161 13.6406V8.2981H61.663V13.0667H64.1465V13.6406H61.0161ZM65.7045 13.6406H65.0262L66.9879 8.2981H67.6558L69.6175 13.6406H68.9392L67.3427 9.14331H67.301L65.7045 13.6406ZM65.9549 11.5537H68.6888V12.1276H65.9549V11.5537ZM73.8507 9.96764C73.7933 9.79199 73.7176 9.6346 73.6237 9.49547C73.5315 9.35461 73.4211 9.23461 73.2924 9.13548C73.1655 9.03635 73.0211 8.9607 72.8594 8.90853C72.6976 8.85635 72.5202 8.83027 72.3272 8.83027C72.0107 8.83027 71.7229 8.91201 71.4637 9.07548C71.2046 9.23896 70.9985 9.47982 70.8455 9.79808C70.6925 10.1163 70.6159 10.5068 70.6159 10.9694C70.6159 11.432 70.6933 11.8224 70.8481 12.1406C71.0029 12.4589 71.2124 12.6998 71.4768 12.8632C71.7411 13.0267 72.0385 13.1085 72.3689 13.1085C72.675 13.1085 72.9446 13.0432 73.1776 12.9128C73.4124 12.7806 73.595 12.5946 73.7254 12.3546C73.8576 12.1128 73.9237 11.8285 73.9237 11.5015L74.122 11.5433H72.515V10.9694H74.5498V11.5433C74.5498 11.9833 74.4559 12.3659 74.268 12.6911C74.082 13.0163 73.8246 13.2685 73.4959 13.4476C73.1689 13.625 72.7933 13.7137 72.3689 13.7137C71.8959 13.7137 71.4803 13.6024 71.122 13.3798C70.7655 13.1572 70.4872 12.8406 70.2872 12.4302C70.089 12.0198 69.9899 11.5328 69.9899 10.9694C69.9899 10.5468 70.0464 10.1668 70.1594 9.82938C70.2742 9.49026 70.4359 9.20157 70.6446 8.96331C70.8533 8.72505 71.1003 8.54245 71.3855 8.41549C71.6707 8.28854 71.9846 8.22506 72.3272 8.22506C72.6089 8.22506 72.8715 8.26767 73.115 8.35288C73.3602 8.43636 73.5785 8.55549 73.7698 8.71027C73.9628 8.86331 74.1237 9.04679 74.2524 9.2607C74.3811 9.47287 74.4698 9.70851 74.5185 9.96764H73.8507ZM80.1656 10.9694C80.1656 11.5328 80.0638 12.0198 79.8603 12.4302C79.6569 12.8406 79.3777 13.1572 79.023 13.3798C78.6682 13.6024 78.263 13.7137 77.8073 13.7137C77.3517 13.7137 76.9465 13.6024 76.5917 13.3798C76.2369 13.1572 75.9578 12.8406 75.7543 12.4302C75.5509 12.0198 75.4491 11.5328 75.4491 10.9694C75.4491 10.4059 75.5509 9.91895 75.7543 9.50852C75.9578 9.09809 76.2369 8.78157 76.5917 8.55897C76.9465 8.33636 77.3517 8.22506 77.8073 8.22506C78.263 8.22506 78.6682 8.33636 79.023 8.55897C79.3777 8.78157 79.6569 9.09809 79.8603 9.50852C80.0638 9.91895 80.1656 10.4059 80.1656 10.9694ZM79.5395 10.9694C79.5395 10.5068 79.4621 10.1163 79.3073 9.79808C79.1543 9.47982 78.9464 9.23896 78.6838 9.07548C78.423 8.91201 78.1308 8.83027 77.8073 8.83027C77.4839 8.83027 77.1908 8.91201 76.9282 9.07548C76.6674 9.23896 76.4595 9.47982 76.3048 9.79808C76.1517 10.1163 76.0752 10.5068 76.0752 10.9694C76.0752 11.432 76.1517 11.8224 76.3048 12.1406C76.4595 12.4589 76.6674 12.6998 76.9282 12.8632C77.1908 13.0267 77.4839 13.1085 77.8073 13.1085C78.1308 13.1085 78.423 13.0267 78.6838 12.8632C78.9464 12.6998 79.1543 12.4589 79.3073 12.1406C79.4621 11.8224 79.5395 11.432 79.5395 10.9694ZM84.1751 9.63373C84.1438 9.36939 84.0168 9.16418 83.7942 9.01809C83.5716 8.87201 83.2986 8.79896 82.9751 8.79896C82.7386 8.79896 82.5316 8.83722 82.3542 8.91374C82.1786 8.99027 82.0412 9.09548 81.9421 9.22939C81.8447 9.3633 81.796 9.51547 81.796 9.68591C81.796 9.82851 81.8299 9.95112 81.8977 10.0537C81.9673 10.1546 82.056 10.2389 82.1638 10.3068C82.2716 10.3729 82.3847 10.4276 82.5029 10.4711C82.6212 10.5128 82.7299 10.5468 82.829 10.5728L83.3716 10.7189C83.5107 10.7555 83.6655 10.8059 83.8359 10.8702C84.0081 10.9346 84.1725 11.0224 84.329 11.1337C84.4872 11.2433 84.6177 11.3841 84.7203 11.5563C84.8229 11.7285 84.8742 11.9398 84.8742 12.1902C84.8742 12.4789 84.7985 12.7398 84.6472 12.9728C84.4977 13.2058 84.2785 13.3911 83.9898 13.5285C83.7029 13.6658 83.3542 13.7345 82.9438 13.7345C82.5612 13.7345 82.2299 13.6728 81.9499 13.5493C81.6716 13.4258 81.4525 13.2537 81.2925 13.0328C81.1342 12.8119 81.0447 12.5554 81.0238 12.2633H81.6916C81.709 12.465 81.7768 12.6319 81.8951 12.7641C82.0151 12.8946 82.1664 12.9919 82.349 13.0563C82.5333 13.1189 82.7316 13.1502 82.9438 13.1502C83.1907 13.1502 83.4125 13.1102 83.609 13.0302C83.8055 12.9485 83.9612 12.8354 84.0759 12.6911C84.1907 12.545 84.2481 12.3746 84.2481 12.1798C84.2481 12.0024 84.1985 11.858 84.0994 11.7467C84.0003 11.6354 83.8698 11.545 83.7081 11.4754C83.5464 11.4059 83.3716 11.345 83.1838 11.2928L82.5264 11.105C82.109 10.985 81.7786 10.8137 81.5351 10.5911C81.2916 10.3685 81.1699 10.0772 81.1699 9.71721C81.1699 9.41808 81.2508 9.15722 81.4125 8.93461C81.576 8.71027 81.7951 8.53636 82.0699 8.41288C82.3464 8.28767 82.6551 8.22506 82.9959 8.22506C83.3403 8.22506 83.6464 8.2868 83.9142 8.41027C84.182 8.53201 84.3942 8.69897 84.5507 8.91114C84.709 9.12331 84.7924 9.36417 84.8011 9.63373H84.1751Z" fill="#00344D"/>
</svg>
