<svg width="199" height="116" viewBox="0 0 199 116" fill="none" xmlns="http://www.w3.org/2000/svg">
<path d="M51.4259 4.92209L53.0224 3.78189L53.916 3.9073L54.6308 6.05088L55.4648 6.95164L57.2519 6.2561L58.3599 6.41575L61.2669 8.45668L62.8634 8.17163L64.9483 9.38024H66.2589L69.011 6.98585L70.131 4.08973L72.0968 1.67251L73.2882 1.27344L74.5987 1.7181L78.0895 4.76245L78.4708 8.46809L83.4985 11.2502L84.6899 13.0859L84.6304 24.1458L85.1069 25.6395L86.7034 26.7797L88.0735 26.5403L90.8733 24.7159L95.8296 19.3L96.8899 17.1336L98.4268 15.9934L100.011 16.2443L101.799 17.6695L106.338 17.9432L112.7 24.6817L113.415 26.8481L116.357 26.9963L118.276 26.5174L119.253 25.6965L123.196 19.5394L126.353 13.1429L127.652 12.493L129.665 14.3743L132.549 14.4998L135.027 15.4689L135.777 20.577L138.077 24.4651L140.65 25.6053L146.989 26.2438H151.397L154.697 24.7045L155.888 25.343L158.271 27.8629L157.33 31.2037L154.113 35.7645L151.599 38.0449L149.919 38.2729L148.18 39.4131L146.5 42.6513L144.653 44.2019L144.272 46.7674L145.035 48.7285L147.525 51.4992L147.906 52.9131L147.548 59.0816L149.264 61.4418L155.4 64.5317L159.76 66.014L169.518 65.8429L181.146 62.6618L193.489 67.5989L196.491 69.9591L198.231 73.0148L195.157 77.2107L191.893 78.1457L186.519 77.0625L186.126 76.595L184.315 76.8573L183.124 75.6373L181.063 74.6111H178.787L177.262 75.5916L175.678 78.0317L174.808 81.2926L176.845 82.8433L179.228 85.7052L179.645 88.989L179.002 89.7301L180.193 92.7859L180.062 94.1427L166.754 102.364L165.312 103.948L151.266 93.7664V94.5646L146.5 94.8154L140.686 94.3479L132.513 92.5806L120.492 88.3391L117.299 87.8374L114.213 88.0426L112.569 88.3619L107.863 90.8703L106.385 92.478L105.194 95.739L105.289 98.6123L110.889 111.884L110.782 113.435L109.424 114.689L103.073 112.146L99.1179 108.954L97.8431 109.114L91.5882 107.973L85.7384 104.781L75.3613 100.733L65.2224 99.3078L54.3449 96.4801L45.1711 95.8302L40.9058 95.0549L32.4826 95.853L17.7092 99.6955L6.67677 104.336L1.60137 107.7L0.779297 107.061L0.981815 102.797L1.99452 100.38L3.9127 98.4755V93.1279L5.30662 87.7576L4.66329 80.7225L2.05411 77.6896L1.07715 75.7627V74.7821L2.93574 71.715L3.65059 68.7048L16.9109 66.7095L20.3779 65.3413L25.8941 64.1327L34.2339 59.9823L38.7374 54.7146L39.9288 52.8447L41.2156 48.968L42.1568 48.5575L43.9677 39.4929L46.3505 33.4841L47.0058 25.5027L46.422 23.0284L46.5173 16.6205L49.0312 9.18643L49.6626 8.49089L50.854 8.4111L51.3545 7.70415L51.4259 4.92209Z" fill="#64CCFF" stroke="#00344D" stroke-width="1.04942" stroke-miterlimit="10"/>
<path d="M63.6091 60.2858V67.918H62.7147L58.5558 61.9255H58.4812V67.918H57.557V60.2858H58.4514L62.6253 66.2932H62.6998V60.2858H63.6091ZM65.7715 67.918H64.8026L67.605 60.2858H68.559L71.3615 67.918H70.3925L68.1118 61.4932H68.0522L65.7715 67.918ZM66.1292 64.9367H70.0348V65.7565H66.1292V64.9367ZM76.7241 62.1938C76.6794 61.8162 76.498 61.523 76.18 61.3143C75.862 61.1057 75.4719 61.0013 75.0098 61.0013C74.672 61.0013 74.3763 61.056 74.1229 61.1653C73.872 61.2746 73.6757 61.4249 73.5341 61.6162C73.395 61.8075 73.3254 62.0249 73.3254 62.2684C73.3254 62.4721 73.3738 62.6472 73.4707 62.7938C73.5701 62.9379 73.6968 63.0584 73.8509 63.1553C74.0049 63.2497 74.1664 63.328 74.3353 63.3901C74.5043 63.4497 74.6595 63.4982 74.8012 63.5354L75.5763 63.7441C75.7751 63.7963 75.9962 63.8683 76.2396 63.9603C76.4856 64.0522 76.7204 64.1777 76.944 64.3367C77.1701 64.4932 77.3564 64.6944 77.503 64.9404C77.6496 65.1863 77.7228 65.4882 77.7228 65.846C77.7228 66.2584 77.6148 66.631 77.3986 66.9639C77.185 67.2969 76.8719 67.5615 76.4595 67.7577C76.0496 67.954 75.5515 68.0521 74.9651 68.0521C74.4186 68.0521 73.9453 67.9639 73.5453 67.7875C73.1478 67.6111 72.8347 67.3652 72.6062 67.0497C72.3801 66.7341 72.2521 66.3677 72.2223 65.9503H73.1763C73.2012 66.2385 73.2981 66.477 73.467 66.6658C73.6384 66.8521 73.8546 66.9913 74.1155 67.0832C74.3788 67.1726 74.662 67.2174 74.9651 67.2174C75.3179 67.2174 75.6347 67.1602 75.9154 67.0459C76.1962 66.9292 76.4185 66.7677 76.5825 66.5615C76.7465 66.3528 76.8284 66.1093 76.8284 65.831C76.8284 65.5776 76.7576 65.3714 76.616 65.2124C76.4744 65.0534 76.2881 64.9242 76.057 64.8249C75.826 64.7255 75.5763 64.6385 75.308 64.564L74.3689 64.2957C73.7726 64.1242 73.3006 63.8795 72.9527 63.5615C72.6049 63.2435 72.431 62.8274 72.431 62.3131C72.431 61.8858 72.5465 61.5131 72.7776 61.1951C73.0111 60.8746 73.3242 60.6262 73.7167 60.4498C74.1117 60.2709 74.5527 60.1814 75.0397 60.1814C75.5316 60.1814 75.9688 60.2696 76.3514 60.446C76.734 60.6199 77.0371 60.8585 77.2607 61.1616C77.4868 61.4647 77.6061 61.8088 77.6185 62.1938H76.7241ZM79.5554 67.918H78.5865L81.3889 60.2858H82.343L85.1454 67.918H84.1765L81.8958 61.4932H81.8361L79.5554 67.918ZM79.9132 64.9367H83.8187V65.7565H79.9132V64.9367ZM86.3342 67.918V60.2858H88.913C89.5093 60.2858 89.9987 60.3877 90.3813 60.5914C90.7639 60.7926 91.0472 61.0696 91.231 61.4224C91.4149 61.7752 91.5068 62.1764 91.5068 62.6261C91.5068 63.0758 91.4149 63.4746 91.231 63.8224C91.0472 64.1702 90.7652 64.4435 90.3851 64.6422C90.0049 64.8385 89.5192 64.9367 88.9279 64.9367H86.841V64.1019H88.8981C89.3056 64.1019 89.6335 64.0423 89.882 63.923C90.1329 63.8037 90.3143 63.6348 90.4261 63.4162C90.5403 63.1951 90.5975 62.9317 90.5975 62.6261C90.5975 62.3205 90.5403 62.0535 90.4261 61.8249C90.3118 61.5963 90.1292 61.4199 89.8782 61.2957C89.6273 61.169 89.2956 61.1057 88.8832 61.1057H87.2584V67.918H86.3342ZM89.9267 64.4895L91.8049 67.918H90.7316L88.8832 64.4895H89.9267ZM93.3599 67.918H92.3909L95.1934 60.2858H96.1474L98.9498 67.918H97.9809L95.7002 61.4932H95.6406L93.3599 67.918ZM93.7176 64.9367H97.6231V65.7565H93.7176V64.9367ZM100.931 67.918L98.8436 60.2858H99.7827L101.378 66.5018H101.452L103.077 60.2858H104.121L105.745 66.5018H105.82L107.415 60.2858H108.354L106.267 67.918H105.313L103.629 61.8361H103.569L101.885 67.918H100.931ZM109.224 67.918H108.255L111.058 60.2858H112.012L114.814 67.918H113.845L111.565 61.4932H111.505L109.224 67.918ZM109.582 64.9367H113.487V65.7565H109.582V64.9367Z" fill="#00344D"/>
</svg>
