<svg width="227" height="266" viewBox="0 0 227 266" fill="none" xmlns="http://www.w3.org/2000/svg">
<path d="M128.268 0.748047L129.102 7.19018L128.113 10.6108L132.271 17.7484L132.033 20.6217L131.485 21.1804L131.818 18.7062L130.627 20.2227L130.317 22.4118L133.153 25.3193L136.084 26.0149L135.309 26.7788L135.643 27.3945L136.572 27.6111L141.886 36.1968L145.257 39.7087L146.449 39.9595L148.498 41.0997L150.44 42.4679L155.051 43.3231L155.361 44.3037H154.67L154.002 45.5579L153.764 44.4177L152.978 45.079H152.096L153.812 46.9033L154.133 48.9101L158.816 47.4962L161.568 44.5203L164.511 42.2399L166.417 41.476L165.13 43.4827L165.309 43.9958L166.083 43.7792L166.762 46.4472L166.369 46.6981L165.571 45.1246L164.558 45.6719L163.879 47.0287L161.496 47.6787L162.295 49.8222L160.877 51.1107L158.637 55.3636L159.125 56.2416L160.758 55.7285L160.674 58.5106L159.983 59.8218H160.996L160.591 61.3725L159.221 63.1284L159.697 63.7783L161.568 63.288L161.913 63.9151L158.78 65.5L161.163 66.0701L160.984 67.0849H162.414L161.52 68.054L159.947 68.4303L160.09 68.9092L161.568 68.6469L161.711 69.3311L161.139 69.8327L160.865 69.4109L159.673 69.6731L159.959 70.5283L160.841 70.3914L159.828 72.2956L161.627 72.535L161.889 74.0629L161.21 74.9066L161.52 76.3319L162.712 76.5827L163.343 77.9624L163.057 79.2736L165.44 79.9007L165.845 81.5654L166.572 82.1583L168.49 81.0751L169.038 81.3031L169.884 83.4809L171.337 84.2905L171.707 85.5219L174.28 86.3998V87.6541L175.078 88.7943L174.638 90.1511L175.483 90.8808L176.806 91.5079L178.486 90.9378L180.869 91.2343L180.547 92.3745L181.536 92.4429L182 91.6562L184.157 91.5763L185.908 90.6528L188.839 90.5616L189.042 91.9526L190.316 92.0552L190.173 93.0928L188.684 93.4577L188.946 94.062L188.493 94.7917L189.685 95.111L192.366 98.0869L196.44 97.4826H197.632L198.144 98.4061L200.193 97.4142L203.684 98.4061L207.854 98.0071L208.664 98.3605L209.677 98.4974L211.595 98.885L212.536 100.253L214.049 100.641L214.454 101.633H213.656L213.751 102.91L216.337 104.05L217.171 105.612L216.313 107.197L219.887 108.075L220.793 109.785L220.149 110.31L221.495 110.926L222.425 111.062L222.568 110.504L223.759 110.412L224.367 109.831L225.951 112.693L224.319 114.164L223.938 116.216L223.056 117.208L223.866 119.488L221.817 120.811L221.746 122.601L224.367 126.911L222.925 128.895L223.199 130.434L220.435 133.593V135.303L220.781 139.624L219.947 141.027L216.599 143.478L216.527 144.105L218.028 146.066L220.411 147.355L222.985 149.841L223.509 152.303L222.77 157.64L221.269 158.7L213.692 161.63L209.069 162.656L206.77 166.305L197.238 169.919L193.331 172.28L191.031 175.301L185.658 177.479H182.894L179.653 174.777L176.651 174.275L175.376 173.329L174.101 173.511L173.375 174.378L172.684 177.023L170.205 179.759L169.276 182.815L168.418 183.955L166.679 185.096L166.965 186.794L166.19 187.034L164.904 188.949L162.14 191.23L160.698 194.548L156.838 196.383L153.955 196.999L153.037 197.854L152.811 199.838L146.115 201.822L141.516 202.153L137.049 200.853L136.31 200.009L132.629 200.5L132.295 209.621L131.246 214.296L129.793 218.526L126.564 225.002L124.801 233.85L123.443 235.241H118.213L115.377 234.101L112.482 232.79L109.074 229.255L106.001 227.488L102.581 226.348L92.4306 225.447L89.4401 227.123L86.9381 229.586L84.2933 233.805L81.4934 235.105L77.538 235.264L76.561 238.297L73.654 241.285L66.6247 243.816L59.1308 244.374L56.1403 245.366L48.7536 253.416L44.3097 259.744L42.3558 261.854L40.2827 263.074L34.838 264.579L31.6212 264.795L24.0677 263.655L19.4093 261.147L17.2529 259.322L13.5238 252.287L6.78045 249.619L4.60015 247.544L1.65742 243.611L0.692383 240.384L6.86385 231.764L7.60252 228.343L5.99408 224.581L9.56829 223.794L13.631 218.629L13.2974 209.062L14.0241 205.904L16.0734 202.677L19.2425 200.488L32.5982 197.068L39.8776 192.906L42.3677 189.394L42.6536 186.042L41.7482 181.31V177.889L42.8204 174.628L46.2636 170.809L50.1952 164.082L55.6042 159.031L56.7956 156.625L55.7949 152.828L52.0658 148.552L46.2159 148.792L45.4534 148.381L45.2747 146.169L50.8981 135.748L48.8847 127.265L49.0395 123.274L52.0658 104.7L52.1253 98.0983L50.0761 93.7313L50.7314 91.2229L59.1427 84.0282L61.9663 80.5164L64.1585 75.7162L63.5866 71.4518L57.844 67.0507L56.1165 64.9755L54.6511 60.5857L56.4263 51.4641L56.5216 46.6639L58.2492 46.5271L63.4674 47.5304V46.1736L64.1704 45.7061L64.2538 44.8624L64.4802 42.9126L66.2434 41.3962L67.6017 41.6698L69.21 40.8375L68.8526 39.5148L69.7581 38.2606L69.4841 37.8958L68.4237 37.6791L68.9003 36.3907L69.8177 34.8742L70.7708 32.8447L71.5333 32.1605L74.2497 32.5596L75.8939 31.5676L77.0853 31.6703L77.812 32.514L79.0034 31.2484L79.2774 29.6065L80.8739 29.3443L82.6253 29.0136L82.9708 28.4891L82.5657 28.033L83.7571 26.699L86.271 26.1517L87.0096 24.7378L88.6418 23.8485L88.8325 22.9477L89.5235 22.104L90.0001 21.2602V20.2797L91.3106 19.7894L91.8229 18.6492L90.8579 18.2957L91.537 17.6002L93.0024 18.3185L92.6569 16.5284L93.9675 16.6652L94.0389 17.2011L95.0516 17.5318L96.3622 17.3722L98.5901 15.468L99.7815 15.0462L100.163 15.4794L102.546 15.3654L104.202 13.8489L105.393 14.4076L105.453 13.1762L106.739 12.7658L107.931 12.8684L106.692 14.1796L108.443 15.0804L109.539 13.5867L111.147 14.7269L110.909 13.2332L112.673 12.6517L112.303 15.0233L113.399 15.1602L113.935 14.02L115.305 13.7349L116.402 15.3198L117.593 12.4351L119.571 11.4773V10.9756L118.915 10.759L119.142 9.94946L120.56 10.1775L121.322 9.26534L120.56 9.0715L120.083 7.9313L122.085 6.10699L122.013 5.44567L123.788 4.68174V3.62135L124.98 2.41274L126.457 2.13909L126.922 0.930479L128.268 0.748047Z" fill="#0AA83F" stroke="#00344D" stroke-width="1.04942" stroke-miterlimit="10"/>
</svg>
