<svg width="125" height="147" viewBox="0 0 125 147" fill="none" xmlns="http://www.w3.org/2000/svg">
<path d="M44.8802 1.11594L49.0621 8.27639L49.1812 10.5568L50.456 11.8338L52.6839 7.7177L53.4226 4.75318L55.4837 3.21391L60.2493 1.01333L64.741 0.614258L74.0101 2.89466L74.5462 9.64464L75.8925 11.2181L80.4317 13.6353L81.7423 17.1472L81.0632 19.4276L82.2546 21.0124L83.2435 21.4913L89.7247 22.1298L91.9288 22.7683L93.0249 23.6919L93.978 27.0441L93.8827 33.4406L92.4888 35.0483L91.8573 37.0094L93.8232 37.8304V38.9706L96.0868 37.6137L99.8397 37.3287L100.519 38.9706V41.8895L102.151 42.1745L104.319 41.9693L107.083 40.3502L108.835 38.3549L110.324 37.7505L113.04 45.9372L113.267 48.7421L112.004 50.8401L111.778 53.1205L107.774 58.468L107.179 60.851L107.417 63.1314L113.446 62.9604L114.744 64.1006L115.34 66.381L117.103 69.5165L120.475 72.5266L122.965 73.1309L124.025 74.4422L115.542 82.2867L114.256 86.5283L114.351 89.0823L107.774 91.5566L106.416 91.454L105.058 90.2339L103.045 90.576L100.09 92.3661L99.2917 93.6203L93.6444 98.375L90.4872 103.061L87.2228 106.721L84.84 107.303L81.6231 107.12L80.4317 107.611L78.5255 112.821L77.9894 116.812L78.4659 124.668L79.0021 126.948L83.6009 131.885L84.5183 133.79L84.6136 136.07L83.029 140.46L79.9433 145.123L78.7519 145.762L77.5009 146.092L73.9267 145.363L72.0204 144.165L69.6376 141.03L61.2978 139.89L60.0349 138.67L59.32 136.298L59.9753 135.397L64.2048 134.257L65.0626 133.003L65.3009 131.03L63.8712 124.132L65.0626 118.534L66.254 115.752L65.7655 111.442L61.4884 104.122L55.0786 99.0705L52.1597 98.3978H48.8476L47.0248 97.7707L42.8429 93.0616L38.3752 91.6592L34.1695 89.5726L32.9781 88.2272L32.3467 85.2969L34.8605 80.7361L34.4793 79.3108L33.1211 78.3759L31.6675 78.1592L26.7709 79.5161H24.7812L19.0625 82.7542L14.0586 87.1554L11.1515 87.9193H7.47011L3.18105 84.8636L1.8586 82.2867L0.953125 78.1478L2.76405 75.1035L2.84745 72.5836L5.01582 70.7251L9.48359 69.5849L12.4025 67.6466L15.6312 67.5668L16.8226 66.9055L13.0816 58.0119L13.8799 53.3827L11.3898 48.1606L12.4144 40.9431L11.5805 26.8959L11.9021 23.6007L14.4994 21.001L19.5629 18.2987L28.6652 15.5851L33.0496 13.3845L33.9789 12.4153L35.3252 7.40985L37.8748 2.15353L39.3997 1.56062L44.8802 1.11594Z" fill="#64CCFF" stroke="#00344D" stroke-width="1.04942" stroke-miterlimit="10"/>
</svg>
