<svg width="157" height="162" viewBox="0 0 157 162" fill="none" xmlns="http://www.w3.org/2000/svg">
<path d="M74.7974 1.21521L85.7106 2.75449L91.9298 4.32796L96.195 6.53995L99.6739 9.39045L102.926 10.2228L114.709 21.2143L118.629 20.2109L122.108 20.6442L125.682 22.4115L128.411 24.4069L130.615 26.8127L131.806 29.5948L135.38 31.1569L141.647 32.6049L156.075 37.0745V38.0551L153.692 39.0584L153.001 39.9136L151.81 42.9123L147.926 45.854L142.981 47.8608L138.597 48.4879L136.822 47.6898L136.059 45.911L132.938 47.6327L130.555 47.0398L127.386 45.1357L126.576 44.0639L124.908 38.7392L123.514 37.3367L112.529 38.2261L106.131 37.0859L93.7526 38.6594L93.2046 39.0014V42.0686L92.311 45.9452L92.3944 50.335L93.0974 51.156L96.5048 52.2163L102.39 52.3532L103.379 53.1513L104.857 56.1386L99.3403 56.5491L97.8153 57.142L95.2657 62.3983L93.9194 67.4038L92.9901 68.373L88.6057 70.5736L79.5034 73.2872L74.44 75.9895L71.8427 78.5892L71.521 81.8843L72.355 95.9316L71.3304 103.149L73.8204 108.371L73.0222 113L76.7632 121.894L75.5718 122.555L72.3431 122.635L69.4241 124.573L64.9564 125.714L62.788 127.572L62.7046 130.092L60.9533 133.148L61.8825 137.264L63.205 139.841L67.4941 142.896L66.3026 144.151L65.3019 146.488L58.6062 149.042L56.7357 148.153L55.5443 146.351L53.1615 144.379L45.0837 141.768L43.4277 142.087L39.782 145.04L38.3523 148.461V150.045L37.6613 150.661L35.9933 150.764L32.6931 149.51L30.3699 149.384L26.2595 150.627L26.4025 152.907L28.5589 156.738L26.9148 158.916L23.7099 160.649L21.6369 160.398L16.5734 155.507L9.00799 153.306L9.47265 151.801L12.9158 148.734L13.1898 147.514L12.2486 145.53L10.6283 144.504L8.31699 144.709L3.06289 143.706V141.049L4.55215 134.094L3.47989 129.887L1.2043 127.72L1.01367 126.5L1.54982 122.213L3.40841 117.493L4.18281 112.932L5.96992 111.974L13.8451 111.826L15.3701 112.818L21.1841 108.257L21.8394 104.609L25.8187 105.532L28.0705 103.685L27.4748 101.405L26.0927 99.7741L22.8998 97.163L19.8855 95.8404L18.4201 94.609L20.5884 90.47L21.8871 84.5866L20.7553 81.7703L20.9101 79.8548L20.0881 76.4342L17.1096 70.5051L17.5861 66.4346L16.0254 62.6834L15.5607 57.2674L14.3693 51.3726L14.4527 44.5314L13.2613 37.4964L14.9889 25.0568L20.7791 23.2667L27.0697 17.1552L37.4349 18.0446L41.7001 17.2008L69.579 1.1126L71.104 0.736328L74.7974 1.21521Z" fill="#64CCFF" stroke="#00344D" stroke-width="1.04942" stroke-miterlimit="10"/>
</svg>
