<svg width="198" height="171" viewBox="0 0 198 171" fill="none" xmlns="http://www.w3.org/2000/svg">
<path d="M105.962 1.41113L121.307 7.88747L145.767 16.1539L150.532 18.8334L156.061 17.1687H160.409L170.584 21.8663L189.503 39.6078L196.652 51.4887L193.078 54.4532L184.619 59.014L173.288 57.5546L171.025 56.802L168.999 54.5216L166.259 53.6551L160.302 53.4384L159.599 59.6867L158.729 61.8417L158.134 62.0926L154.917 60.4507H151.605L145.826 62.2294L143.313 64.3045L143.181 65.1027L144.111 70.9633L144.194 80.5866L142.586 81.7268L137.82 83.5967L125.906 84.4975L118.603 85.5807L111.657 95.3636L109.417 97.4958L105.759 99.6735L105.831 102.957L107.535 108.248L108.309 113.094L107.427 116.514L104.497 118.453L97.2171 119.057L95.6921 118.726L89.9733 119.456L86.828 119.103L81.5025 119.479L70.3866 117.575L69.2906 118.259L68.1825 123.401L68.3017 144.164L67.5154 159.876L65.5853 161.016L64.4654 160.936L63.548 158.941L61.1652 159.762L58.9134 158.781L56.9 158.918L42.6031 165.132L39.7437 168.553L37.5873 170.069L34.2752 169.739L33.3697 169.157L30.4388 164.996L31.8209 159.557L34.9304 153.138L37.4562 141.975L36.515 127.095L36.6818 115.762L37.8732 111.452L39.3982 109.764L44.1638 108.419H47.3568L51.1335 110.699H52.3249L53.0874 108.921L53.3734 99.799L51.3718 93.5051V91.2247L52.9206 84.315L53.1351 80.5296L50.9906 75.6495L48.7746 73.1981L49.2749 68.9794L50.9667 65.5588L50.6927 62.7767L52.6228 58.2957L52.1462 56.8704L50.8595 55.8671L49.4775 56.2205L46.5109 60.4279L45.7603 61.0664L43.5919 61.5567L39.9701 60.7585L36.4554 58.3983L25.0775 54.7953L23.8146 53.5411L20.014 51.4659L18.0482 49.0943L17.1428 48.7408L11.6266 50.5423L9.41055 49.6986L1.52344 49.8582L1.63068 31.1133H6.56309L26.2928 14.4892L56.2208 8.78823L59.0921 11.2283L65.895 11.7755L73.5796 10.9546L79.3579 11.5931L85.7081 11.4107L91.963 4.27303" fill="#64CCFF"/>
<path d="M105.962 1.41113L121.307 7.88747L145.767 16.1539L150.532 18.8334L156.061 17.1687H160.409L170.584 21.8663L189.503 39.6078L196.652 51.4887L193.078 54.4532L184.619 59.014L173.288 57.5546L171.025 56.802L168.999 54.5216L166.259 53.6551L160.302 53.4384L159.599 59.6867L158.729 61.8417L158.134 62.0926L154.917 60.4507H151.605L145.826 62.2294L143.313 64.3045L143.181 65.1027L144.111 70.9633L144.194 80.5866L142.586 81.7268L137.82 83.5967L125.906 84.4975L118.603 85.5807L111.657 95.3636L109.417 97.4958L105.759 99.6735L105.831 102.957L107.535 108.248L108.309 113.094L107.427 116.514L104.497 118.453L97.2171 119.057L95.6921 118.726L89.9733 119.456L86.828 119.103L81.5025 119.479L70.3866 117.575L69.2906 118.259L68.1825 123.401L68.3017 144.164L67.5154 159.876L65.5853 161.016L64.4654 160.936L63.548 158.941L61.1652 159.762L58.9134 158.781L56.9 158.918L42.6031 165.132L39.7437 168.553L37.5873 170.069L34.2752 169.739L33.3697 169.157L30.4388 164.996L31.8209 159.557L34.9304 153.138L37.4562 141.975L36.515 127.095L36.6818 115.762L37.8732 111.452L39.3982 109.764L44.1638 108.419H47.3568L51.1335 110.699H52.3249L53.0874 108.921L53.3734 99.799L51.3718 93.5051V91.2247L52.9206 84.315L53.1351 80.5296L50.9906 75.6495L48.7746 73.1981L49.2749 68.9794L50.9667 65.5588L50.6927 62.7767L52.6228 58.2957L52.1462 56.8704L50.8595 55.8671L49.4775 56.2205L46.5109 60.4279L45.7603 61.0664L43.5919 61.5567L39.9701 60.7585L36.4554 58.3983L25.0775 54.7953L23.8146 53.5411L20.014 51.4659L18.0482 49.0943L17.1428 48.7408L11.6266 50.5423L9.41055 49.6986L1.52344 49.8582L1.63068 31.1133H6.56309L26.2928 14.4892L56.2208 8.78823L59.0921 11.2283L65.895 11.7755L73.5796 10.9546L79.3579 11.5931L85.7081 11.4107L91.963 4.27303" stroke="#00344D" stroke-width="1.04942" stroke-miterlimit="10"/>
</svg>
