<svg width="210" height="202" viewBox="0 0 210 202" fill="none" xmlns="http://www.w3.org/2000/svg">
<path d="M111.558 1.14844L126.391 1.36507L137.781 2.73331L150.6 7.53355L164.528 10.4411L167.78 12.0944L175.036 17.9892L180.731 21.4098L182.613 21.5694L182.971 20.6344L184.162 20.3152L186.128 21.0563L186.867 20.4634L186.164 19.1522L187.939 19.3346L189.964 20.4064L191.942 19.9275L192.931 20.7371L193.681 21.9571L194.873 21.2502L198.268 21.9457L199.15 22.5158L200.258 22.6526H201.449L201.354 27.4528L199.579 36.5744L201.044 40.9642L202.843 43.0508L208.562 47.4291L209.134 51.6935L206.942 56.4937L204.13 59.9827L195.695 67.2002L195.04 69.7086L197.089 74.0756L197.029 80.6774L194.003 99.2512L193.848 103.242L195.862 111.725L190.238 122.146L190.417 124.358L191.18 124.769L197.029 124.529L200.758 128.805L201.759 132.602L200.568 135.008L195.159 140.059L191.227 146.786L187.784 150.606L186.712 153.867V157.287L187.617 162.019L187.331 165.371L184.972 168.849L177.693 173.011L164.337 176.431L161.144 178.643L159.095 181.87L158.368 185.028L158.702 194.595L154.639 199.76L151.065 200.547H142.916L142.558 199.965L141.641 192.611L143.071 179.099L142.272 173.547L137.888 169.693L136.006 170.833L137.197 169.077L133.122 164.995L127.463 157.698L117.348 150.56L114.751 149.089L111.177 147.949L106.411 147.755L101.443 149.477L100.359 150.48L96.7844 150.059L94.8424 148.314L96.0339 140.583L97.2849 137.482L97.5589 131.872L87.6107 108.031L87.3724 103.618L86.181 100.528L85.7878 97.4497L85.5376 89.7647L81.7728 84.4514L81.9991 82.3877L81.0817 74.315L79.7235 70.9743L70.5021 63.9164L69.4655 60.6099L67.3449 47.4405L64.7118 43.5639L62.5078 42.5605L60.125 43.256L54.1679 40.7248L47.1625 42.8797L45.8281 43.7007L44.0886 40.816L43.2666 35.8561L40.7289 30.406L38.0959 28.9807L30.5543 31.2611L27.1945 32.8232L23.4297 33.5415L17.0914 36.4946L14.5894 41.0554L10.8484 43.1078L3.70001 42.2754L1.56738 40.93L10.36 32.3785L14.232 27.1336L19.0929 23.1315L25.324 16.4157L30.0896 13.5196L40.8123 8.89039L59.9462 7.8186L74.8983 2.45966L98.2261 1.23965L111.558 1.14844Z" fill="#D62B3C" stroke="#00344D" stroke-width="1.04942" stroke-miterlimit="10"/>
</svg>
