<svg width="280" height="226" viewBox="0 0 280 226" fill="none" xmlns="http://www.w3.org/2000/svg">
<path d="M10.8672 16.4294L11.9275 15.8365L15.3707 16.247L28.4761 23.1794L32.6341 24.7985L34.8502 25.1291L49.3496 24.2055L56.7244 24.616L62.0857 23.6468L65.5884 23.567L71.8314 25.494L81.8392 31.9931L83.7216 31.8791L87.1647 33.0877L87.7724 33.9314L87.5341 38.5493L84.639 50.8064L79.1347 55.8575L74.4644 57.4994L72.7011 58.6396L70.5089 60.92L68.7695 64.637L68.555 71.8431L69.8894 74.591L73.3802 77.6239L73.0347 82.1163L71.8433 85.8561V88.4558L73.5351 89.596L78.6819 90.1205L79.3491 89.5732L79.9448 82.903L88.785 80.0525L92.812 79.7561L95.9573 77.966L98.0661 75.5373L98.3997 73.7928L97.5061 71.0107L95.2901 67.5901L93.1337 65.3097L91.6444 62.083L92.1806 60.5209V49.5864L93.2528 48.7312L95.0995 48.2523L101.057 48.8453L107.371 45.7895L111.898 44.6493L113.09 42.9504L113.173 40.5902L111.779 39.0395L108.515 37.181L107.931 35.5277L108.682 33.8516L111.279 32.1983L111.577 30.9783L110.242 23.4986L109.313 22.6549H107.276L106.084 20.3745L99.6983 19.7702L93.2647 17.2731L88.9399 14.9927L87.9034 13.5561L87.7128 11.8002L89.345 9.43996L95.1233 6.48685L100.401 4.63971L109.778 2.55315L121.525 0.740234H125.862L129.245 1.54978L131.259 3.37409L132.45 10.7968L133.415 12.2334L137.883 15.0497L138.455 17.0793L138.014 22.5637L138.443 27.1245L140.397 28.5497L153.109 27.763L167.525 21.9708L172.207 21.5033L173.732 18.9948L177.807 15.8479L180.011 16.2584L181.631 17.5126L185.587 22.5294L190.114 30.1004L192.008 34.7638L191.925 35.7216L188.351 41.8558L187.874 47.3174L189.59 50.0311L189.757 51.7186L188.875 53.999L189.161 58.3431L186.969 60.3955L186.576 63.0293L186.838 64.5914L190.471 66.8718L191.925 70.8853L193.629 71.5694L195.309 70.5547L201.718 62.5733L208.378 57.4424L211.309 55.7321L213.811 55.0365L217.278 54.8883L218.469 56.0285L219.661 59.0615L228.751 55.8005L233.517 56.439L234.279 55.2988L233.481 52.5737L234.887 51.2055L240.522 51.7756L241.249 52.3571L241.821 54.5463L242.155 59.6772L243.811 59.8368L246.491 59.0728L248.41 59.5745L250.792 63.9073L250.733 66.8376L249.124 71.558L254.879 73.4508L258.727 75.4461L258.358 77.7265L257.166 79.7675L252.115 82.732L251.102 84.4195L249.172 86.335L246.587 87.8857L245.502 89.2995L246.694 91.5799L248.731 93.4727L256.678 96.3118L272.011 96.2205L273.643 96.9845L274.037 98.1247L274.227 103.894L275.323 108.318L275.442 111.841L274.692 113.563L270.844 114.03L269.795 114.509L269.45 115.239L269.652 116.277L270.999 117.155L275.311 118.705L274.323 122.126L277.897 123.973L278.588 126.117L274.906 129.731L274.191 132.912L273.25 133.904L270.331 135.375L269.664 136.435L269.557 139.081L273.596 142.25L271.785 147.073L274.716 146.389L276.181 146.868L265.875 160.938L264.756 161.212L253.807 151.976L251.71 151.258L238.604 151.794L235.411 152.17L235.006 152.603L234.577 168.179L235.471 202.624L234.923 204.186L237.246 209.784L238.938 210.32L241.118 210.081L239.784 213.787L235.53 215.77L235.459 219.191L234.911 219.294L233.719 218.29L233.493 218.587L232.016 221.471L231.277 224.767L230.884 225.166L228.942 224.881L225.701 221.985L219.184 213.695L215.956 210.628L211.536 208.006L208.497 198.599L205.197 193.673L200.992 189.911L197.691 188.109L195.07 187.459L185.229 185.51L176.27 185.863L172.231 186.901L166.369 186.536L164.177 185.852L162.438 185.042L161.33 183.343L155.146 179.159L141.123 170.812L140.361 171.12L135.965 169.307L130.58 168.384L125.814 169.706L123.133 168.92L115.568 160.676L113.876 159.422L106.311 156.001L103.439 156.184L92.5261 160.266H90.1433L87.8915 158.76L87.0099 152.546L85.9376 150.141L84.6628 149.513L81.0886 149.069L77.2642 146.321L76.4779 145.181L76.0609 143.584L76.2872 139.674L75.7749 137.826L74.7741 136.983L65.7552 137.883L64.2064 137.439L63.1579 133.243L63.0865 127.109L63.9562 121.807L63.6345 118.454L62.4431 117.907L60.4177 118.112L57.6894 116.311L51.0056 108.922L48.6228 105.388L31.9431 87.3042L27.5468 86.1526L14.0601 86.5517L7.65039 87.6006L8.23417 84.18L5.85136 83.3819L3.34941 81.1015L1.33594 77.031L5.00547 69.0496L4.83867 67.1227L5.89902 65.8228L8.97285 64.3064L16.2166 67.9436L17.408 64.3862L17.7058 60.9656L21.0656 53.6341L20.2793 46.5649L17.0744 44.3985L13.5002 38.0134L14.9418 32.7684L15.0967 30.488L13.6312 24.73L11.0935 23.7951L11.5939 21.5147L11.2603 19.2913L11.868 17.0679L10.8672 16.4294Z" fill="#64CCFF" stroke="#00344D" stroke-width="1.04942" stroke-miterlimit="10"/>
<path d="M147.754 104.153V111.785H146.859L142.7 105.793H142.626V111.785H141.702V104.153H142.596L146.77 110.16H146.844V104.153H147.754ZM150.527 104.153V111.785H149.603V104.153H150.527ZM157.598 106.538C157.516 106.287 157.408 106.062 157.273 105.864C157.142 105.662 156.984 105.491 156.8 105.349C156.619 105.208 156.412 105.1 156.181 105.025C155.95 104.95 155.697 104.913 155.421 104.913C154.969 104.913 154.558 105.03 154.188 105.264C153.818 105.497 153.523 105.841 153.304 106.296C153.086 106.75 152.977 107.308 152.977 107.969C152.977 108.63 153.087 109.188 153.308 109.642C153.529 110.097 153.829 110.441 154.206 110.675C154.584 110.908 155.009 111.025 155.481 111.025C155.918 111.025 156.303 110.932 156.636 110.745C156.971 110.557 157.232 110.291 157.419 109.948C157.608 109.603 157.702 109.196 157.702 108.729L157.985 108.789H155.69V107.969H158.596V108.789C158.596 109.417 158.462 109.964 158.194 110.429C157.928 110.893 157.56 111.253 157.091 111.509C156.624 111.763 156.087 111.89 155.481 111.89C154.805 111.89 154.211 111.73 153.699 111.412C153.19 111.094 152.793 110.642 152.507 110.056C152.224 109.47 152.082 108.774 152.082 107.969C152.082 107.365 152.163 106.823 152.324 106.341C152.488 105.856 152.719 105.444 153.018 105.103C153.316 104.763 153.668 104.502 154.076 104.321C154.483 104.139 154.932 104.049 155.421 104.049C155.824 104.049 156.199 104.11 156.547 104.231C156.897 104.35 157.209 104.521 157.482 104.742C157.758 104.96 157.988 105.223 158.171 105.528C158.355 105.831 158.482 106.168 158.552 106.538H157.598ZM160.179 111.785V104.153H164.785V104.973H161.103V107.552H164.547V108.372H161.103V110.965H164.845V111.785H160.179ZM166.451 111.785V104.153H169.03C169.626 104.153 170.116 104.255 170.498 104.459C170.881 104.66 171.164 104.937 171.348 105.29C171.532 105.642 171.624 106.044 171.624 106.493C171.624 106.943 171.532 107.342 171.348 107.69C171.164 108.037 170.882 108.311 170.502 108.509C170.122 108.706 169.636 108.804 169.045 108.804H166.958V107.969H169.015C169.423 107.969 169.75 107.909 169.999 107.79C170.25 107.671 170.431 107.502 170.543 107.283C170.657 107.062 170.714 106.799 170.714 106.493C170.714 106.188 170.657 105.921 170.543 105.692C170.429 105.464 170.246 105.287 169.995 105.163C169.744 105.036 169.413 104.973 169 104.973H167.375V111.785H166.451ZM170.044 108.357L171.922 111.785H170.849L169 108.357H170.044Z" fill="#00344D"/>
</svg>
