<svg width="144" height="119" viewBox="0 0 144 119" fill="none" xmlns="http://www.w3.org/2000/svg">
<path d="M1.52168 6.16898L8.6701 1.27752L12.8281 1.03809L15.0918 2.09846L16.5691 4.13943L17.0576 5.76991L17.2363 13.1584L17.9035 15.8493L19.4881 18.3235L20.4888 18.4717L21.6088 12.1322L22.2879 10.707L22.8478 10.1939H24.4801L25.5285 10.8894L26.1718 12.8848L25.9812 16.408L23.9082 23.2492L23.4197 22.9755L22.8121 23.6254L23.4316 27.7986L25.9574 30.6605L29.5912 33.4768L30.7826 36.8974L34.5951 42.0397L38.1693 44.7305L40.9334 46.0418L45.699 46.361L47.772 45.8023L51.0841 41.2415L52.4423 36.4071L54.3724 34.7196L57.47 35.0503L59.6146 39.9873L61.5089 41.2757L62.7003 40.9793L64.0466 39.7137L66.9894 39.0295L74.3761 39.2804L75.77 41.4354L76.1632 47.8889L76.6517 48.6985L80.2259 50.0895L80.9884 51.3437L80.8692 53.8749L82.1798 56.9535L82.6683 60.2259L77.9027 64.7867L77.5095 66.0751L77.9503 66.3943L85.206 66.1093L88.4228 65.448L91.997 65.5962L95.7856 64.1823L97.5847 62.6203L104.602 61.6169L107.866 60.3855L109.534 59.1199L110.654 59.5646L111.274 60.5223L111.977 65.4024H114.36L118.947 63.122L122.985 63.7947L126.56 71.9015L130.205 69.6211H131.516L132.886 70.4078L135.412 69.3589L140.368 69.0624L140.737 69.2106L140.38 70.3508L139.486 76.6219L138.223 80.339L135.424 82.7334L132.969 83.8736L128.645 87.6134L125.07 93.2232V97.1113L127.453 99.3917L133.184 100.315L135.364 100.167L137.056 98.9584L139.022 96.3702L141.119 95.7887L141.893 96.678V101.775L142.906 105.845L142.048 107.909L139.141 108.662L138.223 109.961L136.889 110.737L134.03 110.862L132.457 112.39L133.648 112.88L136.973 112.595L140.904 114.579L141.154 115.811L140.177 117.772L135.412 117.452L129.455 114.898L124.236 113.838L124.665 111.147L124.248 109.722L117.97 108.981L116.635 109.642L115.992 109.539L114.646 108.046L111.345 107.168L110.249 106.324L109.987 105.526L110.654 104.386L113.99 102.892L115.325 101.683L115.182 100.6L113.919 98.9128L109.808 99.3803L105.972 101.843L103.363 100.6V98.9356L102.493 97.5218L102.767 96.45L106.02 93.1662L105.376 92.14L104.102 91.9006L59.3286 91.4559L57.4343 92.6645L58.0419 94.3178L52.5972 94.8651L51.6322 93.2346L50.2025 92.3225L46.1398 90.692L43.9357 90.4069L42.3154 93.2689L42.1248 95.8571L39.6466 97.7384L38.7293 102.242L37.4664 103.382L21.1322 103.599L16.9027 102.995L16.4142 103.12V104.979L12.3396 107.784L9.95682 106.769L5.89413 107.259L4.40488 106.803L4.90527 103.063L6.25155 101.718L7.00214 99.9618L5.40566 95.6974L6.95448 93.2346L9.46835 91.1823L9.70663 88.0581L9.45644 86.9179L6.90683 86.5987L5.97753 86.154L5.48906 85.1734L5.28652 83.0983L6.7162 80.9319L6.38261 79.7575L6.95448 75.8124L6.69237 74.6722L5.14355 74.5126L4.50019 73.817L4.6789 70.5561L6.34687 68.7204L9.95682 66.7136L7.02597 64.1709L6.4541 63.0307L8.68202 60.5223L9.38495 58.3331L8.59862 53.0198L6.77578 51.127L6.6328 40.0785L9.45644 39.9873L10.4334 39.44V38.6191L9.933 34.6284L6.74003 32.348L6.47792 30.3412L5.28652 28.6081L4.92909 23.8193L5.22695 13.5575L4.86952 12.4743L3.89257 12.0752L2.80839 9.20192L0.794922 6.72767L1.52168 6.16898Z" fill="#64CCFF" stroke="#00344D" stroke-width="1.04942" stroke-miterlimit="10"/>
<path d="M44.651 71.8597C44.651 72.6646 44.5056 73.3603 44.2149 73.9466C43.9243 74.5329 43.5255 74.9851 43.0187 75.3031C42.5119 75.6211 41.933 75.7801 41.2821 75.7801C40.6312 75.7801 40.0523 75.6211 39.5455 75.3031C39.0386 74.9851 38.6399 74.5329 38.3492 73.9466C38.0585 73.3603 37.9132 72.6646 37.9132 71.8597C37.9132 71.0547 38.0585 70.3591 38.3492 69.7728C38.6399 69.1864 39.0386 68.7343 39.5455 68.4163C40.0523 68.0983 40.6312 67.9393 41.2821 67.9393C41.933 67.9393 42.5119 68.0983 43.0187 68.4163C43.5255 68.7343 43.9243 69.1864 44.2149 69.7728C44.5056 70.3591 44.651 71.0547 44.651 71.8597ZM43.7566 71.8597C43.7566 71.1988 43.646 70.6411 43.4249 70.1864C43.2063 69.7318 42.9094 69.3877 42.5342 69.1541C42.1616 68.9206 41.7442 68.8038 41.2821 68.8038C40.82 68.8038 40.4013 68.9206 40.0262 69.1541C39.6535 69.3877 39.3566 69.7318 39.1355 70.1864C38.9169 70.6411 38.8076 71.1988 38.8076 71.8597C38.8076 72.5206 38.9169 73.0783 39.1355 73.533C39.3566 73.9876 39.6535 74.3317 40.0262 74.5652C40.4013 74.7988 40.82 74.9155 41.2821 74.9155C41.7442 74.9155 42.1616 74.7988 42.5342 74.5652C42.9094 74.3317 43.2063 73.9876 43.4249 73.533C43.646 73.0783 43.7566 72.5206 43.7566 71.8597ZM51.4223 70.4287C51.3403 70.1777 51.2322 69.9529 51.0981 69.7541C50.9664 69.5529 50.8086 69.3815 50.6248 69.2399C50.4434 69.0982 50.2372 68.9902 50.0062 68.9156C49.7751 68.8411 49.5217 68.8038 49.2459 68.8038C48.7938 68.8038 48.3826 68.9206 48.0124 69.1541C47.6422 69.3877 47.3478 69.7318 47.1292 70.1864C46.9106 70.6411 46.8012 71.1988 46.8012 71.8597C46.8012 72.5206 46.9118 73.0783 47.1329 73.533C47.354 73.9876 47.6534 74.3317 48.031 74.5652C48.4087 74.7988 48.8335 74.9155 49.3055 74.9155C49.7428 74.9155 50.1279 74.8224 50.4608 74.636C50.7962 74.4472 51.0571 74.1814 51.2434 73.8385C51.4322 73.4932 51.5266 73.087 51.5266 72.6199L51.8099 72.6796H49.5142V71.8597H52.421V72.6796C52.421 73.3081 52.2869 73.8547 52.0185 74.3193C51.7527 74.7839 51.385 75.1441 50.9155 75.4C50.4484 75.6534 49.9118 75.7801 49.3055 75.7801C48.6298 75.7801 48.036 75.6211 47.5242 75.3031C47.0149 74.9851 46.6174 74.5329 46.3317 73.9466C46.0485 73.3603 45.9068 72.6646 45.9068 71.8597C45.9068 71.256 45.9876 70.7131 46.1491 70.2311C46.3131 69.7467 46.5441 69.3343 46.8422 68.9939C47.1404 68.6535 47.4932 68.3927 47.9006 68.2113C48.308 68.0299 48.7565 67.9393 49.2459 67.9393C49.6484 67.9393 50.0236 68.0001 50.3714 68.1219C50.7217 68.2411 51.0335 68.4113 51.3068 68.6324C51.5825 68.851 51.8123 69.1132 51.9962 69.4187C52.18 69.7218 52.3067 70.0585 52.3763 70.4287H51.4223ZM59.0125 68.0436H59.9367V73.0969C59.9367 73.6187 59.8138 74.0845 59.5678 74.4944C59.3243 74.9019 58.9802 75.2236 58.5355 75.4596C58.0908 75.6932 57.5691 75.8099 56.9703 75.8099C56.3716 75.8099 55.8499 75.6932 55.4051 75.4596C54.9604 75.2236 54.6151 74.9019 54.3691 74.4944C54.1257 74.0845 54.0039 73.6187 54.0039 73.0969V68.0436H54.9281V73.0224C54.9281 73.3951 55.0101 73.7267 55.1741 74.0174C55.3381 74.3056 55.5716 74.5329 55.8747 74.6994C56.1803 74.8634 56.5455 74.9454 56.9703 74.9454C57.3952 74.9454 57.7604 74.8634 58.066 74.6994C58.3716 74.5329 58.6051 74.3056 58.7666 74.0174C58.9305 73.7267 59.0125 73.3951 59.0125 73.0224V68.0436ZM67.8344 68.0436V75.6758H66.94L62.7811 69.6833H62.7066V75.6758H61.7824V68.0436H62.6768L66.8506 74.051H66.9251V68.0436H67.8344Z" fill="#00344D"/>
</svg>
