<svg width="126" height="138" viewBox="0 0 126 138" fill="none" xmlns="http://www.w3.org/2000/svg">
<path d="M108.608 2.1567L114.112 1.15332L117.102 1.6436L116.257 6.36404L118.639 9.44256L124.287 14.1972L124.561 15.0866L121.642 19.0658L120.569 19.75L118.711 19.5904L117.09 21.5515L116.876 23.125L117.353 24.0827L119.735 25.0177L118.687 28.3129L119.604 31.152L120.105 31.4712L118.401 35.5075L115.84 36.6477L113.743 38.7343L113.183 39.8745L113.361 41.4594L109.513 49.3153L109.894 50.2617L109.454 51.2309L107.655 52.0632L106.177 53.9674L105.439 59.2465L106.844 60.706L107.035 61.6409L105.987 62.2224V64.0809L104.569 63.4994L104.271 63.7845L103.08 69.4855L101.281 73.3508L98.0876 74.491L97.1226 74.0805L95.7048 72.393L94.1083 72.2562L89.6882 75.9504H88.8065L86.3046 69.7249L88.6874 67.1595L86.6143 64.7764L84.6604 64.3888L80.7407 64.8335L72.8298 64.708L70.8282 64.2976L68.1118 64.7309L65.5861 64.2862L62.965 65.4264L62.4169 66.3157L62.3097 68.5961L61.1183 69.3715L60.1771 71.9597L58.1159 72.8719L57.5798 74.0121L55.4829 75.8478L54.8992 76.988L55.0064 79.5193L54.0533 80.6595V83.8976L55.5187 84.6273L57.1747 87.227L57.8657 88.8803L57.4368 90.8414L56.448 93.1218L54.3749 95.0716L53.3622 99.3359L49.8595 100.316L49.1685 101.023L47.9771 105.151L47.024 105.949L47.3576 105.447L47.0597 106.132L47.5839 107.169L48.4179 107.226L50.7292 108.777L52.7546 112.072L54.6132 112.186L56.1978 113.326L57.6751 115.903L57.2105 117.226L48.9898 136.313L43.2234 129.585L32.2982 119.05L14.6416 105.368L11.4248 103.475L16.1904 103.794L17.1793 101.822L16.9291 100.602L12.9974 98.6176L9.67342 98.9026L8.48201 98.4123L10.0547 96.8731L12.914 96.7591L14.2365 95.9837L15.1658 94.6839L18.0728 93.9314L18.9306 91.8562L17.9299 87.7857V82.689L17.1674 81.7997L15.0586 82.3811L13.0928 84.9694L11.401 86.178L9.2207 86.3262L3.50195 85.4027L1.11914 83.1223V79.2342L4.69336 73.6244L9.01814 69.8846L11.4725 68.7444L14.2722 66.3499L15.5471 62.6443L16.4287 56.3618L19.6097 54.7427L22.1713 49.0417L27.2824 45.1194H30.0465L33.0369 46.5333L36.5039 49.0645H38.6603L39.4228 47.6279L39.1488 45.7693L39.6373 43.3635L39.0892 38.8027L40.9478 31.3458L41.9486 30.6959L48.9302 28.883L48.1915 26.1465L53.6124 24.4932L62.8816 24.9835L71.2214 24.63L73.0681 25.2343L74.7599 27.7542L75.9513 31.3914L75.7607 32.372L77.0593 35.4391L79.7757 36.1118L86.3642 32.1211L89.9384 27.0701L91.9757 22.6005L94.0011 13.3648L95.3474 10.9248L98.2067 8.09713L100.804 6.44383L101.817 4.09502L104.033 3.66177L105.82 5.07561L106.797 4.73353L108.572 1.95147L108.608 2.1567Z" fill="#0AA83F" stroke="#00344D" stroke-width="1.04942" stroke-miterlimit="10"/>
<path d="M28.4029 66.2171C28.4029 67.0221 28.2576 67.7177 27.9669 68.304C27.6762 68.8904 27.2775 69.3425 26.7706 69.6605C26.2638 69.9785 25.685 70.1375 25.034 70.1375C24.3831 70.1375 23.8042 69.9785 23.2974 69.6605C22.7906 69.3425 22.3918 68.8904 22.1012 68.304C21.8105 67.7177 21.6651 67.0221 21.6651 66.2171C21.6651 65.4122 21.8105 64.7165 22.1012 64.1302C22.3918 63.5439 22.7906 63.0917 23.2974 62.7737C23.8042 62.4557 24.3831 62.2967 25.034 62.2967C25.685 62.2967 26.2638 62.4557 26.7706 62.7737C27.2775 63.0917 27.6762 63.5439 27.9669 64.1302C28.2576 64.7165 28.4029 65.4122 28.4029 66.2171ZM27.5085 66.2171C27.5085 65.5563 27.398 64.9985 27.1769 64.5439C26.9582 64.0892 26.6613 63.7451 26.2862 63.5116C25.9135 63.278 25.4961 63.1613 25.034 63.1613C24.5719 63.1613 24.1533 63.278 23.7781 63.5116C23.4055 63.7451 23.1086 64.0892 22.8875 64.5439C22.6689 64.9985 22.5595 65.5563 22.5595 66.2171C22.5595 66.878 22.6689 67.4357 22.8875 67.8904C23.1086 68.345 23.4055 68.6891 23.7781 68.9227C24.1533 69.1562 24.5719 69.273 25.034 69.273C25.4961 69.273 25.9135 69.1562 26.2862 68.9227C26.6613 68.6891 26.9582 68.345 27.1769 67.8904C27.398 67.4357 27.5085 66.878 27.5085 66.2171ZM36.009 62.401V70.0332H35.1146L30.9557 64.0408H30.8811V70.0332H29.9569V62.401H30.8513L35.0252 68.4084H35.0997V62.401H36.009ZM40.2136 70.0332H37.8584V62.401H40.3179C41.0583 62.401 41.6918 62.5538 42.2185 62.8594C42.7452 63.1625 43.149 63.5985 43.4297 64.1675C43.7104 64.7339 43.8508 65.4122 43.8508 66.2022C43.8508 66.9972 43.7092 67.6817 43.426 68.2556C43.1427 68.827 42.7303 69.2668 42.1887 69.5748C41.6471 69.8804 40.9887 70.0332 40.2136 70.0332ZM38.7826 69.2133H40.154C40.785 69.2133 41.308 69.0916 41.7229 68.8481C42.1378 68.6047 42.4471 68.2581 42.6508 67.8084C42.8545 67.3587 42.9564 66.8233 42.9564 66.2022C42.9564 65.5861 42.8558 65.0556 42.6546 64.6109C42.4533 64.1637 42.1527 63.8209 41.7527 63.5824C41.3527 63.3414 40.8546 63.2209 40.2583 63.2209H38.7826V69.2133ZM51.8407 66.2171C51.8407 67.0221 51.6954 67.7177 51.4047 68.304C51.114 68.8904 50.7153 69.3425 50.2085 69.6605C49.7016 69.9785 49.1228 70.1375 48.4718 70.1375C47.8209 70.1375 47.2421 69.9785 46.7352 69.6605C46.2284 69.3425 45.8297 68.8904 45.539 68.304C45.2483 67.7177 45.103 67.0221 45.103 66.2171C45.103 65.4122 45.2483 64.7165 45.539 64.1302C45.8297 63.5439 46.2284 63.0917 46.7352 62.7737C47.2421 62.4557 47.8209 62.2967 48.4718 62.2967C49.1228 62.2967 49.7016 62.4557 50.2085 62.7737C50.7153 63.0917 51.114 63.5439 51.4047 64.1302C51.6954 64.7165 51.8407 65.4122 51.8407 66.2171ZM50.9463 66.2171C50.9463 65.5563 50.8358 64.9985 50.6147 64.5439C50.396 64.0892 50.0992 63.7451 49.724 63.5116C49.3513 63.278 48.934 63.1613 48.4718 63.1613C48.0097 63.1613 47.5911 63.278 47.216 63.5116C46.8433 63.7451 46.5464 64.0892 46.3253 64.5439C46.1067 64.9985 45.9974 65.5563 45.9974 66.2171C45.9974 66.878 46.1067 67.4357 46.3253 67.8904C46.5464 68.345 46.8433 68.6891 47.216 68.9227C47.5911 69.1562 48.0097 69.273 48.4718 69.273C48.934 69.273 49.3513 69.1562 49.724 68.9227C50.0992 68.6891 50.396 68.345 50.6147 67.8904C50.8358 67.4357 50.9463 66.878 50.9463 66.2171Z" fill="#00344D"/>
</svg>
