<svg width="79" height="81" viewBox="0 0 79 81" fill="none" xmlns="http://www.w3.org/2000/svg">
<path d="M39.9875 4.47706L49.8404 4.7279L52.938 4.37444L57.1675 2.53874L57.5964 2.43609L57.8109 3.40527L57.6917 2.3791L60.849 2.81238L66.4962 0.874023L69.0935 1.53536L70.8568 5.14977L75.0148 5.00154L77.0044 4.08939L77.4691 4.70511L75.6581 10.7482L73.2753 12.6181L70.678 13.6899L68.748 15.4002L66.4843 20.246L66.3413 21.8423L67.3064 25.0463L65.8886 29.6071L66.7107 35.0572L70.1062 42.0238L71.107 46.3452L72.0958 48.2835L72.8345 51.0314L65.8529 52.8329L64.8521 53.4942L62.9935 60.9511L63.5415 65.5119L63.065 67.9178L63.339 69.7763L62.5765 71.2129H60.42L56.9531 68.6817L53.9626 67.2679H51.1986L46.0994 71.2015L43.5378 76.9025L40.3568 78.533L40.7142 77.3928L40.3449 77.2446L35.3886 77.5411L32.8629 78.59L31.4927 77.8033H30.1822L26.5365 80.0837L22.9623 71.9769L18.9234 71.3042L14.3365 73.5846H11.9537L11.2508 68.7045L10.6312 67.7467L9.51132 67.3021L7.84336 68.5677L4.68613 69.6509L7.47403 58.4313L7.98632 52.3996L9.97597 42.4571L8.93945 41.8984L5.26992 36.357L1.56465 33.7004L1.24297 32.64L1.07617 31.6366L2.4463 30.3938L3.37559 28.387L4.41211 17.8174L5.12696 17.4982L10.25 19.026L13.0141 18.1709L13.9433 17.0307L14.0982 14.4082L15.3611 13.7583L18.709 9.97283L22.2832 12.0708L26.5603 18.4103L29.098 17.3499L29.8724 15.7194L32.3148 14.3968L33.5062 12.8119L33.8398 13.2566L36.0201 11.5349L38.7484 10.6683L39.0463 11.1016L40.2377 9.57375L40.607 8.1143L39.9875 4.47706Z" fill="#64CCFF" stroke="#00344D" stroke-width="1.04942" stroke-miterlimit="10"/>
<path d="M26.2623 42.8831C26.2623 43.6881 26.117 44.3837 25.8263 44.9701C25.5356 45.5564 25.1368 46.0085 24.63 46.3266C24.1232 46.6446 23.5443 46.8036 22.8934 46.8036C22.2425 46.8036 21.6636 46.6446 21.1568 46.3266C20.65 46.0085 20.2512 45.5564 19.9605 44.9701C19.6699 44.3837 19.5245 43.6881 19.5245 42.8831C19.5245 42.0782 19.6699 41.3825 19.9605 40.7962C20.2512 40.2099 20.65 39.7577 21.1568 39.4397C21.6636 39.1217 22.2425 38.9627 22.8934 38.9627C23.5443 38.9627 24.1232 39.1217 24.63 39.4397C25.1368 39.7577 25.5356 40.2099 25.8263 40.7962C26.117 41.3825 26.2623 42.0782 26.2623 42.8831ZM25.3679 42.8831C25.3679 42.2223 25.2573 41.6645 25.0362 41.2099C24.8176 40.7552 24.5207 40.4111 24.1456 40.1776C23.7729 39.944 23.3555 39.8273 22.8934 39.8273C22.4313 39.8273 22.0127 39.944 21.6375 40.1776C21.2649 40.4111 20.968 40.7552 20.7469 41.2099C20.5282 41.6645 20.4189 42.2223 20.4189 42.8831C20.4189 43.544 20.5282 44.1017 20.7469 44.5564C20.968 45.011 21.2649 45.3551 21.6375 45.5887C22.0127 45.8222 22.4313 45.939 22.8934 45.939C23.3555 45.939 23.7729 45.8222 24.1456 45.5887C24.5207 45.3551 24.8176 45.011 25.0362 44.5564C25.2573 44.1017 25.3679 43.544 25.3679 42.8831ZM31.9902 40.9751C31.9454 40.5975 31.7641 40.3043 31.4461 40.0956C31.1281 39.8869 30.738 39.7826 30.2759 39.7826C29.938 39.7826 29.6424 39.8372 29.389 39.9465C29.138 40.0558 28.9418 40.2062 28.8001 40.3975C28.661 40.5888 28.5914 40.8061 28.5914 41.0496C28.5914 41.2533 28.6399 41.4285 28.7368 41.5751C28.8362 41.7192 28.9629 41.8397 29.1169 41.9366C29.2709 42.031 29.4324 42.1092 29.6014 42.1713C29.7703 42.231 29.9256 42.2794 30.0672 42.3167L30.8423 42.5254C31.0411 42.5775 31.2622 42.6496 31.5057 42.7415C31.7516 42.8334 31.9864 42.9589 32.21 43.1179C32.4361 43.2744 32.6224 43.4757 32.769 43.7216C32.9156 43.9676 32.9889 44.2694 32.9889 44.6272C32.9889 45.0396 32.8808 45.4123 32.6647 45.7452C32.451 46.0781 32.138 46.3427 31.7256 46.539C31.3156 46.7352 30.8175 46.8334 30.2312 46.8334C29.6846 46.8334 29.2113 46.7452 28.8113 46.5688C28.4138 46.3924 28.1008 46.1464 27.8722 45.8309C27.6461 45.5154 27.5182 45.1489 27.4884 44.7315H28.4424C28.4672 45.0197 28.5641 45.2582 28.7331 45.4471C28.9045 45.6334 29.1206 45.7725 29.3815 45.8644C29.6448 45.9539 29.9281 45.9986 30.2312 45.9986C30.584 45.9986 30.9007 45.9415 31.1815 45.8272C31.4622 45.7104 31.6846 45.5489 31.8485 45.3427C32.0125 45.134 32.0945 44.8906 32.0945 44.6123C32.0945 44.3589 32.0237 44.1527 31.8821 43.9937C31.7405 43.8347 31.5541 43.7055 31.3231 43.6061C31.092 43.5067 30.8423 43.4198 30.574 43.3452L29.6349 43.0769C29.0386 42.9055 28.5666 42.6608 28.2188 42.3428C27.871 42.0248 27.6971 41.6086 27.6971 41.0943C27.6971 40.667 27.8126 40.2944 28.0436 39.9763C28.2772 39.6559 28.5902 39.4074 28.9827 39.231C29.3778 39.0521 29.8188 38.9627 30.3057 38.9627C30.7976 38.9627 31.2349 39.0509 31.6175 39.2273C32.0001 39.4012 32.3032 39.6397 32.5268 39.9428C32.7529 40.2459 32.8721 40.59 32.8845 40.9751H31.9902ZM39.517 39.067H40.4413V44.1204C40.4413 44.6421 40.3183 45.1079 40.0723 45.5179C39.8288 45.9253 39.4848 46.2471 39.04 46.4831C38.5953 46.7166 38.0736 46.8334 37.4748 46.8334C36.8761 46.8334 36.3544 46.7166 35.9097 46.4831C35.4649 46.2471 35.1196 45.9253 34.8736 45.5179C34.6302 45.1079 34.5084 44.6421 34.5084 44.1204V39.067H35.4326V44.0458C35.4326 44.4185 35.5146 44.7502 35.6786 45.0409C35.8426 45.3291 36.0761 45.5564 36.3792 45.7228C36.6848 45.8868 37.05 45.9688 37.4748 45.9688C37.8997 45.9688 38.2649 45.8868 38.5705 45.7228C38.8761 45.5564 39.1096 45.3291 39.2711 45.0409C39.4351 44.7502 39.517 44.4185 39.517 44.0458V39.067ZM48.339 39.067V46.6992H47.4446L43.2856 40.7068H43.2111V46.6992H42.2869V39.067H43.1813L47.3551 45.0744H47.4297V39.067H48.339Z" fill="#00344D"/>
</svg>
