<svg width="143" height="153" viewBox="0 0 143 153" fill="none" xmlns="http://www.w3.org/2000/svg">
<path d="M7.79003 47.1304L11.5906 43.9607H15.3674L20.2283 43.1397L22.0154 42.239L22.2418 41.0988L26.9002 37.1765L28.8779 36.424L37.1701 30.1073L40.232 29.7994L41.0541 30.016L42.1382 31.3045L42.6744 31.1791L43.3058 32.0342L44.4138 31.8632L52.7537 28.1461L56.3279 25.6263L57.6742 25.3298L60.6408 23.1178L67.539 19.3552L75.4499 16.0258L80.7159 12.1149L81.2521 10.8265V7.80496L83.2655 3.57483L87.8167 1.2032L90.1995 1.10059L95.0604 3.90547L95.7038 6.73317L97.7173 9.01357L101.589 11.7728L108.38 13.7568L111.24 15.5127L112.55 15.3645L117.113 16.5959L119.746 16.5047L123.118 14.4523L124.679 15.3417L124.869 16.8239L122.082 20.427L118.317 22.81L117.638 23.4827L117.221 25.307L114.742 27.0743L113.551 32.2052L114.516 34.0067L116.089 40.0384L118.066 42.2162L121.641 50.323L124.023 53.3217L124.965 56.4801L125.072 58.8745L126.525 62.7968L130.1 67.6312L134.222 70.1967V71.1088L135.151 71.8614L135.616 75.0197L137.88 80.5041L138.725 81.5759L140.453 81.6557L141.037 82.4082L141.668 86.0569L141.299 87.5163L140.107 89.0442L139.81 88.6109L137.081 89.4775L134.865 91.2676L134.532 90.8229L133.34 92.4077L130.898 93.7304L130.123 95.3609L127.586 96.4213L123.309 90.0818L119.734 87.9838L116.399 91.7807L115.136 92.4306L114.981 95.053L114.051 96.1932L111.287 97.0484L106.164 95.5205L105.449 95.8398L104.413 106.409L103.484 108.416L102.114 109.659L102.28 110.662L102.602 111.723L106.272 114.357L109.905 119.921L110.942 120.479L108.952 130.422L108.44 136.454L105.688 147.65L98.6704 148.654L96.8714 150.216L93.0827 151.63L89.5085 151.481L86.2917 152.143L79.036 152.428L78.5952 152.109L78.9884 150.82L83.754 146.259L83.2655 142.987L81.955 139.908L82.0741 137.377L81.3116 136.123L77.7374 134.732L77.2489 133.922L76.8558 127.469L75.4618 125.314L68.0751 125.063L65.1324 125.747L63.7861 127.013L62.5947 127.309L60.6169 125.987L58.532 121.038L55.4343 120.708L53.5042 122.395L52.146 127.229L48.8339 131.79L46.7609 132.349L41.9953 132.03L39.2074 130.741L35.6332 128.05L31.8207 122.908L30.6293 119.487L26.9955 116.671L24.4697 113.809L23.8502 109.636L24.4578 108.986L24.9463 109.26L27.0193 102.419L27.2099 98.8955L26.4474 96.8888L25.399 96.1932H23.7906L23.2306 96.7063L22.5515 98.1316L21.4316 104.471L20.4904 104.323L18.9297 101.849L18.2625 99.1577L18.0242 91.7807L17.5357 90.1502L16.0584 88.1092L13.7947 87.0488L9.63671 87.2883L2.48828 92.1797L3.81074 89.7967L4.68047 84.8938L6.26504 80.162L5.90761 78.885L6.34844 75.8064L7.69472 73.2296L8.12363 69.9344L5.2166 66.4454L3.82265 61.8846L3.91797 59.6042L5.16894 57.4721L4.64473 55.1917L5.2166 54.3935L6.70586 54.0515L8.32617 50.7335L7.81386 50.2318L8.68359 49.0916V47.8716L7.79003 47.1304Z" fill="#64CCFF" stroke="#00344D" stroke-width="1.04942" stroke-miterlimit="10"/>
<path d="M62.5846 73.6781C62.5846 74.483 62.4392 75.1786 62.1485 75.765C61.8579 76.3513 61.4591 76.8035 60.9523 77.1215C60.4455 77.4395 59.8666 77.5985 59.2157 77.5985C58.5647 77.5985 57.9859 77.4395 57.4791 77.1215C56.9722 76.8035 56.5735 76.3513 56.2828 75.765C55.9921 75.1786 55.8468 74.483 55.8468 73.6781C55.8468 72.8731 55.9921 72.1775 56.2828 71.5911C56.5735 71.0048 56.9722 70.5526 57.4791 70.2346C57.9859 69.9166 58.5647 69.7576 59.2157 69.7576C59.8666 69.7576 60.4455 69.9166 60.9523 70.2346C61.4591 70.5526 61.8579 71.0048 62.1485 71.5911C62.4392 72.1775 62.5846 72.8731 62.5846 73.6781ZM61.6902 73.6781C61.6902 73.0172 61.5796 72.4594 61.3585 72.0048C61.1399 71.5501 60.843 71.206 60.4678 70.9725C60.0952 70.739 59.6778 70.6222 59.2157 70.6222C58.7536 70.6222 58.3349 70.739 57.9598 70.9725C57.5871 71.206 57.2902 71.5501 57.0691 72.0048C56.8505 72.4594 56.7412 73.0172 56.7412 73.6781C56.7412 74.3389 56.8505 74.8967 57.0691 75.3513C57.2902 75.806 57.5871 76.1501 57.9598 76.3836C58.3349 76.6171 58.7536 76.7339 59.2157 76.7339C59.6778 76.7339 60.0952 76.6171 60.4678 76.3836C60.843 76.1501 61.1399 75.806 61.3585 75.3513C61.5796 74.8967 61.6902 74.3389 61.6902 73.6781ZM63.124 69.862H64.1824L66.2991 73.4246H66.3885L68.5053 69.862H69.5636L66.8059 74.3488V77.4941H65.8817V74.3488L63.124 69.862ZM76.8399 73.6781C76.8399 74.483 76.6946 75.1786 76.4039 75.765C76.1132 76.3513 75.7145 76.8035 75.2076 77.1215C74.7008 77.4395 74.122 77.5985 73.471 77.5985C72.8201 77.5985 72.2412 77.4395 71.7344 77.1215C71.2276 76.8035 70.8288 76.3513 70.5382 75.765C70.2475 75.1786 70.1021 74.483 70.1021 73.6781C70.1021 72.8731 70.2475 72.1775 70.5382 71.5911C70.8288 71.0048 71.2276 70.5526 71.7344 70.2346C72.2412 69.9166 72.8201 69.7576 73.471 69.7576C74.122 69.7576 74.7008 69.9166 75.2076 70.2346C75.7145 70.5526 76.1132 71.0048 76.4039 71.5911C76.6946 72.1775 76.8399 72.8731 76.8399 73.6781ZM75.9455 73.6781C75.9455 73.0172 75.835 72.4594 75.6139 72.0048C75.3952 71.5501 75.0983 71.206 74.7232 70.9725C74.3505 70.739 73.9331 70.6222 73.471 70.6222C73.0089 70.6222 72.5903 70.739 72.2151 70.9725C71.8425 71.206 71.5456 71.5501 71.3245 72.0048C71.1059 72.4594 70.9965 73.0172 70.9965 73.6781C70.9965 74.3389 71.1059 74.8967 71.3245 75.3513C71.5456 75.806 71.8425 76.1501 72.2151 76.3836C72.5903 76.6171 73.0089 76.7339 73.471 76.7339C73.9331 76.7339 74.3505 76.6171 74.7232 76.3836C75.0983 76.1501 75.3952 75.806 75.6139 75.3513C75.835 74.8967 75.9455 74.3389 75.9455 73.6781Z" fill="#00344D"/>
</svg>
