<svg width="158" height="144" viewBox="0 0 158 144" fill="none" xmlns="http://www.w3.org/2000/svg">
<path d="M18.9691 1.98349L20.792 1.4248L24.5806 1.51601L27.8927 2.51939L31.0023 7.2626L31.9316 12.7356V26.8513L45.0371 24.3542L46.2999 24.5936L48.4445 26.7828L49.6359 30.3516L49.9456 37.1244L49.6716 38.4585L46.8361 43.5552L46.7288 45.4821L47.4437 46.4513L52.114 48.0704L53.0552 48.8799L54.1275 50.2025L56.0933 54.8431L57.9519 56.371L59.7509 56.9753L65.4696 57.2832L71.9866 58.9707L83.9007 58.2979L89.131 56.6903L92.5741 50.7498L98.2452 49.2676L98.8409 47.3634L98.5192 45.3795L94.7425 40.7503L95.0999 39.1084L98.6741 37.0788L107.729 41.5826L110.791 42.1641L121.823 47.7853L135.012 53.1898L142.375 57.7506L149.952 61.6615L151.811 66.1539L152.061 68.6054L151.453 73.2574L152.359 80.0985L155.099 84.4997L156.29 91.3409L155.635 92.8574L155.993 95.4228H156.505L156.755 101.74L154.611 105.229L140.099 111.91L137.836 111.785L126.493 114.179L123.527 115.821L121.073 120.598L115.473 127.166L106.954 131.453L97.8044 140.176L94.9092 141.533L89.6551 142.673L84.7585 143.288L80.1716 143.003L78.4321 139.948L75.4298 137.587L63.0511 132.662L51.423 135.843L41.6654 136.014L37.3049 134.532L31.2048 131.453L29.4892 129.093L29.8466 122.924L29.4654 121.511L26.9754 118.74L26.2128 116.779L26.5941 114.213L28.4408 112.663L30.2875 109.402L32.0269 108.261L33.7068 108.033L36.2207 105.753L39.4374 101.192L40.3787 97.8515L37.9958 95.3316L36.8044 94.6931L33.5043 96.2324H29.0961L22.7578 95.5939L20.1843 94.4537L17.7777 90.5314L17.0271 85.4233L14.549 84.4541L11.6658 84.3287L9.69999 82.4246L11.6896 77.9322L11.5466 74.0441L10.3552 71.6611L8.31795 70.2814L5.25603 66.7696L1.37208 60.7608L1.25293 59.4381L2.50389 57.8419L2.25371 52.4373L4.35059 50.9779L4.82714 47.466L7.05507 45.7101L7.55547 44.4901L6.92403 42.0957L7.75799 33.1908L7.54355 30.9104L7.94862 29.6561L10.7961 27.3757L9.90254 23.3622L8.28221 20.1469L8.54432 17.0569L11.082 11.3559L13.3457 9.75964L15.9549 8.92732L17.5275 7.14861L18.1828 5.5181L18.433 2.21153L18.9691 1.98349Z" fill="#64CCFF" stroke="#00344D" stroke-width="1.04942" stroke-miterlimit="10"/>
<path d="M56.4574 90.9883V83.3561H59.0363C59.635 83.3561 60.1244 83.4642 60.5046 83.6803C60.8872 83.894 61.1704 84.1834 61.3542 84.5486C61.5381 84.9138 61.63 85.3213 61.63 85.771C61.63 86.2207 61.5381 86.6293 61.3542 86.997C61.1729 87.3647 60.8921 87.6579 60.512 87.8765C60.1319 88.0927 59.6449 88.2007 59.0512 88.2007H57.2027V87.3809H59.0213C59.4313 87.3809 59.7605 87.3101 60.0089 87.1685C60.2574 87.0269 60.4375 86.8356 60.5493 86.5946C60.6636 86.3511 60.7207 86.0766 60.7207 85.771C60.7207 85.4654 60.6636 85.1921 60.5493 84.9511C60.4375 84.7101 60.2561 84.5213 60.0052 84.3847C59.7543 84.2455 59.4213 84.176 59.0064 84.176H57.3816V90.9883H56.4574ZM63.1188 90.9883V83.3561H64.043V90.1684H67.5908V90.9883H63.1188ZM69.8165 90.9883H68.8476L71.65 83.3561H72.604L75.4065 90.9883H74.4376L72.1568 84.5635H72.0972L69.8165 90.9883ZM70.1743 88.007H74.0798V88.8268H70.1743V88.007ZM75.2863 84.176V83.3561H81.0104V84.176H78.6105V90.9883H77.6863V84.176H75.2863ZM82.4368 90.9883V83.3561H87.0429V84.176H83.361V86.7548H86.8044V87.5747H83.361V90.1684H87.1026V90.9883H82.4368ZM89.0218 90.9883H88.0529L90.8553 83.3561H91.8093L94.6118 90.9883H93.6428L91.3621 84.5635H91.3025L89.0218 90.9883ZM89.3796 88.007H93.2851V88.8268H89.3796V88.007ZM100.809 83.3561H101.733V88.4094C101.733 88.9312 101.61 89.397 101.364 89.8069C101.121 90.2144 100.777 90.5361 100.332 90.7721C99.8875 91.0057 99.3657 91.1224 98.767 91.1224C98.1682 91.1224 97.6465 91.0057 97.2018 90.7721C96.7571 90.5361 96.4117 90.2144 96.1658 89.8069C95.9223 89.397 95.8006 88.9312 95.8006 88.4094V83.3561H96.7248V88.3349C96.7248 88.7076 96.8068 89.0392 96.9707 89.3299C97.1347 89.6181 97.3682 89.8454 97.6713 90.0119C97.9769 90.1759 98.3421 90.2579 98.767 90.2579C99.1918 90.2579 99.557 90.1759 99.8626 90.0119C100.168 89.8454 100.402 89.6181 100.563 89.3299C100.727 89.0392 100.809 88.7076 100.809 88.3349V83.3561Z" fill="#00344D"/>
</svg>
