<svg width="15" height="14" viewBox="0 0 15 14" fill="none" xmlns="http://www.w3.org/2000/svg">
<path d="M13.0488 5.5H8.54883V1C8.54883 0.46875 8.08008 0 7.54883 0H6.54883C5.98633 0 5.54883 0.46875 5.54883 1V5.5H1.04883C0.486328 5.5 0.0488281 5.96875 0.0488281 6.5V7.5C0.0488281 8.0625 0.486328 8.5 1.04883 8.5H5.54883V13C5.54883 13.5625 5.98633 14 6.54883 14H7.54883C8.08008 14 8.54883 13.5625 8.54883 13V8.5H13.0488C13.5801 8.5 14.0488 8.0625 14.0488 7.5V6.5C14.0488 5.96875 13.5801 5.5 13.0488 5.5Z" fill="#666666"/>
</svg>
