<svg width="91" height="99" viewBox="0 0 91 99" fill="none" xmlns="http://www.w3.org/2000/svg">
<path d="M57.2562 85.6753L55.5167 87.2601V88.1381L54.7781 87.8645L55.0402 86.2454L56.7558 85.3104L57.2324 85.6753H57.2562ZM53.5152 83.5773L51.466 82.4371L50.8107 82.6082L50.1554 82.7792L49.9052 81.9924L50.9298 81.0917L50.5605 80.3278L50.9298 79.5866L50.8464 78.3894L50.1674 77.4659L49.0832 77.272L48.8211 77.4544L47.9752 75.5161L47.6535 75.3223L47.8203 74.7978L46.7957 73.8172L46.474 74.2277L45.2826 74.3987L45.0562 75.3337L45.7353 76.4739L46.331 77.6141L46.8195 79.8945L46.2476 79.6322L45.7234 80.5216L46.9982 84.4894L46.8314 85.9375L48.2254 90.4983L47.9394 90.7491L48.8568 91.2737L51.3111 90.7834L51.7876 90.2703L51.9425 89.6089L54.0275 90.1677V87.625L54.8257 85.8463L53.4437 83.5659L53.5152 83.5773ZM48.9878 71.8788L49.4763 72.4034L52.0736 72.5059L52.2999 71.4684L51.8115 71.1149L49.798 71.457L48.9878 71.8788ZM50.489 69.1196L50.9179 70.408L51.5375 70.6247L51.1919 68.4582L50.489 69.1196ZM59.0671 80.2251L57.3515 76.9642L56.1601 76.166L54.2181 75.2424L53.8964 75.1056L52.8956 75.8468L53.6701 75.9494L55.2308 77.2378L55.3976 77.4773L55.1236 78.0017L55.7431 79.0621L55.8861 81.2513L57.423 82.6196L58.5072 82.8134L59.3054 81.2057L59.0671 80.2251ZM66.1202 87.2031L63.6421 84.2158L62.0814 86.0743L63.0226 86.9751L63.9876 86.7014L64.4404 87.7391H65.3458L65.6079 88.446L67.0019 87.8759L68.2886 89.1073L70.5046 87.4084L69.7659 86.7813L66.1202 87.2031ZM42.3994 79.6664L41.065 80.2708L40.7314 81.7758L42.0896 82.2319L43.8053 83.4633L44.9967 86.0629L44.6511 82.2319L44.2222 82.0608L44.532 80.3619L42.3636 79.6664H42.3994ZM63.9995 82.5853L61.2117 80.6926L59.365 78.0131V77.7053L58.7931 75.767L58.2212 76.2572L57.7447 75.8468L58.257 75.0828V73.3839L58.114 73.3041L57.4349 75.4135L54.7542 74.6154L54.1228 74.5013L53.0744 73.2699L52.991 71.5368L52.5621 71.2062L52.4787 70.6816L52.1689 70.4878L51.9902 69.7467L52.5859 68.8459L51.3945 67.4549L50.4295 68.0592L50.0244 69.074L50.7988 70.8299L48.3445 71.7079L47.856 72.1183L46.748 72.5516H46.1285L44.9371 73.4296L44.389 74.1365L44.2818 72.4148L43.5908 73.2585L43.3287 73.84L44.5201 75.7213L45.1754 78.5148L43.6146 79.0279L42.9832 79.2674L41.339 77.4316L40.4931 75.2653L38.6941 72.5402L36.907 71.9587L37.5742 70.1914L36.764 67.6601L37.9555 66.7365L38.3724 66.1893L37.741 65.4253L35.5845 65.1517L33.4281 63.886L33.0945 65.699L32.0342 66.3489L31.641 65.4709L30.1279 65.3113L29.7228 64.9237L28.9603 65.1403H28.043L27.3043 64.1483L27.0779 63.9887L26.4226 64.4561L26.649 65.5963L26.4822 65.9726L27.0303 66.3261L28.5433 67.7742L28.4004 69.5186L29.5918 74.8092L33.4281 78.5832V79.9287L31.2478 81.6618L31.1287 82.3231L33.2971 89.8028L33.9523 93.5883L36.8236 96.416L36.4781 96.7922L27.8523 97.6246L25.1836 96.7694L25.0764 93.6795L24.7904 90.7834L24.9572 90.2589V90.065L24.4091 86.9751L24.1828 86.1199L26.4941 81.9354L26.2678 78.8911L25.4695 79.0621L24.6594 79.1762L19.8937 76.2116L18.464 71.2176L16.8199 69.0853H14.4371L6.64533 71.9815L5.45393 71.685L5.03693 69.473L5.5373 67.8083L1.59375 66.1664L0.998047 65.2201L1.08145 60.2716L3.34512 57.2273L4.2506 54.9469V53.4988L2.71367 53.6813L1.7129 52.7919L3.29749 47.7294L8.64688 38.7903L11.9471 38.9841L12.6024 38.414L13.4959 35.5749L15.3306 34.6741L15.0566 32.6104L16.9391 31.3903L18.0709 29.7029V27.4909L17.3203 25.735L16.4148 25.0737L14.1274 24.1273L10.6246 24.686L9.43321 24.3667L8.7541 23.2266L9.00429 22.7249L13.1981 20.6611L13.4244 14.6181L14.2584 12.9305L16.7008 11.3115L17.7611 9.3161L18.7381 5.69028L17.4395 1.65399L17.7135 1.25488L19.0359 2.71437L21.8953 2.95377L18.6189 17.8676L20.418 18.3693L24.5521 17.6054L27.0779 18.4947L27.6021 20.3875L26.9826 25.6552L25.684 28.8021L25.9937 30.3642L28.1859 31.8465L30.2351 35.7345L32.8086 37.6159L35.3582 38.0834L43.3644 37.9237L48.964 39.2008L53.9083 37.9807H56.446L61.8193 39.2692L64.8812 38.129L65.5365 38.186L66.3228 40.1471L66.3943 43.3169L63.5349 48.0943L59.4722 53.0314L57.84 57.2615L57.6494 58.5043L58.3642 59.7699L60.0917 61.3777L62.2363 61.6855L65.9654 61.0128L67.2878 60.283L70.6119 60.1462L74.5197 61.5372L76.6761 61.0584L80.1788 62.6547L82.9786 64.6956L85.3614 68.6749L86.112 71.2973L84.9206 76.166L85.6116 81.3539L85.004 81.7188V82.4485L85.7308 83.7825L84.2772 84.6605L83.2765 83.8395L83.074 82.6993L81.6204 82.3915L80.9651 82.0951L80.6554 82.6196L78.9993 83.965L78.3083 83.6914L77.9986 83.2808H77.5458L76.6999 83.7255L74.9128 81.0347L73.3997 82.1749L72.2917 81.7644L70.3855 81.1943L69.6111 80.0541L68.8128 80.2708L67.9312 79.2901L67.1925 79.8717L66.9661 80.7724L65.9058 81.1487L66.3109 82.3801L66.6325 83.5203L66.9185 84.2044L67.8478 84.8886L68.7652 84.6149L69.4443 84.7061L70.4689 84.3526L70.2663 86.348L68.1575 86.5419L66.4419 87.1461L65.5603 85.7779L65.4411 85.4017L64.1902 84.0676L64.0115 82.9958L64.1425 82.745L63.9995 82.5853ZM89.6386 87.4996L88.8165 87.0549H88.3042L87.2558 86.6444L86.7792 86.234L86.2788 86.7584L85.8976 86.6103L86.3146 85.9945L85.2661 84.2956L84.1939 84.9L83.0025 83.8738L82.5735 83.4861L82.371 82.9046H80.715L80.4052 83.2238L78.9398 84.2158H77.3552H76.8071L76.2949 83.9536L75.5443 83.2353L74.9128 82.8818L74.8056 81.9582L73.3283 82.3459H72.1369V81.867L70.6476 81.4794L69.5634 80.9549L67.9669 80.8522L67.3951 81.1259L67.121 81.7872V82.688H69.1702L69.2775 82.7792L70.6714 83.9992L70.9455 84.7631L71.3743 86.3252L72.3751 86.6787L72.5658 86.2226L72.9708 86.5419H74.2456L74.3171 86.7927L72.1249 87.6364L71.6126 87.8075L70.7906 90.5439L77.3076 91.4219L82.2876 90.3729L89.3526 90.2133L89.1263 88.8223L89.7458 87.4996H89.6386ZM31.6529 66.8392L32.5941 66.6454L33.6902 65.7446L33.7855 64.4675L35.3224 65.4938L37.2287 66.2121L36.0373 67.5461L36.5496 69.6554L36.8713 70.0203V70.6816L36.1564 71.7534L36.4185 72.4832L37.6099 72.8366L39.1111 74.3759L41.5773 79.3471L40.4693 80.0427L39.9689 81.0004L40.1476 82.0381L43.9006 84.1474L44.6154 87.454L45.6638 88.9591L45.5208 90.5439L46.0927 92.3797L47.856 93.6681L46.5217 95.2529L45.3303 95.6635L44.3056 95.0934L43.5908 95.5608L35.9896 93.9759L35.0246 91.0798L35.656 90.3729H34.9412L33.3209 85.9375L32.3558 83.7711L32.475 81.4223L34.417 79.6436L34.2144 78.1044L32.058 76.2116L30.0445 74.9004L29.139 70.2712L28.7935 69.6099V67.5347L27.8761 66.3033L29.3535 65.4595L30.4019 66.1778H31.2002L31.5576 66.8164L31.6529 66.8392Z" fill="#0AA83F" stroke="#00344D" stroke-width="1.04942" stroke-miterlimit="10"/>
<path d="M12.2523 56.1445V48.5124H14.8312C15.4274 48.5124 15.9169 48.6142 16.2995 48.8179C16.6821 49.0192 16.9653 49.2962 17.1491 49.649C17.333 50.0018 17.4249 50.403 17.4249 50.8527C17.4249 51.3024 17.333 51.7011 17.1491 52.0489C16.9653 52.3968 16.6833 52.6701 16.3032 52.8688C15.9231 53.0651 15.4374 53.1632 14.8461 53.1632H12.7592V52.3284H14.8163C15.2237 52.3284 15.5517 52.2688 15.8001 52.1496C16.051 52.0303 16.2324 51.8614 16.3442 51.6427C16.4585 51.4216 16.5156 51.1583 16.5156 50.8527C16.5156 50.5471 16.4585 50.28 16.3442 50.0515C16.2299 49.8229 16.0473 49.6465 15.7964 49.5223C15.5454 49.3956 15.2138 49.3322 14.8014 49.3322H13.1765V56.1445H12.2523ZM15.8448 52.716L17.7231 56.1445H16.6498L14.8014 52.716H15.8448ZM19.8892 48.5124V56.1445H18.965V48.5124H19.8892ZM22.0553 48.5124L24.3211 54.9371H24.4105L26.6763 48.5124H27.6453L24.8428 56.1445H23.8888L21.0864 48.5124H22.0553ZM28.8341 56.1445V48.5124H33.4402V49.3322H29.7583V51.9111H33.2017V52.7309H29.7583V55.3247H33.4998V56.1445H28.8341ZM35.106 56.1445V48.5124H37.6848C38.2811 48.5124 38.7705 48.6142 39.1531 48.8179C39.5357 49.0192 39.819 49.2962 40.0028 49.649C40.1867 50.0018 40.2786 50.403 40.2786 50.8527C40.2786 51.3024 40.1867 51.7011 40.0028 52.0489C39.819 52.3968 39.537 52.6701 39.1569 52.8688C38.7768 53.0651 38.291 53.1632 37.6997 53.1632H35.6128V52.3284H37.6699C38.0774 52.3284 38.4053 52.2688 38.6538 52.1496C38.9047 52.0303 39.0861 51.8614 39.1979 51.6427C39.3121 51.4216 39.3693 51.1583 39.3693 50.8527C39.3693 50.5471 39.3121 50.28 39.1979 50.0515C39.0836 49.8229 38.901 49.6465 38.65 49.5223C38.3991 49.3956 38.0674 49.3322 37.655 49.3322H36.0302V56.1445H35.106ZM38.6985 52.716L40.5767 56.1445H39.5034L37.655 52.716H38.6985ZM45.9925 50.4204C45.9478 50.0428 45.7664 49.7496 45.4484 49.5409C45.1304 49.3322 44.7403 49.2279 44.2782 49.2279C43.9403 49.2279 43.6447 49.2825 43.3913 49.3918C43.1403 49.5012 42.9441 49.6515 42.8025 49.8428C42.6633 50.0341 42.5938 50.2515 42.5938 50.4949C42.5938 50.6987 42.6422 50.8738 42.7391 51.0204C42.8385 51.1645 42.9652 51.285 43.1192 51.3819C43.2733 51.4763 43.4348 51.5545 43.6037 51.6167C43.7726 51.6763 43.9279 51.7247 44.0695 51.762L44.8447 51.9707C45.0434 52.0229 45.2645 52.0949 45.508 52.1868C45.754 52.2788 45.9887 52.4042 46.2123 52.5632C46.4384 52.7197 46.6248 52.921 46.7713 53.1669C46.9179 53.4129 46.9912 53.7148 46.9912 54.0725C46.9912 54.4849 46.8831 54.8576 46.667 55.1905C46.4533 55.5234 46.1403 55.788 45.7279 55.9843C45.318 56.1806 44.8198 56.2787 44.2335 56.2787C43.6869 56.2787 43.2136 56.1905 42.8136 56.0141C42.4161 55.8377 42.1031 55.5917 41.8745 55.2762C41.6484 54.9607 41.5205 54.5942 41.4907 54.1769H42.4447C42.4695 54.4651 42.5664 54.7036 42.7354 54.8924C42.9068 55.0787 43.123 55.2178 43.3838 55.3098C43.6472 55.3992 43.9304 55.4439 44.2335 55.4439C44.5863 55.4439 44.903 55.3868 45.1838 55.2725C45.4645 55.1557 45.6869 54.9942 45.8509 54.788C46.0148 54.5793 46.0968 54.3359 46.0968 54.0576C46.0968 53.8042 46.026 53.598 45.8844 53.439C45.7428 53.28 45.5565 53.1508 45.3254 53.0514C45.0944 52.952 44.8447 52.8651 44.5763 52.7905L43.6372 52.5222C43.041 52.3508 42.5689 52.1061 42.2211 51.7881C41.8733 51.4701 41.6994 51.0539 41.6994 50.5397C41.6994 50.1123 41.8149 49.7397 42.046 49.4217C42.2795 49.1012 42.5925 48.8527 42.9851 48.6763C43.3801 48.4974 43.8211 48.408 44.308 48.408C44.7999 48.408 45.2372 48.4962 45.6198 48.6726C46.0024 48.8465 46.3055 49.085 46.5291 49.3881C46.7552 49.6912 46.8744 50.0353 46.8869 50.4204H45.9925Z" fill="#00344D"/>
</svg>
