<svg width="198" height="171" viewBox="0 0 198 171" fill="none" xmlns="http://www.w3.org/2000/svg">
<path d="M105.962 1.41113L121.307 7.88747L145.767 16.1539L150.532 18.8334L156.061 17.1687H160.409L170.584 21.8663L189.503 39.6078L196.652 51.4887L193.078 54.4532L184.619 59.014L173.288 57.5546L171.025 56.802L168.999 54.5216L166.259 53.6551L160.302 53.4384L159.599 59.6867L158.729 61.8417L158.134 62.0926L154.917 60.4507H151.605L145.826 62.2294L143.313 64.3045L143.181 65.1027L144.111 70.9633L144.194 80.5866L142.586 81.7268L137.82 83.5967L125.906 84.4975L118.603 85.5807L111.657 95.3636L109.417 97.4958L105.759 99.6735L105.831 102.957L107.535 108.248L108.309 113.094L107.427 116.514L104.497 118.453L97.2171 119.057L95.6921 118.726L89.9733 119.456L86.828 119.103L81.5025 119.479L70.3867 117.575L69.2906 118.259L68.1825 123.401L68.3017 144.164L67.5154 159.876L65.5853 161.016L64.4654 160.936L63.548 158.941L61.1652 159.762L58.9134 158.781L56.9 158.918L42.6031 165.132L39.7437 168.553L37.5873 170.069L34.2752 169.739L33.3697 169.157L30.4388 164.996L31.8209 159.557L34.9304 153.138L37.4562 141.975L36.515 127.095L36.6818 115.762L37.8732 111.452L39.3982 109.764L44.1638 108.419H47.3568L51.1335 110.699H52.3249L53.0874 108.921L53.3734 99.799L51.3718 93.5051V91.2247L52.9206 84.315L53.1351 80.5296L50.9906 75.6495L48.7746 73.1981L49.2749 68.9794L50.9667 65.5588L50.6927 62.7767L52.6228 58.2957L52.1462 56.8704L50.8595 55.8671L49.4775 56.2205L46.5109 60.4279L45.7603 61.0664L43.5919 61.5567L39.9701 60.7585L36.4554 58.3983L25.0775 54.7953L23.8146 53.5411L20.014 51.4659L18.0482 49.0943L17.1428 48.7408L11.6266 50.5423L9.41055 49.6986L1.52344 49.8582L1.63068 31.1133H6.56309L26.2928 14.4892L56.2208 8.78823L59.0921 11.2283L65.895 11.7755L73.5796 10.9546L79.3579 11.5931L85.7081 11.4107L91.963 4.27303" fill="#64CCFF"/>
<path d="M105.962 1.41113L121.307 7.88747L145.767 16.1539L150.532 18.8334L156.061 17.1687H160.409L170.584 21.8663L189.503 39.6078L196.652 51.4887L193.078 54.4532L184.619 59.014L173.288 57.5546L171.025 56.802L168.999 54.5216L166.259 53.6551L160.302 53.4384L159.599 59.6867L158.729 61.8417L158.134 62.0926L154.917 60.4507H151.605L145.826 62.2294L143.313 64.3045L143.181 65.1027L144.111 70.9633L144.194 80.5866L142.586 81.7268L137.82 83.5967L125.906 84.4975L118.603 85.5807L111.657 95.3636L109.417 97.4958L105.759 99.6735L105.831 102.957L107.535 108.248L108.309 113.094L107.427 116.514L104.497 118.453L97.2171 119.057L95.6921 118.726L89.9733 119.456L86.828 119.103L81.5025 119.479L70.3866 117.575L69.2906 118.259L68.1825 123.401L68.3017 144.164L67.5154 159.876L65.5853 161.016L64.4654 160.936L63.548 158.941L61.1652 159.762L58.9134 158.781L56.9 158.918L42.6031 165.132L39.7437 168.553L37.5873 170.069L34.2752 169.739L33.3697 169.157L30.4388 164.996L31.8209 159.557L34.9304 153.138L37.4562 141.975L36.515 127.095L36.6818 115.762L37.8732 111.452L39.3982 109.764L44.1638 108.419H47.3568L51.1335 110.699H52.3249L53.0874 108.921L53.3734 99.799L51.3718 93.5051V91.2247L52.9206 84.315L53.1351 80.5296L50.9906 75.6495L48.7746 73.1981L49.2749 68.9794L50.9667 65.5588L50.6927 62.7767L52.6228 58.2957L52.1462 56.8704L50.8595 55.8671L49.4775 56.2205L46.5109 60.4279L45.7603 61.0664L43.5919 61.5567L39.9701 60.7585L36.4554 58.3983L25.0775 54.7953L23.8146 53.5411L20.014 51.4659L18.0482 49.0943L17.1428 48.7408L11.6266 50.5423L9.41055 49.6986L1.52344 49.8582L1.63068 31.1133H6.56309L26.2928 14.4892L56.2208 8.78823L59.0921 11.2283L65.895 11.7755L73.5796 10.9546L79.3579 11.5931L85.7081 11.4107L91.963 4.27303" stroke="#00344D" stroke-width="1.04942" stroke-miterlimit="10"/>
<path d="M77.475 44.3052C77.4303 43.9275 77.2489 43.6344 76.9309 43.4257C76.6129 43.217 76.2229 43.1126 75.7607 43.1126C75.4229 43.1126 75.1272 43.1673 74.8738 43.2766C74.6229 43.3859 74.4266 43.5362 74.285 43.7275C74.1459 43.9188 74.0763 44.1362 74.0763 44.3797C74.0763 44.5834 74.1248 44.7586 74.2216 44.9052C74.321 45.0493 74.4477 45.1697 74.6018 45.2666C74.7558 45.361 74.9173 45.4393 75.0862 45.5014C75.2552 45.561 75.4104 45.6095 75.5521 45.6468L76.3272 45.8555C76.526 45.9076 76.7471 45.9797 76.9905 46.0716C77.2365 46.1635 77.4713 46.289 77.6949 46.448C77.921 46.6045 78.1073 46.8057 78.2539 47.0517C78.4005 47.2977 78.4737 47.5995 78.4737 47.9573C78.4737 48.3697 78.3657 48.7424 78.1495 49.0753C77.9359 49.4082 77.6228 49.6728 77.2104 49.8691C76.8005 50.0653 76.3024 50.1635 75.716 50.1635C75.1695 50.1635 74.6962 50.0753 74.2962 49.8989C73.8987 49.7225 73.5856 49.4765 73.3571 49.161C73.131 48.8455 73.003 48.479 72.9732 48.0616H73.9272C73.9521 48.3498 74.049 48.5883 74.2179 48.7771C74.3893 48.9635 74.6055 49.1026 74.8664 49.1945C75.1297 49.284 75.4129 49.3287 75.716 49.3287C76.0688 49.3287 76.3856 49.2715 76.6663 49.1573C76.9471 49.0405 77.1694 48.879 77.3334 48.6728C77.4974 48.4641 77.5794 48.2206 77.5794 47.9424C77.5794 47.689 77.5085 47.4828 77.3669 47.3238C77.2253 47.1647 77.039 47.0356 76.8079 46.9362C76.5769 46.8368 76.3272 46.7498 76.0589 46.6753L75.1198 46.407C74.5235 46.2356 74.0515 45.9909 73.7036 45.6728C73.3558 45.3548 73.1819 44.9387 73.1819 44.4244C73.1819 43.9971 73.2974 43.6244 73.5285 43.3064C73.762 42.9859 74.0751 42.7375 74.4676 42.5611C74.8626 42.3822 75.3036 42.2928 75.7906 42.2928C76.2825 42.2928 76.7197 42.381 77.1023 42.5574C77.4849 42.7313 77.788 42.9698 78.0116 43.2729C78.2377 43.576 78.357 43.9201 78.3694 44.3052H77.475ZM86.4329 46.2132C86.4329 47.0182 86.2876 47.7138 85.9969 48.3001C85.7062 48.8865 85.3075 49.3386 84.8007 49.6566C84.2938 49.9746 83.715 50.1336 83.064 50.1336C82.4131 50.1336 81.8343 49.9746 81.3274 49.6566C80.8206 49.3386 80.4219 48.8865 80.1312 48.3001C79.8405 47.7138 79.6952 47.0182 79.6952 46.2132C79.6952 45.4083 79.8405 44.7126 80.1312 44.1263C80.4219 43.54 80.8206 43.0878 81.3274 42.7698C81.8343 42.4518 82.4131 42.2928 83.064 42.2928C83.715 42.2928 84.2938 42.4518 84.8007 42.7698C85.3075 43.0878 85.7062 43.54 85.9969 44.1263C86.2876 44.7126 86.4329 45.4083 86.4329 46.2132ZM85.5385 46.2132C85.5385 45.5524 85.428 44.9946 85.2069 44.5399C84.9882 44.0853 84.6914 43.7412 84.3162 43.5077C83.9435 43.2741 83.5262 43.1574 83.064 43.1574C82.6019 43.1574 82.1833 43.2741 81.8082 43.5077C81.4355 43.7412 81.1386 44.0853 80.9175 44.5399C80.6989 44.9946 80.5896 45.5524 80.5896 46.2132C80.5896 46.8741 80.6989 47.4318 80.9175 47.8865C81.1386 48.3411 81.4355 48.6852 81.8082 48.9188C82.1833 49.1523 82.6019 49.2691 83.064 49.2691C83.5262 49.2691 83.9435 49.1523 84.3162 48.9188C84.6914 48.6852 84.9882 48.3411 85.2069 47.8865C85.428 47.4318 85.5385 46.8741 85.5385 46.2132ZM87.987 50.0293V42.3971H88.9112V46.1834H89.0006L92.4291 42.3971H93.6365L90.4316 45.8405L93.6365 50.0293H92.5186L89.8652 46.4815L88.9112 47.5548V50.0293H87.987ZM100.914 46.2132C100.914 47.0182 100.768 47.7138 100.478 48.3001C100.187 48.8865 99.7883 49.3386 99.2815 49.6566C98.7747 49.9746 98.1958 50.1336 97.5449 50.1336C96.8939 50.1336 96.3151 49.9746 95.8083 49.6566C95.3014 49.3386 94.9027 48.8865 94.612 48.3001C94.3213 47.7138 94.176 47.0182 94.176 46.2132C94.176 45.4083 94.3213 44.7126 94.612 44.1263C94.9027 43.54 95.3014 43.0878 95.8083 42.7698C96.3151 42.4518 96.8939 42.2928 97.5449 42.2928C98.1958 42.2928 98.7747 42.4518 99.2815 42.7698C99.7883 43.0878 100.187 43.54 100.478 44.1263C100.768 44.7126 100.914 45.4083 100.914 46.2132ZM100.019 46.2132C100.019 45.5524 99.9088 44.9946 99.6877 44.5399C99.4691 44.0853 99.1722 43.7412 98.797 43.5077C98.4244 43.2741 98.007 43.1574 97.5449 43.1574C97.0828 43.1574 96.6641 43.2741 96.289 43.5077C95.9163 43.7412 95.6194 44.0853 95.3983 44.5399C95.1797 44.9946 95.0704 45.5524 95.0704 46.2132C95.0704 46.8741 95.1797 47.4318 95.3983 47.8865C95.6194 48.3411 95.9163 48.6852 96.289 48.9188C96.6641 49.1523 97.0828 49.2691 97.5449 49.2691C98.007 49.2691 98.4244 49.1523 98.797 48.9188C99.1722 48.6852 99.4691 48.3411 99.6877 47.8865C99.9088 47.4318 100.019 46.8741 100.019 46.2132ZM101.733 43.217V42.3971H107.457V43.217H105.057V50.0293H104.133V43.217H101.733ZM115.005 46.2132C115.005 47.0182 114.86 47.7138 114.569 48.3001C114.278 48.8865 113.88 49.3386 113.373 49.6566C112.866 49.9746 112.287 50.1336 111.636 50.1336C110.985 50.1336 110.406 49.9746 109.9 49.6566C109.393 49.3386 108.994 48.8865 108.703 48.3001C108.413 47.7138 108.267 47.0182 108.267 46.2132C108.267 45.4083 108.413 44.7126 108.703 44.1263C108.994 43.54 109.393 43.0878 109.9 42.7698C110.406 42.4518 110.985 42.2928 111.636 42.2928C112.287 42.2928 112.866 42.4518 113.373 42.7698C113.88 43.0878 114.278 43.54 114.569 44.1263C114.86 44.7126 115.005 45.4083 115.005 46.2132ZM114.111 46.2132C114.111 45.5524 114 44.9946 113.779 44.5399C113.56 44.0853 113.264 43.7412 112.888 43.5077C112.516 43.2741 112.098 43.1574 111.636 43.1574C111.174 43.1574 110.756 43.2741 110.38 43.5077C110.008 43.7412 109.711 44.0853 109.49 44.5399C109.271 44.9946 109.162 45.5524 109.162 46.2132C109.162 46.8741 109.271 47.4318 109.49 47.8865C109.711 48.3411 110.008 48.6852 110.38 48.9188C110.756 49.1523 111.174 49.2691 111.636 49.2691C112.098 49.2691 112.516 49.1523 112.888 48.9188C113.264 48.6852 113.56 48.3411 113.779 47.8865C114 47.4318 114.111 46.8741 114.111 46.2132Z" fill="#00344D"/>
</svg>
