<svg width="214" height="222" viewBox="0 0 214 222" fill="none" xmlns="http://www.w3.org/2000/svg">
<path d="M108.868 8.70706L114.337 5.68554L121.306 6.5749L133.923 1.04492L141.596 2.28777H146.362L150.615 3.0973L157.644 2.41318H172.489L180.078 1.87728L186.572 13.4845L188.311 15.6737L193.851 16.9051L196.329 18.376L202.596 29.5727L202.048 32.0469L202.453 36.4253L205.622 39.7775L210.554 41.4536L212.937 45.832L213.247 47.8958L212.056 52.0233L204.907 65.0672L205.36 71.6575L204.836 74.0291L197.544 79.9809L187.262 93.116L181.21 99.3643L176.683 103.036L171.75 108.486L170.773 110.287L173.776 117.961L177.243 123.32L180.471 126.113L183.712 123.833L187.084 119.272L189.038 118.839L190.729 119.329L192.54 120.606L195.519 124.198L200.666 128.576L203.227 131.541L204.419 133.821L203.728 140.081L204.609 142.053L205.062 146.09L207.373 151.357L207.314 153.136L208.767 154.14L202.882 160.388L201.583 162.6L200.523 165.929L200.976 172.679L202.072 176.465L203.656 178.882L203.442 180.353L202.25 181.185L197.485 180.786L196.675 181.31L194.22 181.379L194.006 183.249L191.957 184.104L190.122 186.305L187.846 186.795L186.548 191.595L184.081 192.473L182.449 195.574L182.521 196.144L183.641 196.087L184.189 196.589L184.296 198.607L185.344 198.733L185.571 199.748L184.379 200.238L183.641 201.549L184.761 203.282L184.665 204.422L182.378 205.688L182.116 209.359L180.376 211.001L179.697 213.179L177.541 214.068L175.432 213.122L174.717 213.738L173.24 213.909L172.692 214.639L173.24 215.642L173.025 217.614L172.501 218.185L168.033 218.96L167.533 219.211L167.295 220.773L165.662 220.568L162.088 218.287L159.407 219.427L158.609 218.629L155.035 217.877L153.296 216.417L152.605 216.474L151.151 218.082L148.768 217.991L149.054 208.037L146.671 205.574L144.003 205.449L141.191 207.889L137.807 207.341L135.591 206.372L133.888 202.518L132.482 200.021L131.028 199.098L129.634 199.018L128.073 196.612L127.931 195.78L129.908 190.318L126.739 188.22L124.964 187.992L124.249 188.836L122.128 186.419L120.937 186.327L119.15 184.492L118.232 184.412L117.804 182.679L116.314 181.96L115.838 182.485L114.086 182.074L111.882 180.273L112.502 178.072L112.025 175.689L110.059 174.23L109.154 179.657L109.249 182.952L107.593 189.794L106.545 190.934L104.555 191.584L104.15 192.576L103.388 192.701L102.268 191.561L83.5745 193.294L80.4292 189.805L81.1679 187.81L80.1552 185.461L79.9288 184.115L80.0122 183.192L78.9519 182.827L69.1823 191.264L68.4199 192.541L65.5128 194.503L64.1784 196.601L58.6741 201.88L57.0777 201.059L54.4566 200.945L52.5503 200.694L51.5972 199.998L50.5249 202.427L50.8824 203.328L49.9769 204.468L49.5242 206.52L49.9531 208.801L49.6195 210.021L48.9046 210.443L47.7132 213.658L46.081 219.838L45.4853 220.283L44.6871 219.838L43.1144 220.26L41.923 218.755L41.3988 219.279L43.6625 209.941V199.953L44.0556 198.721L43.3288 197.889L45.8427 184.777L49.7863 177.753L53.8847 174.047L57.5661 171.835L58.6623 170.205L58.3167 163.455L61.1523 156.739L61.8552 153.056L61.188 151.027L61.4978 149.887L60.1038 148.336L60.2706 147.595L50.2867 138.884L44.9968 132.442L38.873 126.855L29.9613 124.836L20.2156 124.289L11.3158 125.372L4.0244 128.371L1.76074 127.721L6.27618 120.88L7.71777 119.295L21.0973 111.074L21.2283 109.717L20.0369 106.662L20.6803 105.92L20.2633 102.637L17.8804 99.7748L15.8432 98.2241L16.7129 94.9632L18.2974 92.5231L19.8224 91.5426H22.0504L24.1115 92.5688L25.3029 93.7888L27.1138 93.5265L27.507 93.994L32.8802 95.0772L36.1447 94.1422L39.2185 89.9463L43.8054 90.2313L48.7021 89.6156L53.9562 88.4754L56.8513 87.1186L66.0013 78.3961L74.4722 74.1089L80.1194 67.587L82.5737 62.8095L85.5403 61.1677L96.8825 58.7732L99.1462 58.8987L113.61 52.2285L115.731 48.7167L115.48 42.4H114.98L114.623 39.8345L115.278 38.318L114.086 31.4769L111.346 27.0757L110.441 20.2345L111.048 15.5825L110.798 13.131L108.868 8.70706Z" fill="#D62B3C" stroke="#00344D" stroke-width="1.04942" stroke-miterlimit="10"/>
<path d="M87.0596 114.159V113.34H92.7837V114.159H90.3837V120.972H89.4595V114.159H87.0596ZM93.6315 120.972H92.6626L95.465 113.34H96.419L99.2215 120.972H98.2525L95.9718 114.547H95.9122L93.6315 120.972ZM93.9893 117.99H97.8948V118.81H93.9893V117.99ZM100.41 120.972V113.34H102.989C103.585 113.34 104.075 113.441 104.457 113.645C104.84 113.846 105.123 114.123 105.307 114.476C105.491 114.829 105.583 115.23 105.583 115.68C105.583 116.13 105.491 116.528 105.307 116.876C105.123 117.224 104.841 117.497 104.461 117.696C104.081 117.892 103.595 117.99 103.004 117.99H100.917V117.156H102.974C103.382 117.156 103.71 117.096 103.958 116.977C104.209 116.857 104.39 116.689 104.502 116.47C104.616 116.249 104.674 115.985 104.674 115.68C104.674 115.374 104.616 115.107 104.502 114.879C104.388 114.65 104.205 114.474 103.954 114.349C103.703 114.223 103.372 114.159 102.959 114.159H101.334V120.972H100.41ZM104.003 117.543L105.881 120.972H104.808L102.959 117.543H104.003ZM107.436 120.972H106.467L109.269 113.34H110.223L113.026 120.972H112.057L109.776 114.547H109.717L107.436 120.972ZM107.794 117.99H111.699V118.81H107.794V117.99ZM114.215 120.972V113.34H116.883C117.415 113.34 117.853 113.431 118.198 113.615C118.544 113.797 118.801 114.041 118.97 114.349C119.139 114.655 119.223 114.994 119.223 115.367C119.223 115.695 119.165 115.966 119.048 116.179C118.934 116.393 118.782 116.562 118.594 116.686C118.407 116.81 118.205 116.902 117.986 116.962V117.036C118.22 117.051 118.454 117.133 118.69 117.282C118.926 117.431 119.124 117.645 119.283 117.923C119.442 118.202 119.521 118.542 119.521 118.944C119.521 119.327 119.435 119.671 119.261 119.977C119.087 120.282 118.812 120.524 118.437 120.703C118.062 120.882 117.574 120.972 116.972 120.972H114.215ZM115.139 120.152H116.972C117.576 120.152 118.005 120.035 118.258 119.802C118.514 119.565 118.642 119.28 118.642 118.944C118.642 118.686 118.576 118.447 118.444 118.229C118.313 118.008 118.125 117.831 117.882 117.7C117.638 117.566 117.35 117.498 117.017 117.498H115.139V120.152ZM115.139 116.693H116.853C117.131 116.693 117.382 116.639 117.606 116.53C117.832 116.42 118.011 116.266 118.143 116.067C118.277 115.869 118.344 115.635 118.344 115.367C118.344 115.031 118.227 114.747 117.994 114.513C117.76 114.277 117.39 114.159 116.883 114.159H115.139V116.693ZM121.353 120.972H120.384L123.187 113.34H124.141L126.943 120.972H125.974L123.693 114.547H123.634L121.353 120.972ZM121.711 117.99H125.616V118.81H121.711V117.99Z" fill="#00344D"/>
</svg>
