<svg width="210" height="202" viewBox="0 0 210 202" fill="none" xmlns="http://www.w3.org/2000/svg">
<path d="M111.558 1.14844L126.391 1.36507L137.781 2.73331L150.6 7.53355L164.528 10.4411L167.78 12.0944L175.036 17.9892L180.731 21.4098L182.613 21.5694L182.971 20.6344L184.162 20.3152L186.128 21.0563L186.867 20.4634L186.164 19.1522L187.939 19.3346L189.964 20.4064L191.942 19.9275L192.931 20.7371L193.681 21.9571L194.873 21.2502L198.268 21.9457L199.15 22.5158L200.258 22.6526H201.449L201.354 27.4528L199.579 36.5744L201.044 40.9642L202.843 43.0508L208.562 47.4291L209.134 51.6935L206.942 56.4937L204.13 59.9827L195.695 67.2002L195.04 69.7086L197.089 74.0756L197.029 80.6774L194.003 99.2512L193.848 103.242L195.862 111.725L190.238 122.146L190.417 124.358L191.18 124.769L197.029 124.529L200.758 128.805L201.759 132.602L200.568 135.008L195.159 140.059L191.227 146.786L187.784 150.606L186.712 153.867V157.287L187.617 162.019L187.331 165.371L184.972 168.849L177.693 173.011L164.337 176.431L161.144 178.643L159.095 181.87L158.368 185.028L158.702 194.595L154.639 199.76L151.065 200.547H142.916L142.558 199.965L141.641 192.611L143.071 179.099L142.272 173.547L137.888 169.693L136.006 170.833L137.197 169.077L133.122 164.995L127.463 157.698L117.348 150.56L114.751 149.089L111.177 147.949L106.411 147.755L101.443 149.477L100.359 150.48L96.7844 150.059L94.8425 148.314L96.0339 140.583L97.2849 137.482L97.5589 131.872L87.6107 108.031L87.3724 103.618L86.181 100.528L85.7878 97.4497L85.5376 89.7647L81.7728 84.4514L81.9991 82.3877L81.0817 74.315L79.7235 70.9743L70.5021 63.9164L69.4655 60.6099L67.3449 47.4405L64.7118 43.5639L62.5078 42.5605L60.125 43.256L54.1679 40.7248L47.1625 42.8797L45.8281 43.7007L44.0886 40.816L43.2666 35.8561L40.7289 30.406L38.0959 28.9807L30.5543 31.2611L27.1945 32.8232L23.4297 33.5415L17.0914 36.4946L14.5894 41.0554L10.8484 43.1078L3.70001 42.2754L1.56738 40.93L10.36 32.3785L14.232 27.1336L19.0929 23.1315L25.324 16.4157L30.0896 13.5196L40.8123 8.89039L59.9462 7.8186L74.8983 2.45966L98.2261 1.23965L111.558 1.14844Z" fill="#D62B3C" stroke="#00344D" stroke-width="1.04942" stroke-miterlimit="10"/>
<path d="M116.926 70.2751H117.984L120.101 73.8377H120.19L122.307 70.2751H123.365L120.607 74.7619V77.9072H119.683V74.7619L116.926 70.2751ZM130.641 74.0911C130.641 74.8961 130.496 75.5917 130.205 76.1781C129.915 76.7644 129.516 77.2166 129.009 77.5346C128.502 77.8526 127.924 78.0116 127.273 78.0116C126.622 78.0116 126.043 77.8526 125.536 77.5346C125.029 77.2166 124.63 76.7644 124.34 76.1781C124.049 75.5917 123.904 74.8961 123.904 74.0911C123.904 73.2862 124.049 72.5905 124.34 72.0042C124.63 71.4179 125.029 70.9657 125.536 70.6477C126.043 70.3297 126.622 70.1707 127.273 70.1707C127.924 70.1707 128.502 70.3297 129.009 70.6477C129.516 70.9657 129.915 71.4179 130.205 72.0042C130.496 72.5905 130.641 73.2862 130.641 74.0911ZM129.747 74.0911C129.747 73.4303 129.637 72.8725 129.415 72.4179C129.197 71.9632 128.9 71.6191 128.525 71.3856C128.152 71.1521 127.735 71.0353 127.273 71.0353C126.81 71.0353 126.392 71.1521 126.017 71.3856C125.644 71.6191 125.347 71.9632 125.126 72.4179C124.907 72.8725 124.798 73.4303 124.798 74.0911C124.798 74.752 124.907 75.3098 125.126 75.7644C125.347 76.2191 125.644 76.5631 126.017 76.7967C126.392 77.0302 126.81 77.147 127.273 77.147C127.735 77.147 128.152 77.0302 128.525 76.7967C128.9 76.5631 129.197 76.2191 129.415 75.7644C129.637 75.3098 129.747 74.752 129.747 74.0911ZM132.195 77.9072V70.2751H134.864C135.395 70.2751 135.834 70.367 136.179 70.5508C136.525 70.7322 136.782 70.9769 136.951 71.285C137.12 71.5906 137.204 71.9297 137.204 72.3023C137.204 72.6303 137.146 72.9011 137.029 73.1148C136.915 73.3284 136.763 73.4974 136.574 73.6216C136.388 73.7458 136.185 73.8377 135.967 73.8974V73.9719C136.2 73.9868 136.435 74.0688 136.671 74.2178C136.907 74.3669 137.105 74.5806 137.264 74.8588C137.423 75.1371 137.502 75.4775 137.502 75.8799C137.502 76.2625 137.415 76.6066 137.241 76.9122C137.067 77.2178 136.793 77.46 136.418 77.6389C136.043 77.8178 135.554 77.9072 134.953 77.9072H132.195ZM133.12 77.0874H134.953C135.557 77.0874 135.985 76.9706 136.239 76.7371C136.495 76.501 136.623 76.2153 136.623 75.8799C136.623 75.6215 136.557 75.383 136.425 75.1644C136.294 74.9433 136.106 74.7669 135.863 74.6352C135.619 74.5011 135.331 74.434 134.998 74.434H133.12V77.0874ZM133.12 73.629H134.834C135.112 73.629 135.363 73.5744 135.587 73.4651C135.813 73.3557 135.992 73.2017 136.123 73.003C136.258 72.8042 136.325 72.5707 136.325 72.3023C136.325 71.9669 136.208 71.6825 135.974 71.4489C135.741 71.2129 135.371 71.0949 134.864 71.0949H133.12V73.629ZM139.021 77.9072V70.2751H143.627V71.0949H139.945V73.6738H143.388V74.4936H139.945V77.0874H143.687V77.9072H139.021Z" fill="#00344D"/>
</svg>
