<svg width="166" height="170" viewBox="0 0 166 170" fill="none" xmlns="http://www.w3.org/2000/svg">
<path d="M135.465 8.46641L141.958 15.9005L148.01 15.7751L151.99 15.0796L150.298 27.4165L151.489 34.4516L151.406 41.2928L152.597 47.1876L153.062 52.6035L154.623 56.2636L154.146 60.3341L157.125 66.2631L157.947 69.6837L157.792 71.5993L158.924 74.4156L157.625 80.299L155.421 84.6089L156.922 85.9886L159.936 87.3112L163.129 89.9223L164.511 91.5527L165.107 93.8332L162.855 95.6803L158.876 94.7567L158.221 98.4054L152.407 102.966L150.882 101.974L143.006 102.122L141.219 103.08L140.445 107.641L138.586 112.361L138.05 116.649L138.241 117.869L140.516 120.035L141.589 124.242L140.099 131.197V133.854H138.908L136.12 136.568L132.844 138.586L131.831 139.886L129.794 143.774L129.031 147.822L127.232 151.504L123.658 155.039L120.882 156.761L115.271 157.468L105.811 156.818L99.0913 157.958L92.8126 163.328L89.3218 167.844L87.7968 168.71L85.7952 168.847L85.8786 167.889L83.9843 163.226L79.4569 155.655L75.5015 150.638L75.2513 144.39L73.6072 135.747L71.3077 132.326L64.898 129.236V127.868L67.3404 120.468V117.675L65.7081 115.178L60.4898 113.114L54.7115 112.407L53.258 113.331L50.2914 114.003L45.7759 113.433L39.2589 114.3L34.9103 111.552L31.491 111.426L29.4775 107.664L28.1908 107.014L23.8898 107.755L21.3998 107.402L20.3156 106.672L19.3744 106.843L18.1115 107.55L17.1345 110.195L9.58105 111.86L4.68437 109.294H2.56367L1.53906 109.842L2.32539 94.1296L2.20625 73.3666L3.31426 68.2243L4.41035 67.5401L15.5262 69.4443L20.8517 69.068L23.9971 69.4215L29.7158 68.6917L31.2408 69.0224L38.5203 68.4181L41.4511 66.4798L42.3328 63.0592L41.5583 58.2133L39.8546 52.9228L39.7832 49.639L43.4408 47.4612L45.6806 45.3291L52.6027 35.5804L59.8583 34.4402L71.7724 33.5394L76.538 31.6695L78.1464 30.5293L78.063 20.906L77.1814 15.0568L77.3124 14.2586L79.8263 12.1835L85.6046 10.4047H88.9286L92.1454 12.0466L92.7411 11.7958L93.6109 9.64081L94.3138 3.39251L100.271 3.60915L102.975 4.38449L105.001 6.66489L107.264 7.41742L118.595 8.87688L127.054 4.31608L130.628 1.35156L135.465 8.46641Z" fill="#64CCFF" stroke="#00344D" stroke-width="1.04942" stroke-miterlimit="10"/>
<path d="M60.6718 83.7314V83.0606L64.786 76.9191H60.6271V76.0993H65.8891V76.7701L61.7749 82.9116H65.9338V83.7314H60.6718ZM67.7971 83.7314H66.8282L69.6306 76.0993H70.5847L73.3871 83.7314H72.4182L70.1375 77.3067H70.0778L67.7971 83.7314ZM68.1549 80.7501H72.0604V81.57H68.1549V80.7501ZM74.5759 76.0993H75.679L78.2727 82.4346H78.3622L80.9559 76.0993H82.059V83.7314H81.1944V77.9328H81.1199L78.7348 83.7314H77.9001L75.515 77.9328H75.4405V83.7314H74.5759V76.0993ZM83.9121 83.7314V76.0993H88.4884V76.9191H84.8363V79.498H88.1456V80.3178H84.8363V83.7314H83.9121ZM89.4312 83.7314H88.4623L91.2648 76.0993H92.2188L95.0212 83.7314H94.0523L91.7716 77.3067H91.712L89.4312 83.7314ZM89.789 80.7501H93.6945V81.57H89.789V80.7501ZM96.21 83.7314V76.0993H98.7889C99.3851 76.0993 99.8746 76.2011 100.257 76.4049C100.64 76.6061 100.923 76.8831 101.107 77.2359C101.291 77.5887 101.383 77.9899 101.383 78.4396C101.383 78.8893 101.291 79.288 101.107 79.6359C100.923 79.9837 100.641 80.257 100.261 80.4557C99.8808 80.652 99.3951 80.7501 98.8038 80.7501H96.7168V79.9154H98.774C99.1814 79.9154 99.5093 79.8557 99.7578 79.7365C100.009 79.6172 100.19 79.4483 100.302 79.2297C100.416 79.0085 100.473 78.7452 100.473 78.4396C100.473 78.134 100.416 77.8669 100.302 77.6384C100.188 77.4098 100.005 77.2334 99.7541 77.1092C99.5031 76.9825 99.1715 76.9191 98.759 76.9191H97.1342V83.7314H96.21ZM99.8025 80.3029L101.681 83.7314H100.607L98.759 80.3029H99.8025ZM103.236 83.7314H102.267L105.069 76.0993H106.023L108.826 83.7314H107.857L105.576 77.3067H105.516L103.236 83.7314ZM103.593 80.7501H107.499V81.57H103.593V80.7501Z" fill="#00344D"/>
</svg>
